G04 #@! TF.GenerationSoftware,KiCad,Pcbnew,(2017-05-26 revision 1fda668)-master*
G04 #@! TF.CreationDate,2017-06-12T11:29:52-07:00*
G04 #@! TF.ProjectId,feather_five,666561746865725F666976652E6B6963,rev?*
G04 #@! TF.FileFunction,Copper,L2,Bot,Signal*
G04 #@! TF.FilePolarity,Positive*
%FSLAX46Y46*%
G04 Gerber Fmt 4.6, Leading zero omitted, Abs format (unit mm)*
G04 Created by KiCad (PCBNEW (2017-05-26 revision 1fda668)-master) date Monday, June 12, 2017 'AMt' 11:29:52 AM*
%MOMM*%
%LPD*%
G01*
G04 APERTURE LIST*
%ADD10C,0.100000*%
%ADD11O,1.700000X1.700000*%
%ADD12R,1.700000X1.700000*%
%ADD13R,0.750000X2.400000*%
%ADD14O,1.600000X1.900000*%
%ADD15C,0.914400*%
%ADD16C,0.254000*%
%ADD17C,0.203200*%
G04 APERTURE END LIST*
D10*
D11*
X135890000Y-62230000D03*
X133350000Y-62230000D03*
X130810000Y-62230000D03*
X128270000Y-62230000D03*
X125730000Y-62230000D03*
X123190000Y-62230000D03*
X120650000Y-62230000D03*
X118110000Y-62230000D03*
X115570000Y-62230000D03*
X113030000Y-62230000D03*
X110490000Y-62230000D03*
D12*
X107950000Y-62230000D03*
D11*
X135890000Y-82550000D03*
X133350000Y-82550000D03*
X130810000Y-82550000D03*
X128270000Y-82550000D03*
X125730000Y-82550000D03*
X123190000Y-82550000D03*
X120650000Y-82550000D03*
X118110000Y-82550000D03*
X115570000Y-82550000D03*
X113030000Y-82550000D03*
X110490000Y-82550000D03*
X107950000Y-82550000D03*
X105410000Y-82550000D03*
X102870000Y-82550000D03*
X100330000Y-82550000D03*
D12*
X97790000Y-82550000D03*
D13*
X102463600Y-74250000D03*
X102463600Y-78150000D03*
X103733600Y-74250000D03*
X103733600Y-78150000D03*
X105003600Y-74250000D03*
X105003600Y-78150000D03*
X106273600Y-74250000D03*
X106273600Y-78150000D03*
X107543600Y-74250000D03*
X107543600Y-78150000D03*
X122072400Y-74238400D03*
X122072400Y-70338400D03*
X120802400Y-74238400D03*
X120802400Y-70338400D03*
X119532400Y-74238400D03*
X119532400Y-70338400D03*
X118262400Y-74238400D03*
X118262400Y-70338400D03*
X116992400Y-74238400D03*
X116992400Y-70338400D03*
D14*
X92892500Y-68940000D03*
X92892500Y-75840000D03*
D15*
X118665152Y-80226778D03*
X99771200Y-76631800D03*
X128422400Y-79007554D03*
X129619373Y-74885816D03*
X139166600Y-68554600D03*
X113207800Y-69189600D03*
X99014280Y-66456560D03*
X105740200Y-72308720D03*
X119684800Y-72186800D03*
X99923600Y-78054200D03*
X114390857Y-79476703D03*
X117664007Y-64145362D03*
X127078697Y-66265012D03*
X140766790Y-68249800D03*
X123889769Y-74661105D03*
X134245792Y-78781375D03*
X137490200Y-82473800D03*
X113639600Y-65379600D03*
X105892600Y-76250800D03*
X97180400Y-73812400D03*
X132763850Y-71919750D03*
X132763850Y-70632250D03*
X134051350Y-71919750D03*
X134051350Y-70632250D03*
X123148908Y-70831549D03*
X124920517Y-64955150D03*
X139801557Y-76555600D03*
X140487434Y-74549000D03*
X135026356Y-75831261D03*
X136601168Y-75903710D03*
X122289543Y-75884797D03*
X100380800Y-79603600D03*
X114020600Y-72669400D03*
X114575946Y-77216580D03*
X109641034Y-73207212D03*
X98628198Y-74117200D03*
X112604528Y-66981230D03*
X97078800Y-70815200D03*
X108254800Y-80340200D03*
X104973216Y-80055919D03*
X131310070Y-65303390D03*
X95859600Y-65836800D03*
X126101145Y-64959633D03*
X105873111Y-70733862D03*
X98425000Y-76504800D03*
X111087993Y-73187163D03*
X110357273Y-74066404D03*
X113745044Y-75143850D03*
X132372713Y-78479818D03*
X122443364Y-77431474D03*
X114071400Y-73964800D03*
X120497600Y-76885798D03*
X119343964Y-76713426D03*
X138018018Y-70942992D03*
X133023288Y-75741529D03*
X135959810Y-66285986D03*
X134170553Y-65247091D03*
X136943012Y-67619193D03*
X137467421Y-66611478D03*
X138567822Y-66752587D03*
X115617990Y-77620560D03*
X138277570Y-73480806D03*
X118358375Y-79152095D03*
X138557011Y-74598417D03*
X107315000Y-76149200D03*
X121899530Y-78934388D03*
X137007579Y-74855198D03*
D16*
X106377234Y-71399402D02*
X110413798Y-71399402D01*
X106255317Y-71521319D02*
X106377234Y-71399402D01*
X104367281Y-71521319D02*
X106255317Y-71521319D01*
X102463600Y-73425000D02*
X104367281Y-71521319D01*
X102463600Y-74250000D02*
X102463600Y-73425000D01*
X119311730Y-80226778D02*
X118665152Y-80226778D01*
X119641929Y-80556977D02*
X119311730Y-80226778D01*
X126872977Y-80556977D02*
X119641929Y-80556977D01*
X128422400Y-79007554D02*
X126872977Y-80556977D01*
X118018574Y-80226778D02*
X118665152Y-80226778D01*
X116472578Y-80226778D02*
X118018574Y-80226778D01*
X112547400Y-76301600D02*
X116472578Y-80226778D01*
X112547400Y-72339200D02*
X112547400Y-76301600D01*
X111607602Y-71399402D02*
X112547400Y-72339200D01*
X110413798Y-71399402D02*
X111607602Y-71399402D01*
X102463600Y-74250000D02*
X101834600Y-74250000D01*
X101834600Y-74250000D02*
X99771200Y-76313400D01*
X99771200Y-76313400D02*
X99771200Y-76631800D01*
X116992400Y-70338400D02*
X114356600Y-70338400D01*
X110413798Y-71399402D02*
X110997998Y-71399402D01*
X132790128Y-74879200D02*
X132783512Y-74885816D01*
X132783512Y-74885816D02*
X130265951Y-74885816D01*
X130265951Y-74885816D02*
X129619373Y-74885816D01*
X132790128Y-74879200D02*
X132790128Y-74880272D01*
X132790128Y-74879200D02*
X132765800Y-74879200D01*
X138709401Y-69011799D02*
X139166600Y-68554600D01*
X138657529Y-69011799D02*
X138709401Y-69011799D01*
X132790128Y-74879200D02*
X138657529Y-69011799D01*
X113664999Y-69646799D02*
X113207800Y-69189600D01*
X114356600Y-70338400D02*
X113664999Y-69646799D01*
X112750601Y-69646799D02*
X113207800Y-69189600D01*
X110997998Y-71399402D02*
X112750601Y-69646799D01*
X105740200Y-72688400D02*
X105740200Y-72308720D01*
X105003600Y-73425000D02*
X105740200Y-72688400D01*
X105003600Y-74250000D02*
X105003600Y-73425000D01*
X120040400Y-72085200D02*
X119786400Y-72085200D01*
X119786400Y-72085200D02*
X119684800Y-72186800D01*
X116878989Y-64146811D02*
X116880438Y-64145362D01*
X117017429Y-64145362D02*
X117664007Y-64145362D01*
X116880438Y-64145362D02*
X117017429Y-64145362D01*
X127000000Y-66413908D02*
X127000000Y-66343709D01*
X127000000Y-66343709D02*
X127078697Y-66265012D01*
X140766800Y-68249790D02*
X140766790Y-68249800D01*
X140766800Y-67716400D02*
X140766800Y-68249790D01*
X123494800Y-74625200D02*
X123530705Y-74661105D01*
X123530705Y-74661105D02*
X123889769Y-74661105D01*
X133908800Y-78917800D02*
X134045225Y-78781375D01*
X134045225Y-78781375D02*
X134245792Y-78781375D01*
X105892600Y-75964000D02*
X105892600Y-76250800D01*
X105003600Y-75075000D02*
X105892600Y-75964000D01*
X105003600Y-74250000D02*
X105003600Y-75075000D01*
X97180400Y-73812400D02*
X97586800Y-74218800D01*
X123148908Y-70184971D02*
X123148908Y-70831549D01*
X123148908Y-66726759D02*
X123148908Y-70184971D01*
X124920517Y-64955150D02*
X123148908Y-66726759D01*
X125377716Y-65412349D02*
X124920517Y-64955150D01*
X125712401Y-65747034D02*
X125377716Y-65412349D01*
X126846532Y-65379600D02*
X126479098Y-65747034D01*
X126479098Y-65747034D02*
X125712401Y-65747034D01*
X128574800Y-66090800D02*
X127863600Y-65379600D01*
X127863600Y-65379600D02*
X126846532Y-65379600D01*
X140919200Y-67233800D02*
X139204578Y-67233800D01*
X140956182Y-67259190D02*
X140944590Y-67259190D01*
X140944590Y-67259190D02*
X140919200Y-67233800D01*
X141554200Y-67857208D02*
X140956182Y-67259190D01*
X140487434Y-74549000D02*
X141554200Y-73482234D01*
X139204578Y-67233800D02*
X137985378Y-68453000D01*
X137985378Y-68453000D02*
X136372600Y-68453000D01*
X136372600Y-68453000D02*
X134010400Y-66090800D01*
X134010400Y-66090800D02*
X128574800Y-66090800D01*
X141554200Y-73482234D02*
X141554200Y-67857208D01*
X140487434Y-74549000D02*
X140487434Y-75869723D01*
X140487434Y-75869723D02*
X140258756Y-76098401D01*
X140258756Y-76098401D02*
X139801557Y-76555600D01*
D17*
X135098805Y-75903710D02*
X135026356Y-75831261D01*
X136601168Y-75903710D02*
X135098805Y-75903710D01*
X122072400Y-75667654D02*
X122289543Y-75884797D01*
X122072400Y-74238400D02*
X122072400Y-75667654D01*
X100380800Y-79603600D02*
X97790000Y-82194400D01*
X97790000Y-82194400D02*
X97790000Y-82550000D01*
X100837999Y-80060799D02*
X100380800Y-79603600D01*
X102006401Y-81229201D02*
X100837999Y-80060799D01*
X108864399Y-81229201D02*
X102006401Y-81229201D01*
X109183835Y-80909765D02*
X108864399Y-81229201D01*
X109183835Y-73664411D02*
X109183835Y-80909765D01*
X109641034Y-73207212D02*
X109183835Y-73664411D01*
X112979201Y-75619835D02*
X112979201Y-73710799D01*
X112979201Y-73710799D02*
X113563401Y-73126599D01*
X113563401Y-73126599D02*
X114020600Y-72669400D01*
X114575946Y-77216580D02*
X112979201Y-75619835D01*
D16*
X97078800Y-70815200D02*
X98628198Y-72364598D01*
X98628198Y-73470622D02*
X98628198Y-74117200D01*
X98628198Y-72364598D02*
X98628198Y-73470622D01*
X100912770Y-66981230D02*
X111957950Y-66981230D01*
X111957950Y-66981230D02*
X112604528Y-66981230D01*
X97078800Y-70815200D02*
X100912770Y-66981230D01*
D17*
X103962202Y-80172667D02*
X104612325Y-80822790D01*
X104612325Y-80822790D02*
X107772210Y-80822790D01*
X107772210Y-80822790D02*
X107797601Y-80797399D01*
X107797601Y-80797399D02*
X108254800Y-80340200D01*
X103962202Y-79872836D02*
X103962202Y-80172667D01*
X103744167Y-79654801D02*
X103962202Y-79872836D01*
X103143401Y-79654801D02*
X103744167Y-79654801D01*
X102463600Y-78975000D02*
X103143401Y-79654801D01*
X102463600Y-78150000D02*
X102463600Y-78975000D01*
X104814519Y-80055919D02*
X104973216Y-80055919D01*
X103733600Y-78975000D02*
X104814519Y-80055919D01*
X103733600Y-78150000D02*
X103733600Y-78975000D01*
X130663492Y-65303390D02*
X131310070Y-65303390D01*
X126112989Y-64947789D02*
X130307891Y-64947789D01*
X130307891Y-64947789D02*
X130663492Y-65303390D01*
X126101145Y-64959633D02*
X126112989Y-64947789D01*
X113842800Y-63957200D02*
X97739200Y-63957200D01*
X97739200Y-63957200D02*
X95859600Y-65836800D01*
X115570000Y-62230000D02*
X113842800Y-63957200D01*
X98425000Y-76504800D02*
X98425000Y-75858222D01*
X98425000Y-75858222D02*
X103549360Y-70733862D01*
X103549360Y-70733862D02*
X105226533Y-70733862D01*
X105226533Y-70733862D02*
X105873111Y-70733862D01*
X111087993Y-73833741D02*
X111087993Y-73187163D01*
X111175800Y-73921548D02*
X111087993Y-73833741D01*
X111175800Y-78232000D02*
X111175800Y-73921548D01*
X111562153Y-78618353D02*
X111175800Y-78232000D01*
X123924468Y-81000611D02*
X123912645Y-80988788D01*
X123912645Y-80988788D02*
X122467355Y-80988788D01*
X122467355Y-80988788D02*
X122455532Y-81000611D01*
X122455532Y-81000611D02*
X121384468Y-81000611D01*
X121384468Y-81000611D02*
X121372645Y-80988788D01*
X121372645Y-80988788D02*
X113780188Y-80988788D01*
X113780188Y-80988788D02*
X111562153Y-78770753D01*
X111562153Y-78770753D02*
X111562153Y-78618353D01*
X125007355Y-80988788D02*
X124995532Y-81000611D01*
X124995532Y-81000611D02*
X123924468Y-81000611D01*
X131788788Y-80988788D02*
X127547355Y-80988788D01*
X127547355Y-80988788D02*
X127535532Y-81000611D01*
X127535532Y-81000611D02*
X126464468Y-81000611D01*
X126464468Y-81000611D02*
X126452645Y-80988788D01*
X126452645Y-80988788D02*
X125007355Y-80988788D01*
X133350000Y-82550000D02*
X131788788Y-80988788D01*
X129655199Y-81395199D02*
X127715695Y-81395199D01*
X122623872Y-81407022D02*
X121216128Y-81407022D01*
X121216128Y-81407022D02*
X121204305Y-81395199D01*
X121204305Y-81395199D02*
X113611848Y-81395199D01*
X113611848Y-81395199D02*
X110357273Y-78140624D01*
X110357273Y-78140624D02*
X110357273Y-74712982D01*
X110357273Y-74712982D02*
X110357273Y-74066404D01*
X126284305Y-81395199D02*
X125175695Y-81395199D01*
X125175695Y-81395199D02*
X125163872Y-81407022D01*
X125163872Y-81407022D02*
X123756128Y-81407022D01*
X123756128Y-81407022D02*
X123744305Y-81395199D01*
X123744305Y-81395199D02*
X122635695Y-81395199D01*
X122635695Y-81395199D02*
X122623872Y-81407022D01*
X127715695Y-81395199D02*
X127703872Y-81407022D01*
X127703872Y-81407022D02*
X126296128Y-81407022D01*
X126296128Y-81407022D02*
X126284305Y-81395199D01*
X130810000Y-82550000D02*
X129655199Y-81395199D01*
X130810000Y-82550000D02*
X131216402Y-82143598D01*
X121500473Y-76669473D02*
X120802400Y-75971400D01*
X120802400Y-75971400D02*
X120802400Y-74238400D01*
X123977400Y-77048364D02*
X122832289Y-78193475D01*
X123977400Y-77048364D02*
X123188016Y-77048364D01*
X123188016Y-77048364D02*
X122809125Y-76669473D01*
X122809125Y-76669473D02*
X121500473Y-76669473D01*
X124292384Y-76733380D02*
X123977400Y-77048364D01*
X132372713Y-78479818D02*
X130626275Y-76733380D01*
X130626275Y-76733380D02*
X124292384Y-76733380D01*
X122832289Y-78193475D02*
X122077603Y-78193475D01*
X122077603Y-78193475D02*
X121938343Y-78054215D01*
X121938343Y-78054215D02*
X119963498Y-78054215D01*
X119963498Y-78054215D02*
X119814272Y-77904989D01*
X119814272Y-77904989D02*
X118674649Y-77904989D01*
X118674649Y-77904989D02*
X118016791Y-77247131D01*
X118016791Y-77247131D02*
X116494903Y-77247131D01*
X116494903Y-77247131D02*
X114391622Y-75143850D01*
X114391622Y-75143850D02*
X113745044Y-75143850D01*
X121580456Y-77647804D02*
X121796786Y-77431474D01*
X121796786Y-77431474D02*
X122443364Y-77431474D01*
X116992400Y-75641600D02*
X118849381Y-77498581D01*
X116992400Y-74238400D02*
X116992400Y-75641600D01*
X118849381Y-77498581D02*
X119982615Y-77498581D01*
X119982615Y-77498581D02*
X120131838Y-77647804D01*
X120131838Y-77647804D02*
X121580456Y-77647804D01*
X116992400Y-74238400D02*
X114345000Y-74238400D01*
X114345000Y-74238400D02*
X114071400Y-73964800D01*
X120497600Y-76606800D02*
X120497600Y-76885798D01*
X119532400Y-75641600D02*
X120497600Y-76606800D01*
X119532400Y-74238400D02*
X119532400Y-75641600D01*
X119343964Y-76144964D02*
X119343964Y-76713426D01*
X118262400Y-75063400D02*
X119343964Y-76144964D01*
X118262400Y-74238400D02*
X118262400Y-75063400D01*
X133023288Y-75741529D02*
X137821825Y-70942992D01*
X137821825Y-70942992D02*
X138018018Y-70942992D01*
X135209448Y-66285986D02*
X135313232Y-66285986D01*
X135313232Y-66285986D02*
X135959810Y-66285986D01*
X134170553Y-65247091D02*
X135209448Y-66285986D01*
X133804791Y-64485089D02*
X135274539Y-64485089D01*
X136713611Y-67389792D02*
X136943012Y-67619193D01*
X135274539Y-64485089D02*
X136713611Y-65924161D01*
X133773858Y-64516022D02*
X133804791Y-64485089D01*
X126807731Y-64516022D02*
X133773858Y-64516022D01*
X125290752Y-64197623D02*
X126489332Y-64197623D01*
X120073149Y-64193149D02*
X125286278Y-64193149D01*
X118110000Y-62230000D02*
X120073149Y-64193149D01*
X136713611Y-65924161D02*
X136713611Y-67389792D01*
X125286278Y-64193149D02*
X125290752Y-64197623D01*
X126489332Y-64197623D02*
X126807731Y-64516022D01*
X126657672Y-63791212D02*
X126976071Y-64109611D01*
X133605518Y-64109611D02*
X133636451Y-64078678D01*
X120650000Y-62230000D02*
X122211212Y-63791212D01*
X133636451Y-64078678D02*
X135581199Y-64078678D01*
X135581199Y-64078678D02*
X137467421Y-65964900D01*
X126976071Y-64109611D02*
X133605518Y-64109611D01*
X122211212Y-63791212D02*
X126657672Y-63791212D01*
X137467421Y-65964900D02*
X137467421Y-66611478D01*
X138567822Y-66106009D02*
X138567822Y-66752587D01*
X133437178Y-63703200D02*
X133468111Y-63672267D01*
X127144411Y-63703200D02*
X133437178Y-63703200D01*
X133468111Y-63672267D02*
X136134080Y-63672267D01*
X123190000Y-62230000D02*
X124344801Y-63384801D01*
X136134080Y-63672267D02*
X138567822Y-66106009D01*
X126826012Y-63384801D02*
X127144411Y-63703200D01*
X124344801Y-63384801D02*
X126826012Y-63384801D01*
X120142000Y-82550000D02*
X120650000Y-82550000D01*
X118272668Y-78077759D02*
X116075189Y-78077759D01*
X116075189Y-78077759D02*
X115617990Y-77620560D01*
X133492951Y-79908401D02*
X131267201Y-79908401D01*
X138277570Y-73480806D02*
X137769589Y-73988787D01*
X134169707Y-80585157D02*
X133492951Y-79908401D01*
X129133600Y-77774800D02*
X124425866Y-77774800D01*
X137769589Y-73988787D02*
X137769589Y-78155811D01*
X137769589Y-78155811D02*
X135340243Y-80585157D01*
X135340243Y-80585157D02*
X134169707Y-80585157D01*
X131267201Y-79908401D02*
X129133600Y-77774800D01*
X124425866Y-77774800D02*
X122504277Y-79696389D01*
X122504277Y-79696389D02*
X120155704Y-79696389D01*
X120155704Y-79696389D02*
X118770715Y-78311400D01*
X118770715Y-78311400D02*
X118506309Y-78311400D01*
X118506309Y-78311400D02*
X118272668Y-78077759D01*
X138557011Y-74598417D02*
X138176000Y-74979428D01*
X138176000Y-74979428D02*
X138176000Y-78324151D01*
X134001367Y-80991568D02*
X133451611Y-80441812D01*
X120007402Y-80125166D02*
X119034331Y-79152095D01*
X138176000Y-78324151D02*
X135508583Y-80991568D01*
X135508583Y-80991568D02*
X134001367Y-80991568D01*
X131013212Y-80441812D02*
X128816944Y-78245544D01*
X133451611Y-80441812D02*
X131013212Y-80441812D01*
X119004953Y-79152095D02*
X118358375Y-79152095D01*
X128816944Y-78245544D02*
X124598856Y-78245544D01*
X124598856Y-78245544D02*
X122719234Y-80125166D01*
X122719234Y-80125166D02*
X120007402Y-80125166D01*
X119034331Y-79152095D02*
X119004953Y-79152095D01*
X107315000Y-76149200D02*
X107315000Y-76795778D01*
X107315000Y-76795778D02*
X107543600Y-77024378D01*
X107543600Y-77024378D02*
X107543600Y-78150000D01*
X133401130Y-79241828D02*
X131175378Y-79241828D01*
X137007579Y-74855198D02*
X137363178Y-75210797D01*
X134338047Y-80178746D02*
X133401130Y-79241828D01*
X134933854Y-80178746D02*
X134338047Y-80178746D01*
X137363178Y-77749422D02*
X134933854Y-80178746D01*
X137363178Y-75210797D02*
X137363178Y-77749422D01*
X131175378Y-79241828D02*
X129073341Y-77139791D01*
X129073341Y-77139791D02*
X124486124Y-77139791D01*
X124486124Y-77139791D02*
X122691527Y-78934388D01*
X122691527Y-78934388D02*
X122546108Y-78934388D01*
X122546108Y-78934388D02*
X121899530Y-78934388D01*
D16*
G36*
X106711536Y-63080000D02*
X106741106Y-63228659D01*
X106825314Y-63354686D01*
X106951341Y-63438894D01*
X107100000Y-63468464D01*
X108800000Y-63468464D01*
X108948659Y-63438894D01*
X109074686Y-63354686D01*
X109158894Y-63228659D01*
X109188464Y-63080000D01*
X109188464Y-61416000D01*
X109565720Y-61416000D01*
X109352704Y-61734800D01*
X109259000Y-62205883D01*
X109259000Y-62254117D01*
X109352704Y-62725200D01*
X109619552Y-63124565D01*
X110018917Y-63391413D01*
X110437127Y-63474600D01*
X97739205Y-63474600D01*
X97739200Y-63474599D01*
X97554517Y-63511336D01*
X97397950Y-63615950D01*
X96015164Y-64998736D01*
X95693603Y-64998455D01*
X95385418Y-65125795D01*
X95149423Y-65361378D01*
X95021546Y-65669340D01*
X95021255Y-66002797D01*
X95148595Y-66310982D01*
X95384178Y-66546977D01*
X95692140Y-66674854D01*
X96025597Y-66675145D01*
X96333782Y-66547805D01*
X96569777Y-66312222D01*
X96697654Y-66004260D01*
X96697936Y-65680964D01*
X97939100Y-64439800D01*
X113842800Y-64439800D01*
X114027483Y-64403064D01*
X114184050Y-64298450D01*
X115094223Y-63388277D01*
X115098917Y-63391413D01*
X115570000Y-63485117D01*
X116041083Y-63391413D01*
X116440448Y-63124565D01*
X116707296Y-62725200D01*
X116801000Y-62254117D01*
X116801000Y-62205883D01*
X116707296Y-61734800D01*
X116494280Y-61416000D01*
X117185720Y-61416000D01*
X116972704Y-61734800D01*
X116879000Y-62205883D01*
X116879000Y-62254117D01*
X116972704Y-62725200D01*
X117239552Y-63124565D01*
X117638917Y-63391413D01*
X118110000Y-63485117D01*
X118581083Y-63391413D01*
X118585777Y-63388277D01*
X119731899Y-64534399D01*
X119888466Y-64639013D01*
X120073149Y-64675749D01*
X124128945Y-64675749D01*
X124082463Y-64787690D01*
X124082212Y-65075034D01*
X122789698Y-66367549D01*
X122679577Y-66532356D01*
X122640908Y-66726759D01*
X122640908Y-68809473D01*
X122596059Y-68779506D01*
X122447400Y-68749936D01*
X121697400Y-68749936D01*
X121548741Y-68779506D01*
X121437400Y-68853901D01*
X121326059Y-68779506D01*
X121177400Y-68749936D01*
X120427400Y-68749936D01*
X120278741Y-68779506D01*
X120163993Y-68856178D01*
X120123219Y-68815404D01*
X119983185Y-68757400D01*
X119754650Y-68757400D01*
X119659400Y-68852650D01*
X119659400Y-70211400D01*
X119679400Y-70211400D01*
X119679400Y-70465400D01*
X119659400Y-70465400D01*
X119659400Y-71824150D01*
X119754650Y-71919400D01*
X119983185Y-71919400D01*
X120123219Y-71861396D01*
X120163993Y-71820622D01*
X120278741Y-71897294D01*
X120427400Y-71926864D01*
X121177400Y-71926864D01*
X121326059Y-71897294D01*
X121437400Y-71822899D01*
X121548741Y-71897294D01*
X121697400Y-71926864D01*
X122447400Y-71926864D01*
X122596059Y-71897294D01*
X122722086Y-71813086D01*
X122806294Y-71687059D01*
X122822864Y-71603753D01*
X122981448Y-71669603D01*
X123314905Y-71669894D01*
X123623090Y-71542554D01*
X123859085Y-71306971D01*
X123986962Y-70999009D01*
X123987253Y-70665552D01*
X123859913Y-70357367D01*
X123656908Y-70154007D01*
X123656908Y-66937179D01*
X124800842Y-65793246D01*
X125040402Y-65793455D01*
X125353191Y-66106244D01*
X125517998Y-66216365D01*
X125712401Y-66255034D01*
X126479098Y-66255034D01*
X126673501Y-66216365D01*
X126838308Y-66106244D01*
X127056952Y-65887600D01*
X127653180Y-65887600D01*
X128215590Y-66450010D01*
X128380397Y-66560131D01*
X128574800Y-66598800D01*
X133799980Y-66598800D01*
X136013390Y-68812210D01*
X136178196Y-68922331D01*
X136210450Y-68928746D01*
X136372600Y-68961000D01*
X137985378Y-68961000D01*
X137991033Y-68959875D01*
X132573092Y-74377816D01*
X130296619Y-74377816D01*
X130094795Y-74175639D01*
X129786833Y-74047762D01*
X129453376Y-74047471D01*
X129145191Y-74174811D01*
X128909196Y-74410394D01*
X128781319Y-74718356D01*
X128781028Y-75051813D01*
X128908368Y-75359998D01*
X129143951Y-75595993D01*
X129451913Y-75723870D01*
X129785370Y-75724161D01*
X130093555Y-75596821D01*
X130296915Y-75393816D01*
X132260082Y-75393816D01*
X132185234Y-75574069D01*
X132184943Y-75907526D01*
X132312283Y-76215711D01*
X132547866Y-76451706D01*
X132855828Y-76579583D01*
X133189285Y-76579874D01*
X133497470Y-76452534D01*
X133733465Y-76216951D01*
X133861342Y-75908989D01*
X133861624Y-75585693D01*
X137720342Y-71726975D01*
X137850558Y-71781046D01*
X138184015Y-71781337D01*
X138492200Y-71653997D01*
X138728195Y-71418414D01*
X138856072Y-71110452D01*
X138856363Y-70776995D01*
X138729023Y-70468810D01*
X138493440Y-70232815D01*
X138254252Y-70133496D01*
X138912285Y-69475463D01*
X139036169Y-69392686D01*
X139332597Y-69392945D01*
X139640782Y-69265605D01*
X139876777Y-69030022D01*
X140004654Y-68722060D01*
X140004945Y-68388603D01*
X139877605Y-68080418D01*
X139642022Y-67844423D01*
X139409095Y-67747703D01*
X139414998Y-67741800D01*
X140720372Y-67741800D01*
X141046200Y-68067628D01*
X141046200Y-73271814D01*
X140607110Y-73710904D01*
X140321437Y-73710655D01*
X140013252Y-73837995D01*
X139777257Y-74073578D01*
X139649380Y-74381540D01*
X139649089Y-74714997D01*
X139776429Y-75023182D01*
X139979434Y-75226542D01*
X139979434Y-75659303D01*
X139921233Y-75717504D01*
X139635560Y-75717255D01*
X139327375Y-75844595D01*
X139091380Y-76080178D01*
X138963503Y-76388140D01*
X138963212Y-76721597D01*
X139090552Y-77029782D01*
X139326135Y-77265777D01*
X139634097Y-77393654D01*
X139967554Y-77393945D01*
X140275739Y-77266605D01*
X140511734Y-77031022D01*
X140639611Y-76723060D01*
X140639862Y-76435715D01*
X140846645Y-76228933D01*
X140956765Y-76064126D01*
X140995434Y-75869723D01*
X140995434Y-75226246D01*
X141197611Y-75024422D01*
X141325488Y-74716460D01*
X141325739Y-74429115D01*
X141784000Y-73970854D01*
X141784000Y-81235089D01*
X141617112Y-82074094D01*
X141167293Y-82747293D01*
X140494094Y-83197112D01*
X139655089Y-83364000D01*
X136792665Y-83364000D01*
X136867652Y-83298056D01*
X137079501Y-82866982D01*
X137019193Y-82677000D01*
X136017000Y-82677000D01*
X136017000Y-82697000D01*
X135763000Y-82697000D01*
X135763000Y-82677000D01*
X134760807Y-82677000D01*
X134700499Y-82866982D01*
X134912348Y-83298056D01*
X134987335Y-83364000D01*
X134274280Y-83364000D01*
X134487296Y-83045200D01*
X134581000Y-82574117D01*
X134581000Y-82525883D01*
X134487296Y-82054800D01*
X134220448Y-81655435D01*
X133927036Y-81459382D01*
X134001367Y-81474168D01*
X135298598Y-81474168D01*
X135273036Y-81484755D01*
X134912348Y-81801944D01*
X134700499Y-82233018D01*
X134760807Y-82423000D01*
X135763000Y-82423000D01*
X135763000Y-81421373D01*
X136017000Y-81421373D01*
X136017000Y-82423000D01*
X137019193Y-82423000D01*
X137079501Y-82233018D01*
X136867652Y-81801944D01*
X136663949Y-81622807D01*
X137968700Y-81622807D01*
X138231674Y-82259252D01*
X138718187Y-82746614D01*
X139354172Y-83010699D01*
X140042807Y-83011300D01*
X140679252Y-82748326D01*
X141166614Y-82261813D01*
X141430699Y-81625828D01*
X141431300Y-80937193D01*
X141168326Y-80300748D01*
X140681813Y-79813386D01*
X140045828Y-79549301D01*
X139357193Y-79548700D01*
X138720748Y-79811674D01*
X138233386Y-80298187D01*
X137969301Y-80934172D01*
X137968700Y-81622807D01*
X136663949Y-81622807D01*
X136506964Y-81484755D01*
X136206980Y-81360511D01*
X136017000Y-81421373D01*
X135763000Y-81421373D01*
X135732110Y-81411477D01*
X135849833Y-81332818D01*
X138517250Y-78665401D01*
X138621864Y-78508834D01*
X138658600Y-78324151D01*
X138658600Y-75436706D01*
X138723008Y-75436762D01*
X139031193Y-75309422D01*
X139267188Y-75073839D01*
X139395065Y-74765877D01*
X139395356Y-74432420D01*
X139268016Y-74124235D01*
X139032433Y-73888240D01*
X139018398Y-73882412D01*
X139115624Y-73648266D01*
X139115915Y-73314809D01*
X138988575Y-73006624D01*
X138752992Y-72770629D01*
X138445030Y-72642752D01*
X138111573Y-72642461D01*
X137803388Y-72769801D01*
X137567393Y-73005384D01*
X137439516Y-73313346D01*
X137439234Y-73636642D01*
X137428339Y-73647537D01*
X137323725Y-73804104D01*
X137286989Y-73988787D01*
X137286989Y-74063630D01*
X137175039Y-74017144D01*
X136841582Y-74016853D01*
X136533397Y-74144193D01*
X136297402Y-74379776D01*
X136169525Y-74687738D01*
X136169234Y-75021195D01*
X136223605Y-75152783D01*
X136126986Y-75192705D01*
X135898182Y-75421110D01*
X135763818Y-75421110D01*
X135737361Y-75357079D01*
X135501778Y-75121084D01*
X135193816Y-74993207D01*
X134860359Y-74992916D01*
X134552174Y-75120256D01*
X134316179Y-75355839D01*
X134188302Y-75663801D01*
X134188011Y-75997258D01*
X134315351Y-76305443D01*
X134550934Y-76541438D01*
X134858896Y-76669315D01*
X135192353Y-76669606D01*
X135500538Y-76542266D01*
X135656767Y-76386310D01*
X135898566Y-76386310D01*
X136125746Y-76613887D01*
X136433708Y-76741764D01*
X136767165Y-76742055D01*
X136880578Y-76695193D01*
X136880578Y-77549522D01*
X134733954Y-79696146D01*
X134537947Y-79696146D01*
X133742380Y-78900578D01*
X133585813Y-78795964D01*
X133401130Y-78759228D01*
X133164281Y-78759228D01*
X133210767Y-78647278D01*
X133211058Y-78313821D01*
X133083718Y-78005636D01*
X132848135Y-77769641D01*
X132540173Y-77641764D01*
X132216877Y-77641482D01*
X130967525Y-76392130D01*
X130810958Y-76287516D01*
X130626275Y-76250780D01*
X124292389Y-76250780D01*
X124292384Y-76250779D01*
X124107701Y-76287516D01*
X123951134Y-76392130D01*
X123951132Y-76392133D01*
X123777500Y-76565764D01*
X123387916Y-76565764D01*
X123150375Y-76328223D01*
X123042841Y-76256372D01*
X123127597Y-76052257D01*
X123127888Y-75718800D01*
X123000548Y-75410615D01*
X122835864Y-75245643D01*
X122835864Y-73038400D01*
X122806294Y-72889741D01*
X122722086Y-72763714D01*
X122596059Y-72679506D01*
X122447400Y-72649936D01*
X121697400Y-72649936D01*
X121548741Y-72679506D01*
X121437400Y-72753901D01*
X121326059Y-72679506D01*
X121177400Y-72649936D01*
X120427400Y-72649936D01*
X120278741Y-72679506D01*
X120167400Y-72753901D01*
X120056059Y-72679506D01*
X119907400Y-72649936D01*
X119157400Y-72649936D01*
X119008741Y-72679506D01*
X118897400Y-72753901D01*
X118786059Y-72679506D01*
X118637400Y-72649936D01*
X117887400Y-72649936D01*
X117738741Y-72679506D01*
X117627400Y-72753901D01*
X117516059Y-72679506D01*
X117367400Y-72649936D01*
X116617400Y-72649936D01*
X116468741Y-72679506D01*
X116342714Y-72763714D01*
X116258506Y-72889741D01*
X116228936Y-73038400D01*
X116228936Y-73755800D01*
X114891976Y-73755800D01*
X114782405Y-73490618D01*
X114583738Y-73291604D01*
X114730777Y-73144822D01*
X114858654Y-72836860D01*
X114858945Y-72503403D01*
X114731605Y-72195218D01*
X114496022Y-71959223D01*
X114188060Y-71831346D01*
X113854603Y-71831055D01*
X113546418Y-71958395D01*
X113310423Y-72193978D01*
X113182546Y-72501940D01*
X113182264Y-72825237D01*
X113055400Y-72952101D01*
X113055400Y-72339200D01*
X113016731Y-72144797D01*
X113016731Y-72144796D01*
X112906610Y-71979990D01*
X112021220Y-71094600D01*
X113088124Y-70027696D01*
X113327685Y-70027905D01*
X113997390Y-70697611D01*
X114162197Y-70807731D01*
X114356600Y-70846400D01*
X116228936Y-70846400D01*
X116228936Y-71538400D01*
X116258506Y-71687059D01*
X116342714Y-71813086D01*
X116468741Y-71897294D01*
X116617400Y-71926864D01*
X117367400Y-71926864D01*
X117516059Y-71897294D01*
X117630807Y-71820622D01*
X117671581Y-71861396D01*
X117811615Y-71919400D01*
X118040150Y-71919400D01*
X118135400Y-71824150D01*
X118135400Y-70465400D01*
X118389400Y-70465400D01*
X118389400Y-71824150D01*
X118484650Y-71919400D01*
X118713185Y-71919400D01*
X118853219Y-71861396D01*
X118897400Y-71817215D01*
X118941581Y-71861396D01*
X119081615Y-71919400D01*
X119310150Y-71919400D01*
X119405400Y-71824150D01*
X119405400Y-70465400D01*
X118389400Y-70465400D01*
X118135400Y-70465400D01*
X118115400Y-70465400D01*
X118115400Y-70211400D01*
X118135400Y-70211400D01*
X118135400Y-68852650D01*
X118389400Y-68852650D01*
X118389400Y-70211400D01*
X119405400Y-70211400D01*
X119405400Y-68852650D01*
X119310150Y-68757400D01*
X119081615Y-68757400D01*
X118941581Y-68815404D01*
X118897400Y-68859585D01*
X118853219Y-68815404D01*
X118713185Y-68757400D01*
X118484650Y-68757400D01*
X118389400Y-68852650D01*
X118135400Y-68852650D01*
X118040150Y-68757400D01*
X117811615Y-68757400D01*
X117671581Y-68815404D01*
X117630807Y-68856178D01*
X117516059Y-68779506D01*
X117367400Y-68749936D01*
X116617400Y-68749936D01*
X116468741Y-68779506D01*
X116342714Y-68863714D01*
X116258506Y-68989741D01*
X116228936Y-69138400D01*
X116228936Y-69830400D01*
X114567021Y-69830400D01*
X114045896Y-69309276D01*
X114046145Y-69023603D01*
X113918805Y-68715418D01*
X113683222Y-68479423D01*
X113375260Y-68351546D01*
X113041803Y-68351255D01*
X112733618Y-68478595D01*
X112497623Y-68714178D01*
X112369746Y-69022140D01*
X112369495Y-69309485D01*
X110787578Y-70891402D01*
X106711174Y-70891402D01*
X106711456Y-70567865D01*
X106584116Y-70259680D01*
X106348533Y-70023685D01*
X106040571Y-69895808D01*
X105707114Y-69895517D01*
X105398929Y-70022857D01*
X105170125Y-70251262D01*
X103549360Y-70251262D01*
X103364677Y-70287998D01*
X103208110Y-70392612D01*
X103208108Y-70392615D01*
X99466383Y-74134339D01*
X99466543Y-73951203D01*
X99339203Y-73643018D01*
X99136198Y-73439658D01*
X99136198Y-72364598D01*
X99097529Y-72170195D01*
X98987408Y-72005388D01*
X97916896Y-70934876D01*
X97917105Y-70695315D01*
X101123191Y-67489230D01*
X111927282Y-67489230D01*
X112129106Y-67691407D01*
X112437068Y-67819284D01*
X112770525Y-67819575D01*
X113078710Y-67692235D01*
X113314705Y-67456652D01*
X113442582Y-67148690D01*
X113442873Y-66815233D01*
X113315533Y-66507048D01*
X113079950Y-66271053D01*
X112771988Y-66143176D01*
X112438531Y-66142885D01*
X112130346Y-66270225D01*
X111926986Y-66473230D01*
X100912770Y-66473230D01*
X100750620Y-66505484D01*
X100718366Y-66511899D01*
X100553559Y-66622020D01*
X97198476Y-69977104D01*
X96912803Y-69976855D01*
X96604618Y-70104195D01*
X96368623Y-70339778D01*
X96240746Y-70647740D01*
X96240455Y-70981197D01*
X96367795Y-71289382D01*
X96603378Y-71525377D01*
X96911340Y-71653254D01*
X97198685Y-71653505D01*
X98120198Y-72575018D01*
X98120198Y-73439954D01*
X97918021Y-73641778D01*
X97790144Y-73949740D01*
X97789853Y-74283197D01*
X97917193Y-74591382D01*
X98152776Y-74827377D01*
X98460738Y-74955254D01*
X98645307Y-74955415D01*
X98083750Y-75516972D01*
X97979136Y-75673539D01*
X97955609Y-75791815D01*
X97950818Y-75793795D01*
X97714823Y-76029378D01*
X97586946Y-76337340D01*
X97586655Y-76670797D01*
X97713995Y-76978982D01*
X97949578Y-77214977D01*
X98257540Y-77342854D01*
X98590997Y-77343145D01*
X98899182Y-77215805D01*
X99045303Y-77069940D01*
X99060195Y-77105982D01*
X99295778Y-77341977D01*
X99603740Y-77469854D01*
X99937197Y-77470145D01*
X100245382Y-77342805D01*
X100481377Y-77107222D01*
X100609254Y-76799260D01*
X100609545Y-76465803D01*
X100529921Y-76273099D01*
X101700136Y-75102884D01*
X101700136Y-75450000D01*
X101729706Y-75598659D01*
X101813914Y-75724686D01*
X101939941Y-75808894D01*
X102088600Y-75838464D01*
X102838600Y-75838464D01*
X102987259Y-75808894D01*
X103102007Y-75732222D01*
X103142781Y-75772996D01*
X103282815Y-75831000D01*
X103511350Y-75831000D01*
X103606600Y-75735750D01*
X103606600Y-74377000D01*
X103860600Y-74377000D01*
X103860600Y-75735750D01*
X103955850Y-75831000D01*
X104184385Y-75831000D01*
X104324419Y-75772996D01*
X104368600Y-75728815D01*
X104412781Y-75772996D01*
X104552815Y-75831000D01*
X104781350Y-75831000D01*
X104876600Y-75735750D01*
X104876600Y-74377000D01*
X103860600Y-74377000D01*
X103606600Y-74377000D01*
X103586600Y-74377000D01*
X103586600Y-74123000D01*
X103606600Y-74123000D01*
X103606600Y-74103000D01*
X103860600Y-74103000D01*
X103860600Y-74123000D01*
X104876600Y-74123000D01*
X104876600Y-72764250D01*
X104781350Y-72669000D01*
X104552815Y-72669000D01*
X104412781Y-72727004D01*
X104368600Y-72771185D01*
X104324419Y-72727004D01*
X104184385Y-72669000D01*
X103955850Y-72669000D01*
X103860602Y-72764248D01*
X103860602Y-72746418D01*
X104577702Y-72029319D01*
X106255317Y-72029319D01*
X106449720Y-71990650D01*
X106574309Y-71907402D01*
X111397182Y-71907402D01*
X112039400Y-72549620D01*
X112039400Y-76301600D01*
X112078069Y-76496003D01*
X112188190Y-76660810D01*
X116033568Y-80506188D01*
X113980088Y-80506188D01*
X112032959Y-78559059D01*
X112008017Y-78433670D01*
X111982489Y-78395464D01*
X111903403Y-78277103D01*
X111903400Y-78277101D01*
X111658400Y-78032100D01*
X111658400Y-73921548D01*
X111638578Y-73821898D01*
X111798170Y-73662585D01*
X111926047Y-73354623D01*
X111926338Y-73021166D01*
X111798998Y-72712981D01*
X111563415Y-72476986D01*
X111255453Y-72349109D01*
X110921996Y-72348818D01*
X110613811Y-72476158D01*
X110377816Y-72711741D01*
X110360487Y-72753475D01*
X110352039Y-72733030D01*
X110116456Y-72497035D01*
X109808494Y-72369158D01*
X109475037Y-72368867D01*
X109166852Y-72496207D01*
X108930857Y-72731790D01*
X108802980Y-73039752D01*
X108802689Y-73373209D01*
X108805156Y-73379179D01*
X108737971Y-73479728D01*
X108701235Y-73664411D01*
X108701235Y-79617987D01*
X108422260Y-79502146D01*
X108275250Y-79502018D01*
X108277494Y-79498659D01*
X108307064Y-79350000D01*
X108307064Y-76950000D01*
X108277494Y-76801341D01*
X108193286Y-76675314D01*
X108067259Y-76591106D01*
X108041243Y-76585931D01*
X108153054Y-76316660D01*
X108153345Y-75983203D01*
X108078279Y-75801531D01*
X108193286Y-75724686D01*
X108277494Y-75598659D01*
X108307064Y-75450000D01*
X108307064Y-73050000D01*
X108277494Y-72901341D01*
X108193286Y-72775314D01*
X108067259Y-72691106D01*
X107918600Y-72661536D01*
X107168600Y-72661536D01*
X107019941Y-72691106D01*
X106908600Y-72765501D01*
X106797259Y-72691106D01*
X106648600Y-72661536D01*
X105898600Y-72661536D01*
X105749941Y-72691106D01*
X105635193Y-72767778D01*
X105594419Y-72727004D01*
X105454385Y-72669000D01*
X105225850Y-72669000D01*
X105130600Y-72764250D01*
X105130600Y-74123000D01*
X105150600Y-74123000D01*
X105150600Y-74377000D01*
X105130600Y-74377000D01*
X105130600Y-75735750D01*
X105225850Y-75831000D01*
X105454385Y-75831000D01*
X105594419Y-75772996D01*
X105635193Y-75732222D01*
X105749941Y-75808894D01*
X105898600Y-75838464D01*
X106536439Y-75838464D01*
X106476946Y-75981740D01*
X106476655Y-76315197D01*
X106578441Y-76561536D01*
X105898600Y-76561536D01*
X105749941Y-76591106D01*
X105638600Y-76665501D01*
X105527259Y-76591106D01*
X105378600Y-76561536D01*
X104628600Y-76561536D01*
X104479941Y-76591106D01*
X104368600Y-76665501D01*
X104257259Y-76591106D01*
X104108600Y-76561536D01*
X103358600Y-76561536D01*
X103209941Y-76591106D01*
X103098600Y-76665501D01*
X102987259Y-76591106D01*
X102838600Y-76561536D01*
X102088600Y-76561536D01*
X101939941Y-76591106D01*
X101813914Y-76675314D01*
X101729706Y-76801341D01*
X101700136Y-76950000D01*
X101700136Y-79350000D01*
X101729706Y-79498659D01*
X101813914Y-79624686D01*
X101939941Y-79708894D01*
X102088600Y-79738464D01*
X102544564Y-79738464D01*
X102802151Y-79996051D01*
X102958718Y-80100665D01*
X103143401Y-80137402D01*
X103143406Y-80137401D01*
X103479602Y-80137401D01*
X103479602Y-80172667D01*
X103516338Y-80357350D01*
X103620952Y-80513917D01*
X103853636Y-80746601D01*
X102206301Y-80746601D01*
X101218864Y-79759164D01*
X101219145Y-79437603D01*
X101091805Y-79129418D01*
X100856222Y-78893423D01*
X100548260Y-78765546D01*
X100214803Y-78765255D01*
X99906618Y-78892595D01*
X99670623Y-79128178D01*
X99542746Y-79436140D01*
X99542464Y-79759437D01*
X97990364Y-81311536D01*
X96940000Y-81311536D01*
X96791341Y-81341106D01*
X96665314Y-81425314D01*
X96581106Y-81551341D01*
X96551536Y-81700000D01*
X96551536Y-83364000D01*
X94024911Y-83364000D01*
X93185906Y-83197112D01*
X92512707Y-82747293D01*
X92062888Y-82074094D01*
X91973122Y-81622807D01*
X92248700Y-81622807D01*
X92511674Y-82259252D01*
X92998187Y-82746614D01*
X93634172Y-83010699D01*
X94322807Y-83011300D01*
X94959252Y-82748326D01*
X95446614Y-82261813D01*
X95710699Y-81625828D01*
X95711300Y-80937193D01*
X95448326Y-80300748D01*
X94961813Y-79813386D01*
X94325828Y-79549301D01*
X93637193Y-79548700D01*
X93000748Y-79811674D01*
X92513386Y-80298187D01*
X92249301Y-80934172D01*
X92248700Y-81622807D01*
X91973122Y-81622807D01*
X91896000Y-81235089D01*
X91896000Y-76614583D01*
X92178993Y-76932929D01*
X92583386Y-77129829D01*
X92765500Y-77068297D01*
X92765500Y-75967000D01*
X93019500Y-75967000D01*
X93019500Y-77068297D01*
X93201614Y-77129829D01*
X93606007Y-76932929D01*
X93912538Y-76588105D01*
X94063777Y-76152225D01*
X93979484Y-75967000D01*
X93019500Y-75967000D01*
X92765500Y-75967000D01*
X92745500Y-75967000D01*
X92745500Y-75713000D01*
X92765500Y-75713000D01*
X92765500Y-74611703D01*
X93019500Y-74611703D01*
X93019500Y-75713000D01*
X93979484Y-75713000D01*
X94063777Y-75527775D01*
X93912538Y-75091895D01*
X93606007Y-74747071D01*
X93201614Y-74550171D01*
X93019500Y-74611703D01*
X92765500Y-74611703D01*
X92583386Y-74550171D01*
X92178993Y-74747071D01*
X91896000Y-75065417D01*
X91896000Y-69714583D01*
X92178993Y-70032929D01*
X92583386Y-70229829D01*
X92765500Y-70168297D01*
X92765500Y-69067000D01*
X93019500Y-69067000D01*
X93019500Y-70168297D01*
X93201614Y-70229829D01*
X93606007Y-70032929D01*
X93912538Y-69688105D01*
X94063777Y-69252225D01*
X93979484Y-69067000D01*
X93019500Y-69067000D01*
X92765500Y-69067000D01*
X92745500Y-69067000D01*
X92745500Y-68813000D01*
X92765500Y-68813000D01*
X92765500Y-67711703D01*
X93019500Y-67711703D01*
X93019500Y-68813000D01*
X93979484Y-68813000D01*
X94063777Y-68627775D01*
X93912538Y-68191895D01*
X93606007Y-67847071D01*
X93201614Y-67650171D01*
X93019500Y-67711703D01*
X92765500Y-67711703D01*
X92583386Y-67650171D01*
X92178993Y-67847071D01*
X91896000Y-68165417D01*
X91896000Y-63842807D01*
X92248700Y-63842807D01*
X92511674Y-64479252D01*
X92998187Y-64966614D01*
X93634172Y-65230699D01*
X94322807Y-65231300D01*
X94959252Y-64968326D01*
X95446614Y-64481813D01*
X95710699Y-63845828D01*
X95711300Y-63157193D01*
X95448326Y-62520748D01*
X94961813Y-62033386D01*
X94325828Y-61769301D01*
X93637193Y-61768700D01*
X93000748Y-62031674D01*
X92513386Y-62518187D01*
X92249301Y-63154172D01*
X92248700Y-63842807D01*
X91896000Y-63842807D01*
X91896000Y-63544911D01*
X92062888Y-62705906D01*
X92512707Y-62032707D01*
X93185906Y-61582888D01*
X94024911Y-61416000D01*
X106711536Y-61416000D01*
X106711536Y-63080000D01*
X106711536Y-63080000D01*
G37*
X106711536Y-63080000D02*
X106741106Y-63228659D01*
X106825314Y-63354686D01*
X106951341Y-63438894D01*
X107100000Y-63468464D01*
X108800000Y-63468464D01*
X108948659Y-63438894D01*
X109074686Y-63354686D01*
X109158894Y-63228659D01*
X109188464Y-63080000D01*
X109188464Y-61416000D01*
X109565720Y-61416000D01*
X109352704Y-61734800D01*
X109259000Y-62205883D01*
X109259000Y-62254117D01*
X109352704Y-62725200D01*
X109619552Y-63124565D01*
X110018917Y-63391413D01*
X110437127Y-63474600D01*
X97739205Y-63474600D01*
X97739200Y-63474599D01*
X97554517Y-63511336D01*
X97397950Y-63615950D01*
X96015164Y-64998736D01*
X95693603Y-64998455D01*
X95385418Y-65125795D01*
X95149423Y-65361378D01*
X95021546Y-65669340D01*
X95021255Y-66002797D01*
X95148595Y-66310982D01*
X95384178Y-66546977D01*
X95692140Y-66674854D01*
X96025597Y-66675145D01*
X96333782Y-66547805D01*
X96569777Y-66312222D01*
X96697654Y-66004260D01*
X96697936Y-65680964D01*
X97939100Y-64439800D01*
X113842800Y-64439800D01*
X114027483Y-64403064D01*
X114184050Y-64298450D01*
X115094223Y-63388277D01*
X115098917Y-63391413D01*
X115570000Y-63485117D01*
X116041083Y-63391413D01*
X116440448Y-63124565D01*
X116707296Y-62725200D01*
X116801000Y-62254117D01*
X116801000Y-62205883D01*
X116707296Y-61734800D01*
X116494280Y-61416000D01*
X117185720Y-61416000D01*
X116972704Y-61734800D01*
X116879000Y-62205883D01*
X116879000Y-62254117D01*
X116972704Y-62725200D01*
X117239552Y-63124565D01*
X117638917Y-63391413D01*
X118110000Y-63485117D01*
X118581083Y-63391413D01*
X118585777Y-63388277D01*
X119731899Y-64534399D01*
X119888466Y-64639013D01*
X120073149Y-64675749D01*
X124128945Y-64675749D01*
X124082463Y-64787690D01*
X124082212Y-65075034D01*
X122789698Y-66367549D01*
X122679577Y-66532356D01*
X122640908Y-66726759D01*
X122640908Y-68809473D01*
X122596059Y-68779506D01*
X122447400Y-68749936D01*
X121697400Y-68749936D01*
X121548741Y-68779506D01*
X121437400Y-68853901D01*
X121326059Y-68779506D01*
X121177400Y-68749936D01*
X120427400Y-68749936D01*
X120278741Y-68779506D01*
X120163993Y-68856178D01*
X120123219Y-68815404D01*
X119983185Y-68757400D01*
X119754650Y-68757400D01*
X119659400Y-68852650D01*
X119659400Y-70211400D01*
X119679400Y-70211400D01*
X119679400Y-70465400D01*
X119659400Y-70465400D01*
X119659400Y-71824150D01*
X119754650Y-71919400D01*
X119983185Y-71919400D01*
X120123219Y-71861396D01*
X120163993Y-71820622D01*
X120278741Y-71897294D01*
X120427400Y-71926864D01*
X121177400Y-71926864D01*
X121326059Y-71897294D01*
X121437400Y-71822899D01*
X121548741Y-71897294D01*
X121697400Y-71926864D01*
X122447400Y-71926864D01*
X122596059Y-71897294D01*
X122722086Y-71813086D01*
X122806294Y-71687059D01*
X122822864Y-71603753D01*
X122981448Y-71669603D01*
X123314905Y-71669894D01*
X123623090Y-71542554D01*
X123859085Y-71306971D01*
X123986962Y-70999009D01*
X123987253Y-70665552D01*
X123859913Y-70357367D01*
X123656908Y-70154007D01*
X123656908Y-66937179D01*
X124800842Y-65793246D01*
X125040402Y-65793455D01*
X125353191Y-66106244D01*
X125517998Y-66216365D01*
X125712401Y-66255034D01*
X126479098Y-66255034D01*
X126673501Y-66216365D01*
X126838308Y-66106244D01*
X127056952Y-65887600D01*
X127653180Y-65887600D01*
X128215590Y-66450010D01*
X128380397Y-66560131D01*
X128574800Y-66598800D01*
X133799980Y-66598800D01*
X136013390Y-68812210D01*
X136178196Y-68922331D01*
X136210450Y-68928746D01*
X136372600Y-68961000D01*
X137985378Y-68961000D01*
X137991033Y-68959875D01*
X132573092Y-74377816D01*
X130296619Y-74377816D01*
X130094795Y-74175639D01*
X129786833Y-74047762D01*
X129453376Y-74047471D01*
X129145191Y-74174811D01*
X128909196Y-74410394D01*
X128781319Y-74718356D01*
X128781028Y-75051813D01*
X128908368Y-75359998D01*
X129143951Y-75595993D01*
X129451913Y-75723870D01*
X129785370Y-75724161D01*
X130093555Y-75596821D01*
X130296915Y-75393816D01*
X132260082Y-75393816D01*
X132185234Y-75574069D01*
X132184943Y-75907526D01*
X132312283Y-76215711D01*
X132547866Y-76451706D01*
X132855828Y-76579583D01*
X133189285Y-76579874D01*
X133497470Y-76452534D01*
X133733465Y-76216951D01*
X133861342Y-75908989D01*
X133861624Y-75585693D01*
X137720342Y-71726975D01*
X137850558Y-71781046D01*
X138184015Y-71781337D01*
X138492200Y-71653997D01*
X138728195Y-71418414D01*
X138856072Y-71110452D01*
X138856363Y-70776995D01*
X138729023Y-70468810D01*
X138493440Y-70232815D01*
X138254252Y-70133496D01*
X138912285Y-69475463D01*
X139036169Y-69392686D01*
X139332597Y-69392945D01*
X139640782Y-69265605D01*
X139876777Y-69030022D01*
X140004654Y-68722060D01*
X140004945Y-68388603D01*
X139877605Y-68080418D01*
X139642022Y-67844423D01*
X139409095Y-67747703D01*
X139414998Y-67741800D01*
X140720372Y-67741800D01*
X141046200Y-68067628D01*
X141046200Y-73271814D01*
X140607110Y-73710904D01*
X140321437Y-73710655D01*
X140013252Y-73837995D01*
X139777257Y-74073578D01*
X139649380Y-74381540D01*
X139649089Y-74714997D01*
X139776429Y-75023182D01*
X139979434Y-75226542D01*
X139979434Y-75659303D01*
X139921233Y-75717504D01*
X139635560Y-75717255D01*
X139327375Y-75844595D01*
X139091380Y-76080178D01*
X138963503Y-76388140D01*
X138963212Y-76721597D01*
X139090552Y-77029782D01*
X139326135Y-77265777D01*
X139634097Y-77393654D01*
X139967554Y-77393945D01*
X140275739Y-77266605D01*
X140511734Y-77031022D01*
X140639611Y-76723060D01*
X140639862Y-76435715D01*
X140846645Y-76228933D01*
X140956765Y-76064126D01*
X140995434Y-75869723D01*
X140995434Y-75226246D01*
X141197611Y-75024422D01*
X141325488Y-74716460D01*
X141325739Y-74429115D01*
X141784000Y-73970854D01*
X141784000Y-81235089D01*
X141617112Y-82074094D01*
X141167293Y-82747293D01*
X140494094Y-83197112D01*
X139655089Y-83364000D01*
X136792665Y-83364000D01*
X136867652Y-83298056D01*
X137079501Y-82866982D01*
X137019193Y-82677000D01*
X136017000Y-82677000D01*
X136017000Y-82697000D01*
X135763000Y-82697000D01*
X135763000Y-82677000D01*
X134760807Y-82677000D01*
X134700499Y-82866982D01*
X134912348Y-83298056D01*
X134987335Y-83364000D01*
X134274280Y-83364000D01*
X134487296Y-83045200D01*
X134581000Y-82574117D01*
X134581000Y-82525883D01*
X134487296Y-82054800D01*
X134220448Y-81655435D01*
X133927036Y-81459382D01*
X134001367Y-81474168D01*
X135298598Y-81474168D01*
X135273036Y-81484755D01*
X134912348Y-81801944D01*
X134700499Y-82233018D01*
X134760807Y-82423000D01*
X135763000Y-82423000D01*
X135763000Y-81421373D01*
X136017000Y-81421373D01*
X136017000Y-82423000D01*
X137019193Y-82423000D01*
X137079501Y-82233018D01*
X136867652Y-81801944D01*
X136663949Y-81622807D01*
X137968700Y-81622807D01*
X138231674Y-82259252D01*
X138718187Y-82746614D01*
X139354172Y-83010699D01*
X140042807Y-83011300D01*
X140679252Y-82748326D01*
X141166614Y-82261813D01*
X141430699Y-81625828D01*
X141431300Y-80937193D01*
X141168326Y-80300748D01*
X140681813Y-79813386D01*
X140045828Y-79549301D01*
X139357193Y-79548700D01*
X138720748Y-79811674D01*
X138233386Y-80298187D01*
X137969301Y-80934172D01*
X137968700Y-81622807D01*
X136663949Y-81622807D01*
X136506964Y-81484755D01*
X136206980Y-81360511D01*
X136017000Y-81421373D01*
X135763000Y-81421373D01*
X135732110Y-81411477D01*
X135849833Y-81332818D01*
X138517250Y-78665401D01*
X138621864Y-78508834D01*
X138658600Y-78324151D01*
X138658600Y-75436706D01*
X138723008Y-75436762D01*
X139031193Y-75309422D01*
X139267188Y-75073839D01*
X139395065Y-74765877D01*
X139395356Y-74432420D01*
X139268016Y-74124235D01*
X139032433Y-73888240D01*
X139018398Y-73882412D01*
X139115624Y-73648266D01*
X139115915Y-73314809D01*
X138988575Y-73006624D01*
X138752992Y-72770629D01*
X138445030Y-72642752D01*
X138111573Y-72642461D01*
X137803388Y-72769801D01*
X137567393Y-73005384D01*
X137439516Y-73313346D01*
X137439234Y-73636642D01*
X137428339Y-73647537D01*
X137323725Y-73804104D01*
X137286989Y-73988787D01*
X137286989Y-74063630D01*
X137175039Y-74017144D01*
X136841582Y-74016853D01*
X136533397Y-74144193D01*
X136297402Y-74379776D01*
X136169525Y-74687738D01*
X136169234Y-75021195D01*
X136223605Y-75152783D01*
X136126986Y-75192705D01*
X135898182Y-75421110D01*
X135763818Y-75421110D01*
X135737361Y-75357079D01*
X135501778Y-75121084D01*
X135193816Y-74993207D01*
X134860359Y-74992916D01*
X134552174Y-75120256D01*
X134316179Y-75355839D01*
X134188302Y-75663801D01*
X134188011Y-75997258D01*
X134315351Y-76305443D01*
X134550934Y-76541438D01*
X134858896Y-76669315D01*
X135192353Y-76669606D01*
X135500538Y-76542266D01*
X135656767Y-76386310D01*
X135898566Y-76386310D01*
X136125746Y-76613887D01*
X136433708Y-76741764D01*
X136767165Y-76742055D01*
X136880578Y-76695193D01*
X136880578Y-77549522D01*
X134733954Y-79696146D01*
X134537947Y-79696146D01*
X133742380Y-78900578D01*
X133585813Y-78795964D01*
X133401130Y-78759228D01*
X133164281Y-78759228D01*
X133210767Y-78647278D01*
X133211058Y-78313821D01*
X133083718Y-78005636D01*
X132848135Y-77769641D01*
X132540173Y-77641764D01*
X132216877Y-77641482D01*
X130967525Y-76392130D01*
X130810958Y-76287516D01*
X130626275Y-76250780D01*
X124292389Y-76250780D01*
X124292384Y-76250779D01*
X124107701Y-76287516D01*
X123951134Y-76392130D01*
X123951132Y-76392133D01*
X123777500Y-76565764D01*
X123387916Y-76565764D01*
X123150375Y-76328223D01*
X123042841Y-76256372D01*
X123127597Y-76052257D01*
X123127888Y-75718800D01*
X123000548Y-75410615D01*
X122835864Y-75245643D01*
X122835864Y-73038400D01*
X122806294Y-72889741D01*
X122722086Y-72763714D01*
X122596059Y-72679506D01*
X122447400Y-72649936D01*
X121697400Y-72649936D01*
X121548741Y-72679506D01*
X121437400Y-72753901D01*
X121326059Y-72679506D01*
X121177400Y-72649936D01*
X120427400Y-72649936D01*
X120278741Y-72679506D01*
X120167400Y-72753901D01*
X120056059Y-72679506D01*
X119907400Y-72649936D01*
X119157400Y-72649936D01*
X119008741Y-72679506D01*
X118897400Y-72753901D01*
X118786059Y-72679506D01*
X118637400Y-72649936D01*
X117887400Y-72649936D01*
X117738741Y-72679506D01*
X117627400Y-72753901D01*
X117516059Y-72679506D01*
X117367400Y-72649936D01*
X116617400Y-72649936D01*
X116468741Y-72679506D01*
X116342714Y-72763714D01*
X116258506Y-72889741D01*
X116228936Y-73038400D01*
X116228936Y-73755800D01*
X114891976Y-73755800D01*
X114782405Y-73490618D01*
X114583738Y-73291604D01*
X114730777Y-73144822D01*
X114858654Y-72836860D01*
X114858945Y-72503403D01*
X114731605Y-72195218D01*
X114496022Y-71959223D01*
X114188060Y-71831346D01*
X113854603Y-71831055D01*
X113546418Y-71958395D01*
X113310423Y-72193978D01*
X113182546Y-72501940D01*
X113182264Y-72825237D01*
X113055400Y-72952101D01*
X113055400Y-72339200D01*
X113016731Y-72144797D01*
X113016731Y-72144796D01*
X112906610Y-71979990D01*
X112021220Y-71094600D01*
X113088124Y-70027696D01*
X113327685Y-70027905D01*
X113997390Y-70697611D01*
X114162197Y-70807731D01*
X114356600Y-70846400D01*
X116228936Y-70846400D01*
X116228936Y-71538400D01*
X116258506Y-71687059D01*
X116342714Y-71813086D01*
X116468741Y-71897294D01*
X116617400Y-71926864D01*
X117367400Y-71926864D01*
X117516059Y-71897294D01*
X117630807Y-71820622D01*
X117671581Y-71861396D01*
X117811615Y-71919400D01*
X118040150Y-71919400D01*
X118135400Y-71824150D01*
X118135400Y-70465400D01*
X118389400Y-70465400D01*
X118389400Y-71824150D01*
X118484650Y-71919400D01*
X118713185Y-71919400D01*
X118853219Y-71861396D01*
X118897400Y-71817215D01*
X118941581Y-71861396D01*
X119081615Y-71919400D01*
X119310150Y-71919400D01*
X119405400Y-71824150D01*
X119405400Y-70465400D01*
X118389400Y-70465400D01*
X118135400Y-70465400D01*
X118115400Y-70465400D01*
X118115400Y-70211400D01*
X118135400Y-70211400D01*
X118135400Y-68852650D01*
X118389400Y-68852650D01*
X118389400Y-70211400D01*
X119405400Y-70211400D01*
X119405400Y-68852650D01*
X119310150Y-68757400D01*
X119081615Y-68757400D01*
X118941581Y-68815404D01*
X118897400Y-68859585D01*
X118853219Y-68815404D01*
X118713185Y-68757400D01*
X118484650Y-68757400D01*
X118389400Y-68852650D01*
X118135400Y-68852650D01*
X118040150Y-68757400D01*
X117811615Y-68757400D01*
X117671581Y-68815404D01*
X117630807Y-68856178D01*
X117516059Y-68779506D01*
X117367400Y-68749936D01*
X116617400Y-68749936D01*
X116468741Y-68779506D01*
X116342714Y-68863714D01*
X116258506Y-68989741D01*
X116228936Y-69138400D01*
X116228936Y-69830400D01*
X114567021Y-69830400D01*
X114045896Y-69309276D01*
X114046145Y-69023603D01*
X113918805Y-68715418D01*
X113683222Y-68479423D01*
X113375260Y-68351546D01*
X113041803Y-68351255D01*
X112733618Y-68478595D01*
X112497623Y-68714178D01*
X112369746Y-69022140D01*
X112369495Y-69309485D01*
X110787578Y-70891402D01*
X106711174Y-70891402D01*
X106711456Y-70567865D01*
X106584116Y-70259680D01*
X106348533Y-70023685D01*
X106040571Y-69895808D01*
X105707114Y-69895517D01*
X105398929Y-70022857D01*
X105170125Y-70251262D01*
X103549360Y-70251262D01*
X103364677Y-70287998D01*
X103208110Y-70392612D01*
X103208108Y-70392615D01*
X99466383Y-74134339D01*
X99466543Y-73951203D01*
X99339203Y-73643018D01*
X99136198Y-73439658D01*
X99136198Y-72364598D01*
X99097529Y-72170195D01*
X98987408Y-72005388D01*
X97916896Y-70934876D01*
X97917105Y-70695315D01*
X101123191Y-67489230D01*
X111927282Y-67489230D01*
X112129106Y-67691407D01*
X112437068Y-67819284D01*
X112770525Y-67819575D01*
X113078710Y-67692235D01*
X113314705Y-67456652D01*
X113442582Y-67148690D01*
X113442873Y-66815233D01*
X113315533Y-66507048D01*
X113079950Y-66271053D01*
X112771988Y-66143176D01*
X112438531Y-66142885D01*
X112130346Y-66270225D01*
X111926986Y-66473230D01*
X100912770Y-66473230D01*
X100750620Y-66505484D01*
X100718366Y-66511899D01*
X100553559Y-66622020D01*
X97198476Y-69977104D01*
X96912803Y-69976855D01*
X96604618Y-70104195D01*
X96368623Y-70339778D01*
X96240746Y-70647740D01*
X96240455Y-70981197D01*
X96367795Y-71289382D01*
X96603378Y-71525377D01*
X96911340Y-71653254D01*
X97198685Y-71653505D01*
X98120198Y-72575018D01*
X98120198Y-73439954D01*
X97918021Y-73641778D01*
X97790144Y-73949740D01*
X97789853Y-74283197D01*
X97917193Y-74591382D01*
X98152776Y-74827377D01*
X98460738Y-74955254D01*
X98645307Y-74955415D01*
X98083750Y-75516972D01*
X97979136Y-75673539D01*
X97955609Y-75791815D01*
X97950818Y-75793795D01*
X97714823Y-76029378D01*
X97586946Y-76337340D01*
X97586655Y-76670797D01*
X97713995Y-76978982D01*
X97949578Y-77214977D01*
X98257540Y-77342854D01*
X98590997Y-77343145D01*
X98899182Y-77215805D01*
X99045303Y-77069940D01*
X99060195Y-77105982D01*
X99295778Y-77341977D01*
X99603740Y-77469854D01*
X99937197Y-77470145D01*
X100245382Y-77342805D01*
X100481377Y-77107222D01*
X100609254Y-76799260D01*
X100609545Y-76465803D01*
X100529921Y-76273099D01*
X101700136Y-75102884D01*
X101700136Y-75450000D01*
X101729706Y-75598659D01*
X101813914Y-75724686D01*
X101939941Y-75808894D01*
X102088600Y-75838464D01*
X102838600Y-75838464D01*
X102987259Y-75808894D01*
X103102007Y-75732222D01*
X103142781Y-75772996D01*
X103282815Y-75831000D01*
X103511350Y-75831000D01*
X103606600Y-75735750D01*
X103606600Y-74377000D01*
X103860600Y-74377000D01*
X103860600Y-75735750D01*
X103955850Y-75831000D01*
X104184385Y-75831000D01*
X104324419Y-75772996D01*
X104368600Y-75728815D01*
X104412781Y-75772996D01*
X104552815Y-75831000D01*
X104781350Y-75831000D01*
X104876600Y-75735750D01*
X104876600Y-74377000D01*
X103860600Y-74377000D01*
X103606600Y-74377000D01*
X103586600Y-74377000D01*
X103586600Y-74123000D01*
X103606600Y-74123000D01*
X103606600Y-74103000D01*
X103860600Y-74103000D01*
X103860600Y-74123000D01*
X104876600Y-74123000D01*
X104876600Y-72764250D01*
X104781350Y-72669000D01*
X104552815Y-72669000D01*
X104412781Y-72727004D01*
X104368600Y-72771185D01*
X104324419Y-72727004D01*
X104184385Y-72669000D01*
X103955850Y-72669000D01*
X103860602Y-72764248D01*
X103860602Y-72746418D01*
X104577702Y-72029319D01*
X106255317Y-72029319D01*
X106449720Y-71990650D01*
X106574309Y-71907402D01*
X111397182Y-71907402D01*
X112039400Y-72549620D01*
X112039400Y-76301600D01*
X112078069Y-76496003D01*
X112188190Y-76660810D01*
X116033568Y-80506188D01*
X113980088Y-80506188D01*
X112032959Y-78559059D01*
X112008017Y-78433670D01*
X111982489Y-78395464D01*
X111903403Y-78277103D01*
X111903400Y-78277101D01*
X111658400Y-78032100D01*
X111658400Y-73921548D01*
X111638578Y-73821898D01*
X111798170Y-73662585D01*
X111926047Y-73354623D01*
X111926338Y-73021166D01*
X111798998Y-72712981D01*
X111563415Y-72476986D01*
X111255453Y-72349109D01*
X110921996Y-72348818D01*
X110613811Y-72476158D01*
X110377816Y-72711741D01*
X110360487Y-72753475D01*
X110352039Y-72733030D01*
X110116456Y-72497035D01*
X109808494Y-72369158D01*
X109475037Y-72368867D01*
X109166852Y-72496207D01*
X108930857Y-72731790D01*
X108802980Y-73039752D01*
X108802689Y-73373209D01*
X108805156Y-73379179D01*
X108737971Y-73479728D01*
X108701235Y-73664411D01*
X108701235Y-79617987D01*
X108422260Y-79502146D01*
X108275250Y-79502018D01*
X108277494Y-79498659D01*
X108307064Y-79350000D01*
X108307064Y-76950000D01*
X108277494Y-76801341D01*
X108193286Y-76675314D01*
X108067259Y-76591106D01*
X108041243Y-76585931D01*
X108153054Y-76316660D01*
X108153345Y-75983203D01*
X108078279Y-75801531D01*
X108193286Y-75724686D01*
X108277494Y-75598659D01*
X108307064Y-75450000D01*
X108307064Y-73050000D01*
X108277494Y-72901341D01*
X108193286Y-72775314D01*
X108067259Y-72691106D01*
X107918600Y-72661536D01*
X107168600Y-72661536D01*
X107019941Y-72691106D01*
X106908600Y-72765501D01*
X106797259Y-72691106D01*
X106648600Y-72661536D01*
X105898600Y-72661536D01*
X105749941Y-72691106D01*
X105635193Y-72767778D01*
X105594419Y-72727004D01*
X105454385Y-72669000D01*
X105225850Y-72669000D01*
X105130600Y-72764250D01*
X105130600Y-74123000D01*
X105150600Y-74123000D01*
X105150600Y-74377000D01*
X105130600Y-74377000D01*
X105130600Y-75735750D01*
X105225850Y-75831000D01*
X105454385Y-75831000D01*
X105594419Y-75772996D01*
X105635193Y-75732222D01*
X105749941Y-75808894D01*
X105898600Y-75838464D01*
X106536439Y-75838464D01*
X106476946Y-75981740D01*
X106476655Y-76315197D01*
X106578441Y-76561536D01*
X105898600Y-76561536D01*
X105749941Y-76591106D01*
X105638600Y-76665501D01*
X105527259Y-76591106D01*
X105378600Y-76561536D01*
X104628600Y-76561536D01*
X104479941Y-76591106D01*
X104368600Y-76665501D01*
X104257259Y-76591106D01*
X104108600Y-76561536D01*
X103358600Y-76561536D01*
X103209941Y-76591106D01*
X103098600Y-76665501D01*
X102987259Y-76591106D01*
X102838600Y-76561536D01*
X102088600Y-76561536D01*
X101939941Y-76591106D01*
X101813914Y-76675314D01*
X101729706Y-76801341D01*
X101700136Y-76950000D01*
X101700136Y-79350000D01*
X101729706Y-79498659D01*
X101813914Y-79624686D01*
X101939941Y-79708894D01*
X102088600Y-79738464D01*
X102544564Y-79738464D01*
X102802151Y-79996051D01*
X102958718Y-80100665D01*
X103143401Y-80137402D01*
X103143406Y-80137401D01*
X103479602Y-80137401D01*
X103479602Y-80172667D01*
X103516338Y-80357350D01*
X103620952Y-80513917D01*
X103853636Y-80746601D01*
X102206301Y-80746601D01*
X101218864Y-79759164D01*
X101219145Y-79437603D01*
X101091805Y-79129418D01*
X100856222Y-78893423D01*
X100548260Y-78765546D01*
X100214803Y-78765255D01*
X99906618Y-78892595D01*
X99670623Y-79128178D01*
X99542746Y-79436140D01*
X99542464Y-79759437D01*
X97990364Y-81311536D01*
X96940000Y-81311536D01*
X96791341Y-81341106D01*
X96665314Y-81425314D01*
X96581106Y-81551341D01*
X96551536Y-81700000D01*
X96551536Y-83364000D01*
X94024911Y-83364000D01*
X93185906Y-83197112D01*
X92512707Y-82747293D01*
X92062888Y-82074094D01*
X91973122Y-81622807D01*
X92248700Y-81622807D01*
X92511674Y-82259252D01*
X92998187Y-82746614D01*
X93634172Y-83010699D01*
X94322807Y-83011300D01*
X94959252Y-82748326D01*
X95446614Y-82261813D01*
X95710699Y-81625828D01*
X95711300Y-80937193D01*
X95448326Y-80300748D01*
X94961813Y-79813386D01*
X94325828Y-79549301D01*
X93637193Y-79548700D01*
X93000748Y-79811674D01*
X92513386Y-80298187D01*
X92249301Y-80934172D01*
X92248700Y-81622807D01*
X91973122Y-81622807D01*
X91896000Y-81235089D01*
X91896000Y-76614583D01*
X92178993Y-76932929D01*
X92583386Y-77129829D01*
X92765500Y-77068297D01*
X92765500Y-75967000D01*
X93019500Y-75967000D01*
X93019500Y-77068297D01*
X93201614Y-77129829D01*
X93606007Y-76932929D01*
X93912538Y-76588105D01*
X94063777Y-76152225D01*
X93979484Y-75967000D01*
X93019500Y-75967000D01*
X92765500Y-75967000D01*
X92745500Y-75967000D01*
X92745500Y-75713000D01*
X92765500Y-75713000D01*
X92765500Y-74611703D01*
X93019500Y-74611703D01*
X93019500Y-75713000D01*
X93979484Y-75713000D01*
X94063777Y-75527775D01*
X93912538Y-75091895D01*
X93606007Y-74747071D01*
X93201614Y-74550171D01*
X93019500Y-74611703D01*
X92765500Y-74611703D01*
X92583386Y-74550171D01*
X92178993Y-74747071D01*
X91896000Y-75065417D01*
X91896000Y-69714583D01*
X92178993Y-70032929D01*
X92583386Y-70229829D01*
X92765500Y-70168297D01*
X92765500Y-69067000D01*
X93019500Y-69067000D01*
X93019500Y-70168297D01*
X93201614Y-70229829D01*
X93606007Y-70032929D01*
X93912538Y-69688105D01*
X94063777Y-69252225D01*
X93979484Y-69067000D01*
X93019500Y-69067000D01*
X92765500Y-69067000D01*
X92745500Y-69067000D01*
X92745500Y-68813000D01*
X92765500Y-68813000D01*
X92765500Y-67711703D01*
X93019500Y-67711703D01*
X93019500Y-68813000D01*
X93979484Y-68813000D01*
X94063777Y-68627775D01*
X93912538Y-68191895D01*
X93606007Y-67847071D01*
X93201614Y-67650171D01*
X93019500Y-67711703D01*
X92765500Y-67711703D01*
X92583386Y-67650171D01*
X92178993Y-67847071D01*
X91896000Y-68165417D01*
X91896000Y-63842807D01*
X92248700Y-63842807D01*
X92511674Y-64479252D01*
X92998187Y-64966614D01*
X93634172Y-65230699D01*
X94322807Y-65231300D01*
X94959252Y-64968326D01*
X95446614Y-64481813D01*
X95710699Y-63845828D01*
X95711300Y-63157193D01*
X95448326Y-62520748D01*
X94961813Y-62033386D01*
X94325828Y-61769301D01*
X93637193Y-61768700D01*
X93000748Y-62031674D01*
X92513386Y-62518187D01*
X92249301Y-63154172D01*
X92248700Y-63842807D01*
X91896000Y-63842807D01*
X91896000Y-63544911D01*
X92062888Y-62705906D01*
X92512707Y-62032707D01*
X93185906Y-61582888D01*
X94024911Y-61416000D01*
X106711536Y-61416000D01*
X106711536Y-63080000D01*
G36*
X104432348Y-81801944D02*
X104220499Y-82233018D01*
X104280807Y-82423000D01*
X105283000Y-82423000D01*
X105283000Y-82403000D01*
X105537000Y-82403000D01*
X105537000Y-82423000D01*
X106539193Y-82423000D01*
X106599501Y-82233018D01*
X106387652Y-81801944D01*
X106285147Y-81711801D01*
X107041889Y-81711801D01*
X106812704Y-82054800D01*
X106719000Y-82525883D01*
X106719000Y-82574117D01*
X106812704Y-83045200D01*
X107025720Y-83364000D01*
X106312665Y-83364000D01*
X106387652Y-83298056D01*
X106599501Y-82866982D01*
X106539193Y-82677000D01*
X105537000Y-82677000D01*
X105537000Y-82697000D01*
X105283000Y-82697000D01*
X105283000Y-82677000D01*
X104280807Y-82677000D01*
X104220499Y-82866982D01*
X104432348Y-83298056D01*
X104507335Y-83364000D01*
X103794280Y-83364000D01*
X104007296Y-83045200D01*
X104101000Y-82574117D01*
X104101000Y-82525883D01*
X104007296Y-82054800D01*
X103778111Y-81711801D01*
X104534853Y-81711801D01*
X104432348Y-81801944D01*
X104432348Y-81801944D01*
G37*
X104432348Y-81801944D02*
X104220499Y-82233018D01*
X104280807Y-82423000D01*
X105283000Y-82423000D01*
X105283000Y-82403000D01*
X105537000Y-82403000D01*
X105537000Y-82423000D01*
X106539193Y-82423000D01*
X106599501Y-82233018D01*
X106387652Y-81801944D01*
X106285147Y-81711801D01*
X107041889Y-81711801D01*
X106812704Y-82054800D01*
X106719000Y-82525883D01*
X106719000Y-82574117D01*
X106812704Y-83045200D01*
X107025720Y-83364000D01*
X106312665Y-83364000D01*
X106387652Y-83298056D01*
X106599501Y-82866982D01*
X106539193Y-82677000D01*
X105537000Y-82677000D01*
X105537000Y-82697000D01*
X105283000Y-82697000D01*
X105283000Y-82677000D01*
X104280807Y-82677000D01*
X104220499Y-82866982D01*
X104432348Y-83298056D01*
X104507335Y-83364000D01*
X103794280Y-83364000D01*
X104007296Y-83045200D01*
X104101000Y-82574117D01*
X104101000Y-82525883D01*
X104007296Y-82054800D01*
X103778111Y-81711801D01*
X104534853Y-81711801D01*
X104432348Y-81801944D01*
M02*
