G04 #@! TF.GenerationSoftware,KiCad,Pcbnew,(2017-05-26 revision 1fda668)-master*
G04 #@! TF.CreationDate,2017-06-12T11:29:52-07:00*
G04 #@! TF.ProjectId,feather_five,666561746865725F666976652E6B6963,rev?*
G04 #@! TF.FileFunction,Legend,Top*
G04 #@! TF.FilePolarity,Positive*
%FSLAX46Y46*%
G04 Gerber Fmt 4.6, Leading zero omitted, Abs format (unit mm)*
G04 Created by KiCad (PCBNEW (2017-05-26 revision 1fda668)-master) date Monday, June 12, 2017 'AMt' 11:29:52 AM*
%MOMM*%
%LPD*%
G01*
G04 APERTURE LIST*
%ADD10C,0.100000*%
%ADD11C,0.150000*%
%ADD12C,0.120000*%
G04 APERTURE END LIST*
D10*
D11*
X120800834Y-66770546D02*
X121277024Y-66770546D01*
X120705596Y-67056260D02*
X121038929Y-66056260D01*
X121372262Y-67056260D01*
X122134167Y-67056260D02*
X122134167Y-66056260D01*
X122134167Y-67008641D02*
X122038929Y-67056260D01*
X121848453Y-67056260D01*
X121753215Y-67008641D01*
X121705596Y-66961022D01*
X121657977Y-66865784D01*
X121657977Y-66580070D01*
X121705596Y-66484832D01*
X121753215Y-66437213D01*
X121848453Y-66389594D01*
X122038929Y-66389594D01*
X122134167Y-66437213D01*
X123038929Y-67056260D02*
X123038929Y-66532451D01*
X122991310Y-66437213D01*
X122896072Y-66389594D01*
X122705596Y-66389594D01*
X122610358Y-66437213D01*
X123038929Y-67008641D02*
X122943691Y-67056260D01*
X122705596Y-67056260D01*
X122610358Y-67008641D01*
X122562739Y-66913403D01*
X122562739Y-66818165D01*
X122610358Y-66722927D01*
X122705596Y-66675308D01*
X122943691Y-66675308D01*
X123038929Y-66627689D01*
X123372262Y-66389594D02*
X123753215Y-66389594D01*
X123515120Y-67056260D02*
X123515120Y-66199118D01*
X123562739Y-66103880D01*
X123657977Y-66056260D01*
X123753215Y-66056260D01*
X124086548Y-67056260D02*
X124086548Y-66389594D01*
X124086548Y-66580070D02*
X124134167Y-66484832D01*
X124181786Y-66437213D01*
X124277024Y-66389594D01*
X124372262Y-66389594D01*
X125134167Y-66389594D02*
X125134167Y-67056260D01*
X124705596Y-66389594D02*
X124705596Y-66913403D01*
X124753215Y-67008641D01*
X124848453Y-67056260D01*
X124991310Y-67056260D01*
X125086548Y-67008641D01*
X125134167Y-66961022D01*
X125610358Y-67056260D02*
X125610358Y-66389594D01*
X125610358Y-66056260D02*
X125562739Y-66103880D01*
X125610358Y-66151499D01*
X125657977Y-66103880D01*
X125610358Y-66056260D01*
X125610358Y-66151499D01*
X125943691Y-66389594D02*
X126324643Y-66389594D01*
X126086548Y-66056260D02*
X126086548Y-66913403D01*
X126134167Y-67008641D01*
X126229405Y-67056260D01*
X126324643Y-67056260D01*
X121116150Y-67995491D02*
X120782817Y-67995491D01*
X120782817Y-68519300D02*
X120782817Y-67519300D01*
X121259007Y-67519300D01*
X122020912Y-68471681D02*
X121925674Y-68519300D01*
X121735198Y-68519300D01*
X121639960Y-68471681D01*
X121592340Y-68376443D01*
X121592340Y-67995491D01*
X121639960Y-67900253D01*
X121735198Y-67852634D01*
X121925674Y-67852634D01*
X122020912Y-67900253D01*
X122068531Y-67995491D01*
X122068531Y-68090729D01*
X121592340Y-68185967D01*
X122925674Y-68519300D02*
X122925674Y-67995491D01*
X122878055Y-67900253D01*
X122782817Y-67852634D01*
X122592340Y-67852634D01*
X122497102Y-67900253D01*
X122925674Y-68471681D02*
X122830436Y-68519300D01*
X122592340Y-68519300D01*
X122497102Y-68471681D01*
X122449483Y-68376443D01*
X122449483Y-68281205D01*
X122497102Y-68185967D01*
X122592340Y-68138348D01*
X122830436Y-68138348D01*
X122925674Y-68090729D01*
X123259007Y-67852634D02*
X123639960Y-67852634D01*
X123401864Y-67519300D02*
X123401864Y-68376443D01*
X123449483Y-68471681D01*
X123544721Y-68519300D01*
X123639960Y-68519300D01*
X123973293Y-68519300D02*
X123973293Y-67519300D01*
X124401864Y-68519300D02*
X124401864Y-67995491D01*
X124354245Y-67900253D01*
X124259007Y-67852634D01*
X124116150Y-67852634D01*
X124020912Y-67900253D01*
X123973293Y-67947872D01*
X125259007Y-68471681D02*
X125163769Y-68519300D01*
X124973293Y-68519300D01*
X124878055Y-68471681D01*
X124830436Y-68376443D01*
X124830436Y-67995491D01*
X124878055Y-67900253D01*
X124973293Y-67852634D01*
X125163769Y-67852634D01*
X125259007Y-67900253D01*
X125306626Y-67995491D01*
X125306626Y-68090729D01*
X124830436Y-68185967D01*
X125735198Y-68519300D02*
X125735198Y-67852634D01*
X125735198Y-68043110D02*
X125782817Y-67947872D01*
X125830436Y-67900253D01*
X125925674Y-67852634D01*
X126020912Y-67852634D01*
X126973293Y-67519300D02*
X127306626Y-68519300D01*
X127639960Y-67519300D01*
X131252174Y-67396620D02*
X130918840Y-66920430D01*
X130680745Y-67396620D02*
X130680745Y-66396620D01*
X131061698Y-66396620D01*
X131156936Y-66444240D01*
X131204555Y-66491859D01*
X131252174Y-66587097D01*
X131252174Y-66729954D01*
X131204555Y-66825192D01*
X131156936Y-66872811D01*
X131061698Y-66920430D01*
X130680745Y-66920430D01*
X131680745Y-67396620D02*
X131680745Y-66396620D01*
X132109317Y-67349001D02*
X132252174Y-67396620D01*
X132490269Y-67396620D01*
X132585507Y-67349001D01*
X132633126Y-67301382D01*
X132680745Y-67206144D01*
X132680745Y-67110906D01*
X132633126Y-67015668D01*
X132585507Y-66968049D01*
X132490269Y-66920430D01*
X132299793Y-66872811D01*
X132204555Y-66825192D01*
X132156936Y-66777573D01*
X132109317Y-66682335D01*
X132109317Y-66587097D01*
X132156936Y-66491859D01*
X132204555Y-66444240D01*
X132299793Y-66396620D01*
X132537888Y-66396620D01*
X132680745Y-66444240D01*
X133680745Y-67301382D02*
X133633126Y-67349001D01*
X133490269Y-67396620D01*
X133395031Y-67396620D01*
X133252174Y-67349001D01*
X133156936Y-67253763D01*
X133109317Y-67158525D01*
X133061698Y-66968049D01*
X133061698Y-66825192D01*
X133109317Y-66634716D01*
X133156936Y-66539478D01*
X133252174Y-66444240D01*
X133395031Y-66396620D01*
X133490269Y-66396620D01*
X133633126Y-66444240D01*
X133680745Y-66491859D01*
X134728364Y-66396620D02*
X135061698Y-67396620D01*
X135395031Y-66396620D01*
X106968468Y-74483220D02*
X106968468Y-73483220D01*
X107301801Y-74197506D01*
X107635135Y-73483220D01*
X107635135Y-74483220D01*
X108301801Y-73483220D02*
X108397040Y-73483220D01*
X108492278Y-73530840D01*
X108539897Y-73578459D01*
X108587516Y-73673697D01*
X108635135Y-73864173D01*
X108635135Y-74102268D01*
X108587516Y-74292744D01*
X108539897Y-74387982D01*
X108492278Y-74435601D01*
X108397040Y-74483220D01*
X108301801Y-74483220D01*
X108206563Y-74435601D01*
X108158944Y-74387982D01*
X108111325Y-74292744D01*
X108063706Y-74102268D01*
X108063706Y-73864173D01*
X108111325Y-73673697D01*
X108158944Y-73578459D01*
X108206563Y-73530840D01*
X108301801Y-73483220D01*
X109063706Y-74102268D02*
X109825611Y-74102268D01*
X109444659Y-74483220D02*
X109444659Y-73721316D01*
D10*
X97473965Y-65355594D02*
X96723965Y-65355594D01*
X96723965Y-65177022D01*
X96759680Y-65069880D01*
X96831108Y-64998451D01*
X96902537Y-64962737D01*
X97045394Y-64927022D01*
X97152537Y-64927022D01*
X97295394Y-64962737D01*
X97366822Y-64998451D01*
X97438251Y-65069880D01*
X97473965Y-65177022D01*
X97473965Y-65355594D01*
X97473965Y-64212737D02*
X97473965Y-64641308D01*
X97473965Y-64427022D02*
X96723965Y-64427022D01*
X96831108Y-64498451D01*
X96902537Y-64569880D01*
X96938251Y-64641308D01*
X96723965Y-63962737D02*
X96723965Y-63498451D01*
X97009680Y-63748451D01*
X97009680Y-63641308D01*
X97045394Y-63569880D01*
X97081108Y-63534165D01*
X97152537Y-63498451D01*
X97331108Y-63498451D01*
X97402537Y-63534165D01*
X97438251Y-63569880D01*
X97473965Y-63641308D01*
X97473965Y-63855594D01*
X97438251Y-63927022D01*
X97402537Y-63962737D01*
X92784817Y-78777874D02*
X92820531Y-78813588D01*
X92856245Y-78920731D01*
X92856245Y-78992160D01*
X92820531Y-79099302D01*
X92749102Y-79170731D01*
X92677674Y-79206445D01*
X92534817Y-79242160D01*
X92427674Y-79242160D01*
X92284817Y-79206445D01*
X92213388Y-79170731D01*
X92141960Y-79099302D01*
X92106245Y-78992160D01*
X92106245Y-78920731D01*
X92141960Y-78813588D01*
X92177674Y-78777874D01*
X92856245Y-78456445D02*
X92106245Y-78456445D01*
X92463388Y-78456445D02*
X92463388Y-78027874D01*
X92856245Y-78027874D02*
X92106245Y-78027874D01*
X92141960Y-77277874D02*
X92106245Y-77349302D01*
X92106245Y-77456445D01*
X92141960Y-77563588D01*
X92213388Y-77635017D01*
X92284817Y-77670731D01*
X92427674Y-77706445D01*
X92534817Y-77706445D01*
X92677674Y-77670731D01*
X92749102Y-77635017D01*
X92820531Y-77563588D01*
X92856245Y-77456445D01*
X92856245Y-77385017D01*
X92820531Y-77277874D01*
X92784817Y-77242160D01*
X92534817Y-77242160D01*
X92534817Y-77385017D01*
X96498605Y-80014314D02*
X96141462Y-80264314D01*
X96498605Y-80442885D02*
X95748605Y-80442885D01*
X95748605Y-80157171D01*
X95784320Y-80085742D01*
X95820034Y-80050028D01*
X95891462Y-80014314D01*
X95998605Y-80014314D01*
X96070034Y-80050028D01*
X96105748Y-80085742D01*
X96141462Y-80157171D01*
X96141462Y-80442885D01*
X96462891Y-79728600D02*
X96498605Y-79621457D01*
X96498605Y-79442885D01*
X96462891Y-79371457D01*
X96427177Y-79335742D01*
X96355748Y-79300028D01*
X96284320Y-79300028D01*
X96212891Y-79335742D01*
X96177177Y-79371457D01*
X96141462Y-79442885D01*
X96105748Y-79585742D01*
X96070034Y-79657171D01*
X96034320Y-79692885D01*
X95962891Y-79728600D01*
X95891462Y-79728600D01*
X95820034Y-79692885D01*
X95784320Y-79657171D01*
X95748605Y-79585742D01*
X95748605Y-79407171D01*
X95784320Y-79300028D01*
X95748605Y-79085742D02*
X95748605Y-78657171D01*
X96498605Y-78871457D02*
X95748605Y-78871457D01*
X99475485Y-83011514D02*
X99118342Y-83261514D01*
X99475485Y-83440085D02*
X98725485Y-83440085D01*
X98725485Y-83154371D01*
X98761200Y-83082942D01*
X98796914Y-83047228D01*
X98868342Y-83011514D01*
X98975485Y-83011514D01*
X99046914Y-83047228D01*
X99082628Y-83082942D01*
X99118342Y-83154371D01*
X99118342Y-83440085D01*
X99439771Y-82725800D02*
X99475485Y-82618657D01*
X99475485Y-82440085D01*
X99439771Y-82368657D01*
X99404057Y-82332942D01*
X99332628Y-82297228D01*
X99261200Y-82297228D01*
X99189771Y-82332942D01*
X99154057Y-82368657D01*
X99118342Y-82440085D01*
X99082628Y-82582942D01*
X99046914Y-82654371D01*
X99011200Y-82690085D01*
X98939771Y-82725800D01*
X98868342Y-82725800D01*
X98796914Y-82690085D01*
X98761200Y-82654371D01*
X98725485Y-82582942D01*
X98725485Y-82404371D01*
X98761200Y-82297228D01*
X98725485Y-82082942D02*
X98725485Y-81654371D01*
X99475485Y-81868657D02*
X98725485Y-81868657D01*
X101240085Y-83172228D02*
X101240085Y-82707942D01*
X101525800Y-82957942D01*
X101525800Y-82850800D01*
X101561514Y-82779371D01*
X101597228Y-82743657D01*
X101668657Y-82707942D01*
X101847228Y-82707942D01*
X101918657Y-82743657D01*
X101954371Y-82779371D01*
X101990085Y-82850800D01*
X101990085Y-83065085D01*
X101954371Y-83136514D01*
X101918657Y-83172228D01*
X101240085Y-82493657D02*
X101990085Y-82243657D01*
X101240085Y-81993657D01*
X104504685Y-83113885D02*
X103754685Y-83113885D01*
X104504685Y-82685314D01*
X103754685Y-82685314D01*
X104433257Y-81899600D02*
X104468971Y-81935314D01*
X104504685Y-82042457D01*
X104504685Y-82113885D01*
X104468971Y-82221028D01*
X104397542Y-82292457D01*
X104326114Y-82328171D01*
X104183257Y-82363885D01*
X104076114Y-82363885D01*
X103933257Y-82328171D01*
X103861828Y-82292457D01*
X103790400Y-82221028D01*
X103754685Y-82113885D01*
X103754685Y-82042457D01*
X103790400Y-81935314D01*
X103826114Y-81899600D01*
X106305000Y-83070628D02*
X106269285Y-83142057D01*
X106269285Y-83249200D01*
X106305000Y-83356342D01*
X106376428Y-83427771D01*
X106447857Y-83463485D01*
X106590714Y-83499200D01*
X106697857Y-83499200D01*
X106840714Y-83463485D01*
X106912142Y-83427771D01*
X106983571Y-83356342D01*
X107019285Y-83249200D01*
X107019285Y-83177771D01*
X106983571Y-83070628D01*
X106947857Y-83034914D01*
X106697857Y-83034914D01*
X106697857Y-83177771D01*
X107019285Y-82713485D02*
X106269285Y-82713485D01*
X107019285Y-82284914D01*
X106269285Y-82284914D01*
X107019285Y-81927771D02*
X106269285Y-81927771D01*
X106269285Y-81749200D01*
X106305000Y-81642057D01*
X106376428Y-81570628D01*
X106447857Y-81534914D01*
X106590714Y-81499200D01*
X106697857Y-81499200D01*
X106840714Y-81534914D01*
X106912142Y-81570628D01*
X106983571Y-81642057D01*
X107019285Y-81749200D01*
X107019285Y-81927771D01*
X109319600Y-83009514D02*
X109319600Y-82652371D01*
X109533885Y-83080942D02*
X108783885Y-82830942D01*
X109533885Y-82580942D01*
X108783885Y-82188085D02*
X108783885Y-82116657D01*
X108819600Y-82045228D01*
X108855314Y-82009514D01*
X108926742Y-81973800D01*
X109069600Y-81938085D01*
X109248171Y-81938085D01*
X109391028Y-81973800D01*
X109462457Y-82009514D01*
X109498171Y-82045228D01*
X109533885Y-82116657D01*
X109533885Y-82188085D01*
X109498171Y-82259514D01*
X109462457Y-82295228D01*
X109391028Y-82330942D01*
X109248171Y-82366657D01*
X109069600Y-82366657D01*
X108926742Y-82330942D01*
X108855314Y-82295228D01*
X108819600Y-82259514D01*
X108783885Y-82188085D01*
X111935800Y-83034914D02*
X111935800Y-82677771D01*
X112150085Y-83106342D02*
X111400085Y-82856342D01*
X112150085Y-82606342D01*
X112150085Y-81963485D02*
X112150085Y-82392057D01*
X112150085Y-82177771D02*
X111400085Y-82177771D01*
X111507228Y-82249200D01*
X111578657Y-82320628D01*
X111614371Y-82392057D01*
X114450400Y-83034914D02*
X114450400Y-82677771D01*
X114664685Y-83106342D02*
X113914685Y-82856342D01*
X114664685Y-82606342D01*
X113986114Y-82392057D02*
X113950400Y-82356342D01*
X113914685Y-82284914D01*
X113914685Y-82106342D01*
X113950400Y-82034914D01*
X113986114Y-81999200D01*
X114057542Y-81963485D01*
X114128971Y-81963485D01*
X114236114Y-81999200D01*
X114664685Y-82427771D01*
X114664685Y-81963485D01*
X117015800Y-83085714D02*
X117015800Y-82728571D01*
X117230085Y-83157142D02*
X116480085Y-82907142D01*
X117230085Y-82657142D01*
X116480085Y-82478571D02*
X116480085Y-82014285D01*
X116765800Y-82264285D01*
X116765800Y-82157142D01*
X116801514Y-82085714D01*
X116837228Y-82050000D01*
X116908657Y-82014285D01*
X117087228Y-82014285D01*
X117158657Y-82050000D01*
X117194371Y-82085714D01*
X117230085Y-82157142D01*
X117230085Y-82371428D01*
X117194371Y-82442857D01*
X117158657Y-82478571D01*
X119505000Y-83060314D02*
X119505000Y-82703171D01*
X119719285Y-83131742D02*
X118969285Y-82881742D01*
X119719285Y-82631742D01*
X119219285Y-82060314D02*
X119719285Y-82060314D01*
X118933571Y-82238885D02*
X119469285Y-82417457D01*
X119469285Y-81953171D01*
X137768371Y-63191514D02*
X137804085Y-63084371D01*
X137804085Y-62905800D01*
X137768371Y-62834371D01*
X137732657Y-62798657D01*
X137661228Y-62762942D01*
X137589800Y-62762942D01*
X137518371Y-62798657D01*
X137482657Y-62834371D01*
X137446942Y-62905800D01*
X137411228Y-63048657D01*
X137375514Y-63120085D01*
X137339800Y-63155800D01*
X137268371Y-63191514D01*
X137196942Y-63191514D01*
X137125514Y-63155800D01*
X137089800Y-63120085D01*
X137054085Y-63048657D01*
X137054085Y-62870085D01*
X137089800Y-62762942D01*
X137804085Y-62441514D02*
X137054085Y-62441514D01*
X137054085Y-62262942D01*
X137089800Y-62155800D01*
X137161228Y-62084371D01*
X137232657Y-62048657D01*
X137375514Y-62012942D01*
X137482657Y-62012942D01*
X137625514Y-62048657D01*
X137696942Y-62084371D01*
X137768371Y-62155800D01*
X137804085Y-62262942D01*
X137804085Y-62441514D01*
X137589800Y-61727228D02*
X137589800Y-61370085D01*
X137804085Y-61798657D02*
X137054085Y-61548657D01*
X137804085Y-61298657D01*
X134948971Y-63224457D02*
X134984685Y-63117314D01*
X134984685Y-62938742D01*
X134948971Y-62867314D01*
X134913257Y-62831600D01*
X134841828Y-62795885D01*
X134770400Y-62795885D01*
X134698971Y-62831600D01*
X134663257Y-62867314D01*
X134627542Y-62938742D01*
X134591828Y-63081600D01*
X134556114Y-63153028D01*
X134520400Y-63188742D01*
X134448971Y-63224457D01*
X134377542Y-63224457D01*
X134306114Y-63188742D01*
X134270400Y-63153028D01*
X134234685Y-63081600D01*
X134234685Y-62903028D01*
X134270400Y-62795885D01*
X134913257Y-62045885D02*
X134948971Y-62081600D01*
X134984685Y-62188742D01*
X134984685Y-62260171D01*
X134948971Y-62367314D01*
X134877542Y-62438742D01*
X134806114Y-62474457D01*
X134663257Y-62510171D01*
X134556114Y-62510171D01*
X134413257Y-62474457D01*
X134341828Y-62438742D01*
X134270400Y-62367314D01*
X134234685Y-62260171D01*
X134234685Y-62188742D01*
X134270400Y-62081600D01*
X134306114Y-62045885D01*
X134984685Y-61367314D02*
X134984685Y-61724457D01*
X134234685Y-61724457D01*
X132444685Y-62808971D02*
X131694685Y-62808971D01*
X131694685Y-62630400D01*
X131730400Y-62523257D01*
X131801828Y-62451828D01*
X131873257Y-62416114D01*
X132016114Y-62380400D01*
X132123257Y-62380400D01*
X132266114Y-62416114D01*
X132337542Y-62451828D01*
X132408971Y-62523257D01*
X132444685Y-62630400D01*
X132444685Y-62808971D01*
X131694685Y-61701828D02*
X131694685Y-62058971D01*
X132051828Y-62094685D01*
X132016114Y-62058971D01*
X131980400Y-61987542D01*
X131980400Y-61808971D01*
X132016114Y-61737542D01*
X132051828Y-61701828D01*
X132123257Y-61666114D01*
X132301828Y-61666114D01*
X132373257Y-61701828D01*
X132408971Y-61737542D01*
X132444685Y-61808971D01*
X132444685Y-61987542D01*
X132408971Y-62058971D01*
X132373257Y-62094685D01*
X129904685Y-62834371D02*
X129154685Y-62834371D01*
X129154685Y-62655800D01*
X129190400Y-62548657D01*
X129261828Y-62477228D01*
X129333257Y-62441514D01*
X129476114Y-62405800D01*
X129583257Y-62405800D01*
X129726114Y-62441514D01*
X129797542Y-62477228D01*
X129868971Y-62548657D01*
X129904685Y-62655800D01*
X129904685Y-62834371D01*
X129154685Y-61762942D02*
X129154685Y-61905800D01*
X129190400Y-61977228D01*
X129226114Y-62012942D01*
X129333257Y-62084371D01*
X129476114Y-62120085D01*
X129761828Y-62120085D01*
X129833257Y-62084371D01*
X129868971Y-62048657D01*
X129904685Y-61977228D01*
X129904685Y-61834371D01*
X129868971Y-61762942D01*
X129833257Y-61727228D01*
X129761828Y-61691514D01*
X129583257Y-61691514D01*
X129511828Y-61727228D01*
X129476114Y-61762942D01*
X129440400Y-61834371D01*
X129440400Y-61977228D01*
X129476114Y-62048657D01*
X129511828Y-62084371D01*
X129583257Y-62120085D01*
X127364685Y-62783571D02*
X126614685Y-62783571D01*
X126614685Y-62605000D01*
X126650400Y-62497857D01*
X126721828Y-62426428D01*
X126793257Y-62390714D01*
X126936114Y-62355000D01*
X127043257Y-62355000D01*
X127186114Y-62390714D01*
X127257542Y-62426428D01*
X127328971Y-62497857D01*
X127364685Y-62605000D01*
X127364685Y-62783571D01*
X127364685Y-61997857D02*
X127364685Y-61855000D01*
X127328971Y-61783571D01*
X127293257Y-61747857D01*
X127186114Y-61676428D01*
X127043257Y-61640714D01*
X126757542Y-61640714D01*
X126686114Y-61676428D01*
X126650400Y-61712142D01*
X126614685Y-61783571D01*
X126614685Y-61926428D01*
X126650400Y-61997857D01*
X126686114Y-62033571D01*
X126757542Y-62069285D01*
X126936114Y-62069285D01*
X127007542Y-62033571D01*
X127043257Y-61997857D01*
X127078971Y-61926428D01*
X127078971Y-61783571D01*
X127043257Y-61712142D01*
X127007542Y-61676428D01*
X126936114Y-61640714D01*
X124824685Y-63140714D02*
X124074685Y-63140714D01*
X124074685Y-62962142D01*
X124110400Y-62855000D01*
X124181828Y-62783571D01*
X124253257Y-62747857D01*
X124396114Y-62712142D01*
X124503257Y-62712142D01*
X124646114Y-62747857D01*
X124717542Y-62783571D01*
X124788971Y-62855000D01*
X124824685Y-62962142D01*
X124824685Y-63140714D01*
X124824685Y-61997857D02*
X124824685Y-62426428D01*
X124824685Y-62212142D02*
X124074685Y-62212142D01*
X124181828Y-62283571D01*
X124253257Y-62355000D01*
X124288971Y-62426428D01*
X124074685Y-61533571D02*
X124074685Y-61462142D01*
X124110400Y-61390714D01*
X124146114Y-61355000D01*
X124217542Y-61319285D01*
X124360400Y-61283571D01*
X124538971Y-61283571D01*
X124681828Y-61319285D01*
X124753257Y-61355000D01*
X124788971Y-61390714D01*
X124824685Y-61462142D01*
X124824685Y-61533571D01*
X124788971Y-61605000D01*
X124753257Y-61640714D01*
X124681828Y-61676428D01*
X124538971Y-61712142D01*
X124360400Y-61712142D01*
X124217542Y-61676428D01*
X124146114Y-61640714D01*
X124110400Y-61605000D01*
X124074685Y-61533571D01*
X122259285Y-63191514D02*
X121509285Y-63191514D01*
X121509285Y-63012942D01*
X121545000Y-62905800D01*
X121616428Y-62834371D01*
X121687857Y-62798657D01*
X121830714Y-62762942D01*
X121937857Y-62762942D01*
X122080714Y-62798657D01*
X122152142Y-62834371D01*
X122223571Y-62905800D01*
X122259285Y-63012942D01*
X122259285Y-63191514D01*
X122259285Y-62048657D02*
X122259285Y-62477228D01*
X122259285Y-62262942D02*
X121509285Y-62262942D01*
X121616428Y-62334371D01*
X121687857Y-62405800D01*
X121723571Y-62477228D01*
X122259285Y-61334371D02*
X122259285Y-61762942D01*
X122259285Y-61548657D02*
X121509285Y-61548657D01*
X121616428Y-61620085D01*
X121687857Y-61691514D01*
X121723571Y-61762942D01*
X119744685Y-63166114D02*
X118994685Y-63166114D01*
X118994685Y-62987542D01*
X119030400Y-62880400D01*
X119101828Y-62808971D01*
X119173257Y-62773257D01*
X119316114Y-62737542D01*
X119423257Y-62737542D01*
X119566114Y-62773257D01*
X119637542Y-62808971D01*
X119708971Y-62880400D01*
X119744685Y-62987542D01*
X119744685Y-63166114D01*
X119744685Y-62023257D02*
X119744685Y-62451828D01*
X119744685Y-62237542D02*
X118994685Y-62237542D01*
X119101828Y-62308971D01*
X119173257Y-62380400D01*
X119208971Y-62451828D01*
X119066114Y-61737542D02*
X119030400Y-61701828D01*
X118994685Y-61630400D01*
X118994685Y-61451828D01*
X119030400Y-61380400D01*
X119066114Y-61344685D01*
X119137542Y-61308971D01*
X119208971Y-61308971D01*
X119316114Y-61344685D01*
X119744685Y-61773257D01*
X119744685Y-61308971D01*
X117204685Y-63191514D02*
X116454685Y-63191514D01*
X116454685Y-63012942D01*
X116490400Y-62905800D01*
X116561828Y-62834371D01*
X116633257Y-62798657D01*
X116776114Y-62762942D01*
X116883257Y-62762942D01*
X117026114Y-62798657D01*
X117097542Y-62834371D01*
X117168971Y-62905800D01*
X117204685Y-63012942D01*
X117204685Y-63191514D01*
X117204685Y-62048657D02*
X117204685Y-62477228D01*
X117204685Y-62262942D02*
X116454685Y-62262942D01*
X116561828Y-62334371D01*
X116633257Y-62405800D01*
X116668971Y-62477228D01*
X116454685Y-61798657D02*
X116454685Y-61334371D01*
X116740400Y-61584371D01*
X116740400Y-61477228D01*
X116776114Y-61405800D01*
X116811828Y-61370085D01*
X116883257Y-61334371D01*
X117061828Y-61334371D01*
X117133257Y-61370085D01*
X117168971Y-61405800D01*
X117204685Y-61477228D01*
X117204685Y-61691514D01*
X117168971Y-61762942D01*
X117133257Y-61798657D01*
X111757228Y-62758171D02*
X111757228Y-62508171D01*
X112150085Y-62401028D02*
X112150085Y-62758171D01*
X111400085Y-62758171D01*
X111400085Y-62401028D01*
X112150085Y-62079600D02*
X111400085Y-62079600D01*
X112150085Y-61651028D01*
X111400085Y-61651028D01*
D11*
X107878571Y-65406495D02*
X107926190Y-65263638D01*
X107973809Y-65216019D01*
X108069047Y-65168400D01*
X108211904Y-65168400D01*
X108307142Y-65216019D01*
X108354761Y-65263638D01*
X108402380Y-65358876D01*
X108402380Y-65739828D01*
X107402380Y-65739828D01*
X107402380Y-65406495D01*
X107450000Y-65311257D01*
X107497619Y-65263638D01*
X107592857Y-65216019D01*
X107688095Y-65216019D01*
X107783333Y-65263638D01*
X107830952Y-65311257D01*
X107878571Y-65406495D01*
X107878571Y-65739828D01*
X108116666Y-64787447D02*
X108116666Y-64311257D01*
X108402380Y-64882685D02*
X107402380Y-64549352D01*
X108402380Y-64216019D01*
X107402380Y-64025542D02*
X107402380Y-63454114D01*
X108402380Y-63739828D02*
X107402380Y-63739828D01*
D10*
X113914685Y-63278028D02*
X114521828Y-63278028D01*
X114593257Y-63242314D01*
X114628971Y-63206600D01*
X114664685Y-63135171D01*
X114664685Y-62992314D01*
X114628971Y-62920885D01*
X114593257Y-62885171D01*
X114521828Y-62849457D01*
X113914685Y-62849457D01*
X114628971Y-62528028D02*
X114664685Y-62420885D01*
X114664685Y-62242314D01*
X114628971Y-62170885D01*
X114593257Y-62135171D01*
X114521828Y-62099457D01*
X114450400Y-62099457D01*
X114378971Y-62135171D01*
X114343257Y-62170885D01*
X114307542Y-62242314D01*
X114271828Y-62385171D01*
X114236114Y-62456600D01*
X114200400Y-62492314D01*
X114128971Y-62528028D01*
X114057542Y-62528028D01*
X113986114Y-62492314D01*
X113950400Y-62456600D01*
X113914685Y-62385171D01*
X113914685Y-62206600D01*
X113950400Y-62099457D01*
X114271828Y-61528028D02*
X114307542Y-61420885D01*
X114343257Y-61385171D01*
X114414685Y-61349457D01*
X114521828Y-61349457D01*
X114593257Y-61385171D01*
X114628971Y-61420885D01*
X114664685Y-61492314D01*
X114664685Y-61778028D01*
X113914685Y-61778028D01*
X113914685Y-61528028D01*
X113950400Y-61456600D01*
X113986114Y-61420885D01*
X114057542Y-61385171D01*
X114128971Y-61385171D01*
X114200400Y-61420885D01*
X114236114Y-61456600D01*
X114271828Y-61528028D01*
X114271828Y-61778028D01*
X122070400Y-83187314D02*
X122070400Y-82830171D01*
X122284685Y-83258742D02*
X121534685Y-83008742D01*
X122284685Y-82758742D01*
X121534685Y-82151600D02*
X121534685Y-82508742D01*
X121891828Y-82544457D01*
X121856114Y-82508742D01*
X121820400Y-82437314D01*
X121820400Y-82258742D01*
X121856114Y-82187314D01*
X121891828Y-82151600D01*
X121963257Y-82115885D01*
X122141828Y-82115885D01*
X122213257Y-82151600D01*
X122248971Y-82187314D01*
X122284685Y-82258742D01*
X122284685Y-82437314D01*
X122248971Y-82508742D01*
X122213257Y-82544457D01*
X124809291Y-83458405D02*
X124845005Y-83351262D01*
X124845005Y-83172691D01*
X124809291Y-83101262D01*
X124773577Y-83065548D01*
X124702148Y-83029834D01*
X124630720Y-83029834D01*
X124559291Y-83065548D01*
X124523577Y-83101262D01*
X124487862Y-83172691D01*
X124452148Y-83315548D01*
X124416434Y-83386977D01*
X124380720Y-83422691D01*
X124309291Y-83458405D01*
X124237862Y-83458405D01*
X124166434Y-83422691D01*
X124130720Y-83386977D01*
X124095005Y-83315548D01*
X124095005Y-83136977D01*
X124130720Y-83029834D01*
X124773577Y-82279834D02*
X124809291Y-82315548D01*
X124845005Y-82422691D01*
X124845005Y-82494120D01*
X124809291Y-82601262D01*
X124737862Y-82672691D01*
X124666434Y-82708405D01*
X124523577Y-82744120D01*
X124416434Y-82744120D01*
X124273577Y-82708405D01*
X124202148Y-82672691D01*
X124130720Y-82601262D01*
X124095005Y-82494120D01*
X124095005Y-82422691D01*
X124130720Y-82315548D01*
X124166434Y-82279834D01*
X124845005Y-81958405D02*
X124095005Y-81958405D01*
X124845005Y-81529834D02*
X124416434Y-81851262D01*
X124095005Y-81529834D02*
X124523577Y-81958405D01*
D11*
X124872857Y-80690980D02*
X124872857Y-79690980D01*
X125206190Y-80405266D01*
X125539523Y-79690980D01*
X125539523Y-80690980D01*
X126206190Y-79690980D02*
X126396666Y-79690980D01*
X126491904Y-79738600D01*
X126587142Y-79833838D01*
X126634761Y-80024314D01*
X126634761Y-80357647D01*
X126587142Y-80548123D01*
X126491904Y-80643361D01*
X126396666Y-80690980D01*
X126206190Y-80690980D01*
X126110952Y-80643361D01*
X126015714Y-80548123D01*
X125968095Y-80357647D01*
X125968095Y-80024314D01*
X126015714Y-79833838D01*
X126110952Y-79738600D01*
X126206190Y-79690980D01*
X127698571Y-80716380D02*
X127698571Y-79716380D01*
X128031904Y-80430666D01*
X128365238Y-79716380D01*
X128365238Y-80716380D01*
X128841428Y-80716380D02*
X128841428Y-79716380D01*
X132562695Y-79665580D02*
X133134123Y-79665580D01*
X132848409Y-80665580D02*
X132848409Y-79665580D01*
X133372219Y-79665580D02*
X134038885Y-80665580D01*
X134038885Y-79665580D02*
X133372219Y-80665580D01*
X130617933Y-80665580D02*
X130284600Y-80189390D01*
X130046504Y-80665580D02*
X130046504Y-79665580D01*
X130427457Y-79665580D01*
X130522695Y-79713200D01*
X130570314Y-79760819D01*
X130617933Y-79856057D01*
X130617933Y-79998914D01*
X130570314Y-80094152D01*
X130522695Y-80141771D01*
X130427457Y-80189390D01*
X130046504Y-80189390D01*
X130951266Y-79665580D02*
X131617933Y-80665580D01*
X131617933Y-79665580D02*
X130951266Y-80665580D01*
X135432895Y-79687800D02*
X135337657Y-79640180D01*
X135194800Y-79640180D01*
X135051942Y-79687800D01*
X134956704Y-79783038D01*
X134909085Y-79878276D01*
X134861466Y-80068752D01*
X134861466Y-80211609D01*
X134909085Y-80402085D01*
X134956704Y-80497323D01*
X135051942Y-80592561D01*
X135194800Y-80640180D01*
X135290038Y-80640180D01*
X135432895Y-80592561D01*
X135480514Y-80544942D01*
X135480514Y-80211609D01*
X135290038Y-80211609D01*
X135909085Y-80640180D02*
X135909085Y-79640180D01*
X136480514Y-80640180D01*
X136480514Y-79640180D01*
X136956704Y-80640180D02*
X136956704Y-79640180D01*
X137194800Y-79640180D01*
X137337657Y-79687800D01*
X137432895Y-79783038D01*
X137480514Y-79878276D01*
X137528133Y-80068752D01*
X137528133Y-80211609D01*
X137480514Y-80402085D01*
X137432895Y-80497323D01*
X137337657Y-80592561D01*
X137194800Y-80640180D01*
X136956704Y-80640180D01*
X136007600Y-68126000D02*
X136557600Y-68126000D01*
X136557600Y-68126000D02*
X136557600Y-68676000D01*
X136007600Y-74426000D02*
X136557600Y-74426000D01*
X136557600Y-74426000D02*
X136557600Y-73876000D01*
X130807600Y-74426000D02*
X130257600Y-74426000D01*
X130257600Y-74426000D02*
X130257600Y-73876000D01*
X130807600Y-68126000D02*
X130082600Y-68126000D01*
D12*
X106620000Y-63560000D02*
X106620000Y-62230000D01*
X107950000Y-63560000D02*
X106620000Y-63560000D01*
X109220000Y-60900000D02*
X109220000Y-63560000D01*
X137220000Y-60900000D02*
X109220000Y-60900000D01*
X137220000Y-63560000D02*
X137220000Y-60900000D01*
X109220000Y-63560000D02*
X137220000Y-63560000D01*
X96460000Y-83880000D02*
X96460000Y-82550000D01*
X97790000Y-83880000D02*
X96460000Y-83880000D01*
X99060000Y-81220000D02*
X99060000Y-83880000D01*
X137220000Y-81220000D02*
X99060000Y-81220000D01*
X137220000Y-83880000D02*
X137220000Y-81220000D01*
X99060000Y-83880000D02*
X137220000Y-83880000D01*
X103981800Y-77376400D02*
X103981800Y-78376400D01*
X102621800Y-78376400D02*
X102621800Y-77376400D01*
X97291800Y-78891600D02*
X97291800Y-78791600D01*
X101691800Y-77291600D02*
X97291800Y-77291600D01*
X97291800Y-80391600D02*
X101691800Y-80391600D01*
X101691800Y-78891600D02*
X101691800Y-78791600D01*
X122534800Y-78284800D02*
X122534800Y-79744800D01*
X119374800Y-78284800D02*
X119374800Y-80444800D01*
X119374800Y-78284800D02*
X120304800Y-78284800D01*
X122534800Y-78284800D02*
X121604800Y-78284800D01*
X104834800Y-74844200D02*
X104834800Y-73644200D01*
X106594800Y-73644200D02*
X106594800Y-74844200D01*
X107461600Y-78367000D02*
X107461600Y-79367000D01*
X106101600Y-79367000D02*
X106101600Y-78367000D01*
X116351600Y-78773400D02*
X116351600Y-79773400D01*
X114991600Y-79773400D02*
X114991600Y-78773400D01*
X116490200Y-79900400D02*
X116490200Y-78900400D01*
X117850200Y-78900400D02*
X117850200Y-79900400D01*
D11*
X115544600Y-72402400D02*
X114744600Y-71602400D01*
X114744600Y-71602400D02*
X114744600Y-67602400D01*
X114744600Y-67602400D02*
X120154600Y-67602400D01*
X120154600Y-67602400D02*
X120154600Y-72402400D01*
X120154600Y-72402400D02*
X115544600Y-72402400D01*
D12*
X125634000Y-73060000D02*
X126334000Y-73060000D01*
X126334000Y-74260000D02*
X125634000Y-74260000D01*
X129124000Y-74630800D02*
X129124000Y-75330800D01*
X127924000Y-75330800D02*
X127924000Y-74630800D01*
X127517600Y-71813600D02*
X127517600Y-71113600D01*
X128717600Y-71113600D02*
X128717600Y-71813600D01*
X126095200Y-71876400D02*
X126095200Y-71176400D01*
X127295200Y-71176400D02*
X127295200Y-71876400D01*
X129636000Y-78019200D02*
X128936000Y-78019200D01*
X128936000Y-76819200D02*
X129636000Y-76819200D01*
X124672800Y-71876400D02*
X124672800Y-71176400D01*
X125872800Y-71176400D02*
X125872800Y-71876400D01*
X128682000Y-65744800D02*
X129382000Y-65744800D01*
X129382000Y-66944800D02*
X128682000Y-66944800D01*
X128682000Y-64373200D02*
X129382000Y-64373200D01*
X129382000Y-65573200D02*
X128682000Y-65573200D01*
X135093000Y-77272400D02*
X135093000Y-77972400D01*
X133893000Y-77972400D02*
X133893000Y-77272400D01*
X140177000Y-70196000D02*
X139477000Y-70196000D01*
X139477000Y-68996000D02*
X140177000Y-68996000D01*
X139477000Y-70393000D02*
X140177000Y-70393000D01*
X140177000Y-71593000D02*
X139477000Y-71593000D01*
X115677200Y-63712800D02*
X116377200Y-63712800D01*
X116377200Y-64912800D02*
X115677200Y-64912800D01*
X114239600Y-66960000D02*
X114239600Y-67660000D01*
X113039600Y-67660000D02*
X113039600Y-66960000D01*
X112592600Y-71389800D02*
X111892600Y-71389800D01*
X111892600Y-70189800D02*
X112592600Y-70189800D01*
X104276600Y-77769200D02*
X104276600Y-77069200D01*
X105476600Y-77069200D02*
X105476600Y-77769200D01*
X112527600Y-63712800D02*
X113227600Y-63712800D01*
X113227600Y-64912800D02*
X112527600Y-64912800D01*
X102559600Y-72532800D02*
X101859600Y-72532800D01*
X101859600Y-71332800D02*
X102559600Y-71332800D01*
X124334000Y-74606400D02*
X124334000Y-78606400D01*
X127634000Y-74606400D02*
X124334000Y-74606400D01*
X123170400Y-71442200D02*
X123170400Y-70442200D01*
X124530400Y-70442200D02*
X124530400Y-71442200D01*
X135718000Y-78224000D02*
X135718000Y-77224000D01*
X137078000Y-77224000D02*
X137078000Y-78224000D01*
X137623000Y-76827000D02*
X137623000Y-75827000D01*
X138983000Y-75827000D02*
X138983000Y-76827000D01*
X109634400Y-63632800D02*
X110634400Y-63632800D01*
X110634400Y-64992800D02*
X109634400Y-64992800D01*
X96500400Y-76192000D02*
X96500400Y-75192000D01*
X97860400Y-75192000D02*
X97860400Y-76192000D01*
X96348000Y-67810000D02*
X96348000Y-66810000D01*
X97708000Y-66810000D02*
X97708000Y-67810000D01*
X112557200Y-68006800D02*
X112557200Y-65556800D01*
X109337200Y-66206800D02*
X109337200Y-68006800D01*
X107254400Y-70016800D02*
X107254400Y-71816800D01*
X110474400Y-71816800D02*
X110474400Y-69366800D01*
X103819600Y-75525200D02*
X103819600Y-73075200D01*
X100599600Y-73725200D02*
X100599600Y-75525200D01*
X92680000Y-66486000D02*
X92680000Y-67626000D01*
X92680000Y-67626000D02*
X94780000Y-67626000D01*
X92680000Y-66486000D02*
X94780000Y-66486000D01*
X95940400Y-78294000D02*
X93840400Y-78294000D01*
X95940400Y-77154000D02*
X93840400Y-77154000D01*
X95940400Y-78294000D02*
X95940400Y-77154000D01*
X104137000Y-67765000D02*
X104137000Y-70665000D01*
X104687000Y-61565000D02*
X100037000Y-61565000D01*
X99312000Y-67765000D02*
X100587000Y-67765000D01*
X99312000Y-69365000D02*
X99312000Y-67765000D01*
X98312000Y-69365000D02*
X99312000Y-69365000D01*
X98312000Y-65140000D02*
X98312000Y-69365000D01*
X106412000Y-69365000D02*
X106412000Y-65140000D01*
X105412000Y-69365000D02*
X106412000Y-69365000D01*
X105412000Y-67765000D02*
X105412000Y-69365000D01*
X104137000Y-67765000D02*
X105412000Y-67765000D01*
X98161600Y-75910000D02*
X98161600Y-72010000D01*
X100161600Y-75910000D02*
X100161600Y-72010000D01*
X98161600Y-75910000D02*
X100161600Y-75910000D01*
D11*
X108259000Y-75045600D02*
X108259000Y-75570600D01*
X113509000Y-75045600D02*
X113509000Y-75570600D01*
X113509000Y-80295600D02*
X113509000Y-79770600D01*
X108259000Y-80295600D02*
X108259000Y-79770600D01*
X113509000Y-75045600D02*
X112984000Y-75045600D01*
X113509000Y-80295600D02*
X112984000Y-80295600D01*
X108259000Y-75045600D02*
X108784000Y-75045600D01*
M02*
