G04 #@! TF.GenerationSoftware,KiCad,Pcbnew,(2017-05-26 revision 1fda668)-master*
G04 #@! TF.CreationDate,2017-06-12T11:29:52-07:00*
G04 #@! TF.ProjectId,feather_five,666561746865725F666976652E6B6963,rev?*
G04 #@! TF.FileFunction,Soldermask,Bot*
G04 #@! TF.FilePolarity,Negative*
%FSLAX46Y46*%
G04 Gerber Fmt 4.6, Leading zero omitted, Abs format (unit mm)*
G04 Created by KiCad (PCBNEW (2017-05-26 revision 1fda668)-master) date Monday, June 12, 2017 'AMt' 11:29:52 AM*
%MOMM*%
%LPD*%
G01*
G04 APERTURE LIST*
%ADD10C,0.100000*%
%ADD11O,2.100000X2.100000*%
%ADD12R,2.100000X2.100000*%
%ADD13R,1.150000X2.800000*%
%ADD14C,3.100000*%
%ADD15O,2.000000X2.300000*%
G04 APERTURE END LIST*
D10*
D11*
X135890000Y-62230000D03*
X133350000Y-62230000D03*
X130810000Y-62230000D03*
X128270000Y-62230000D03*
X125730000Y-62230000D03*
X123190000Y-62230000D03*
X120650000Y-62230000D03*
X118110000Y-62230000D03*
X115570000Y-62230000D03*
X113030000Y-62230000D03*
X110490000Y-62230000D03*
D12*
X107950000Y-62230000D03*
D11*
X135890000Y-82550000D03*
X133350000Y-82550000D03*
X130810000Y-82550000D03*
X128270000Y-82550000D03*
X125730000Y-82550000D03*
X123190000Y-82550000D03*
X120650000Y-82550000D03*
X118110000Y-82550000D03*
X115570000Y-82550000D03*
X113030000Y-82550000D03*
X110490000Y-82550000D03*
X107950000Y-82550000D03*
X105410000Y-82550000D03*
X102870000Y-82550000D03*
X100330000Y-82550000D03*
D12*
X97790000Y-82550000D03*
D13*
X102463600Y-74250000D03*
X102463600Y-78150000D03*
X103733600Y-74250000D03*
X103733600Y-78150000D03*
X105003600Y-74250000D03*
X105003600Y-78150000D03*
X106273600Y-74250000D03*
X106273600Y-78150000D03*
X107543600Y-74250000D03*
X107543600Y-78150000D03*
X122072400Y-74238400D03*
X122072400Y-70338400D03*
X120802400Y-74238400D03*
X120802400Y-70338400D03*
X119532400Y-74238400D03*
X119532400Y-70338400D03*
X118262400Y-74238400D03*
X118262400Y-70338400D03*
X116992400Y-74238400D03*
X116992400Y-70338400D03*
D14*
X139700000Y-81280000D03*
X139700000Y-63500000D03*
X93980000Y-81280000D03*
X93980000Y-63500000D03*
D15*
X92892500Y-68940000D03*
X92892500Y-75840000D03*
M02*
