M48
;DRILL file {KiCad (2017-05-26 revision 1fda668)-master} date Monday, June 12, 2017 'AMt' 11:29:44 AM
;FORMAT={2:4/ absolute / inch / suppress leading zeros}
FMAT,2
INCH,TZ
T1C0.020
T2C0.039
T3C0.047
%
G90
G05
M72
T1
X37740Y-25920
X38220Y-27880
X38260Y-29060
X38750Y-30120
X38830Y-29180
X38982Y-26164
X39280Y-30170
X39340Y-30730
X39520Y-31340
X41328Y-31518
X41630Y-28468
X41682Y-27848
X41690Y-30020
X42250Y-29980
X42620Y-31630
X43166Y-28822
X43448Y-29160
X43735Y-28814
X44332Y-26371
X44570Y-27240
X44740Y-25740
X44782Y-29584
X44890Y-28610
X44910Y-29120
X45036Y-31290
X45109Y-30400
X45519Y-30559
X46324Y-25254
X46598Y-31162
X46719Y-31585
X46986Y-30202
X47120Y-28420
X47440Y-30270
X47992Y-31077
X48145Y-29876
X48206Y-30485
X48484Y-27886
X48775Y-29394
X49181Y-25573
X49646Y-25575
X50031Y-26089
X50560Y-31105
X51031Y-29483
X51697Y-25710
X52115Y-30898
X52269Y-27808
X52269Y-28315
X52371Y-29819
X52776Y-27808
X52776Y-28315
X52823Y-25688
X52853Y-31016
X53160Y-29855
X53527Y-26097
X53780Y-29883
X53915Y-26622
X53940Y-29471
X54121Y-26225
X54130Y-32470
X54338Y-27930
X54440Y-28929
X54550Y-29369
X54554Y-26281
X54790Y-26990
X55040Y-30140
X55310Y-29350
X55420Y-26870
T2
X42500Y-24500
X43500Y-24500
X44500Y-24500
X45500Y-24500
X46500Y-24500
X47500Y-24500
X48500Y-24500
X38500Y-32500
X39500Y-32500
X40500Y-32500
X41500Y-32500
X42500Y-32500
X43500Y-32500
X44500Y-32500
X45500Y-32500
X46500Y-32500
X47500Y-32500
X48500Y-32500
X49500Y-32500
X50500Y-32500
X51500Y-32500
X52500Y-32500
X53500Y-32500
X49500Y-24500
X50500Y-24500
X51500Y-24500
X52500Y-24500
X53500Y-24500
T3
X36572Y-27201
X36572Y-29799
T0
M30
