G04 #@! TF.GenerationSoftware,KiCad,Pcbnew,(2017-05-26 revision 1fda668)-master*
G04 #@! TF.CreationDate,2017-06-12T11:29:52-07:00*
G04 #@! TF.ProjectId,feather_five,666561746865725F666976652E6B6963,rev?*
G04 #@! TF.FileFunction,Soldermask,Top*
G04 #@! TF.FilePolarity,Negative*
%FSLAX46Y46*%
G04 Gerber Fmt 4.6, Leading zero omitted, Abs format (unit mm)*
G04 Created by KiCad (PCBNEW (2017-05-26 revision 1fda668)-master) date Monday, June 12, 2017 'AMt' 11:29:52 AM*
%MOMM*%
%LPD*%
G01*
G04 APERTURE LIST*
%ADD10C,0.100000*%
%ADD11R,1.050000X0.600000*%
%ADD12R,0.600000X1.050000*%
%ADD13R,2.600000X2.600000*%
%ADD14O,2.100000X2.100000*%
%ADD15R,2.100000X2.100000*%
%ADD16R,1.300000X0.900000*%
%ADD17R,1.400000X1.300000*%
%ADD18R,1.200000X1.300000*%
%ADD19R,1.700000X1.100000*%
%ADD20R,1.000000X1.900000*%
%ADD21R,1.200000X1.150000*%
%ADD22R,1.150000X1.200000*%
%ADD23R,1.600000X1.800000*%
%ADD24R,0.900000X1.300000*%
%ADD25R,1.050000X1.460000*%
%ADD26R,1.000000X1.200000*%
%ADD27C,3.100000*%
%ADD28R,1.800000X2.200000*%
%ADD29R,1.750000X0.800000*%
%ADD30R,2.300000X2.300000*%
%ADD31O,2.000000X2.300000*%
%ADD32R,1.900000X3.800000*%
%ADD33R,1.400000X3.900000*%
%ADD34R,1.600000X1.300000*%
%ADD35R,2.125000X2.125000*%
%ADD36R,1.100000X0.650000*%
%ADD37R,0.650000X1.100000*%
G04 APERTURE END LIST*
D10*
D11*
X130407600Y-69076000D03*
X130407600Y-69476000D03*
X130407600Y-69876000D03*
X130407600Y-70276000D03*
X130407600Y-70676000D03*
X130407600Y-71076000D03*
X130407600Y-71476000D03*
X130407600Y-71876000D03*
X130407600Y-72276000D03*
X130407600Y-72676000D03*
X130407600Y-73076000D03*
X130407600Y-73476000D03*
D12*
X131207600Y-74276000D03*
X131607600Y-74276000D03*
X132007600Y-74276000D03*
X132407600Y-74276000D03*
X132807600Y-74276000D03*
X133207600Y-74276000D03*
X133607600Y-74276000D03*
X134007600Y-74276000D03*
X134407600Y-74276000D03*
X134807600Y-74276000D03*
X135207600Y-74276000D03*
X135607600Y-74276000D03*
D11*
X136407600Y-73476000D03*
X136407600Y-73076000D03*
X136407600Y-72676000D03*
X136407600Y-72276000D03*
X136407600Y-71876000D03*
X136407600Y-71476000D03*
X136407600Y-71076000D03*
X136407600Y-70676000D03*
X136407600Y-70276000D03*
X136407600Y-69876000D03*
X136407600Y-69476000D03*
X136407600Y-69076000D03*
D12*
X135607600Y-68276000D03*
X135207600Y-68276000D03*
X134807600Y-68276000D03*
X134407600Y-68276000D03*
X134007600Y-68276000D03*
X133607600Y-68276000D03*
X133207600Y-68276000D03*
X132807600Y-68276000D03*
X132407600Y-68276000D03*
X132007600Y-68276000D03*
X131607600Y-68276000D03*
X131207600Y-68276000D03*
D13*
X132307600Y-70176000D03*
X132307600Y-72376000D03*
X134507600Y-70176000D03*
X134507600Y-72376000D03*
D14*
X135890000Y-62230000D03*
X133350000Y-62230000D03*
X130810000Y-62230000D03*
X128270000Y-62230000D03*
X125730000Y-62230000D03*
X123190000Y-62230000D03*
X120650000Y-62230000D03*
X118110000Y-62230000D03*
X115570000Y-62230000D03*
X113030000Y-62230000D03*
X110490000Y-62230000D03*
D15*
X107950000Y-62230000D03*
D14*
X135890000Y-82550000D03*
X133350000Y-82550000D03*
X130810000Y-82550000D03*
X128270000Y-82550000D03*
X125730000Y-82550000D03*
X123190000Y-82550000D03*
X120650000Y-82550000D03*
X118110000Y-82550000D03*
X115570000Y-82550000D03*
X113030000Y-82550000D03*
X110490000Y-82550000D03*
X107950000Y-82550000D03*
X105410000Y-82550000D03*
X102870000Y-82550000D03*
X100330000Y-82550000D03*
D15*
X97790000Y-82550000D03*
D16*
X103301800Y-78626400D03*
X103301800Y-77126400D03*
D17*
X101541800Y-79641600D03*
X101541800Y-78041600D03*
X97441800Y-79641600D03*
X97441800Y-78041600D03*
D18*
X120954800Y-78044800D03*
X121904800Y-80044800D03*
X120004800Y-80044800D03*
D19*
X105714800Y-73294200D03*
X105714800Y-75194200D03*
D16*
X106781600Y-79617000D03*
X106781600Y-78117000D03*
X115671600Y-80023400D03*
X115671600Y-78523400D03*
X117170200Y-78650400D03*
X117170200Y-80150400D03*
D20*
X115544600Y-66352400D03*
X115544600Y-73652400D03*
X116814600Y-66352400D03*
X116814600Y-73652400D03*
X118084600Y-66352400D03*
X118084600Y-73652400D03*
X119354600Y-66352400D03*
X119354600Y-73652400D03*
D21*
X125234000Y-73660000D03*
X126734000Y-73660000D03*
D22*
X128524000Y-74230800D03*
X128524000Y-75730800D03*
X128117600Y-72213600D03*
X128117600Y-70713600D03*
X126695200Y-72276400D03*
X126695200Y-70776400D03*
D21*
X130036000Y-77419200D03*
X128536000Y-77419200D03*
D22*
X125272800Y-72276400D03*
X125272800Y-70776400D03*
D21*
X128282000Y-66344800D03*
X129782000Y-66344800D03*
X128282000Y-64973200D03*
X129782000Y-64973200D03*
D22*
X134493000Y-76872400D03*
X134493000Y-78372400D03*
D21*
X140577000Y-69596000D03*
X139077000Y-69596000D03*
X139077000Y-70993000D03*
X140577000Y-70993000D03*
X115277200Y-64312800D03*
X116777200Y-64312800D03*
D22*
X113639600Y-66560000D03*
X113639600Y-68060000D03*
D21*
X112992600Y-70789800D03*
X111492600Y-70789800D03*
D22*
X104876600Y-78169200D03*
X104876600Y-76669200D03*
D21*
X112127600Y-64312800D03*
X113627600Y-64312800D03*
X102959600Y-71932800D03*
X101459600Y-71932800D03*
D23*
X126834000Y-75506400D03*
X126834000Y-77706400D03*
X125134000Y-77706400D03*
X125134000Y-75506400D03*
D16*
X123850400Y-70192200D03*
X123850400Y-71692200D03*
X136398000Y-76974000D03*
X136398000Y-78474000D03*
X138303000Y-75577000D03*
X138303000Y-77077000D03*
D24*
X110884400Y-64312800D03*
X109384400Y-64312800D03*
D16*
X97180400Y-74942000D03*
X97180400Y-76442000D03*
X97028000Y-66560000D03*
X97028000Y-68060000D03*
D25*
X111897200Y-68206800D03*
X109997200Y-68206800D03*
X109997200Y-66006800D03*
X110947200Y-66006800D03*
X111897200Y-66006800D03*
X109814400Y-69816800D03*
X108864400Y-69816800D03*
X107914400Y-69816800D03*
X107914400Y-72016800D03*
X109814400Y-72016800D03*
X103159600Y-75725200D03*
X101259600Y-75725200D03*
X101259600Y-73525200D03*
X102209600Y-73525200D03*
X103159600Y-73525200D03*
D26*
X93130000Y-67056000D03*
X94830000Y-67056000D03*
X93790400Y-77724000D03*
X95490400Y-77724000D03*
D27*
X139700000Y-81280000D03*
X139700000Y-63500000D03*
X93980000Y-81280000D03*
X93980000Y-63500000D03*
D28*
X95342500Y-68990000D03*
X95342500Y-75790000D03*
D29*
X95567500Y-71090000D03*
X95567500Y-71740000D03*
X95567500Y-72390000D03*
X95567500Y-73040000D03*
X95567500Y-73690000D03*
D30*
X92892500Y-71190000D03*
X92892500Y-73590000D03*
D31*
X92892500Y-68940000D03*
X92892500Y-75840000D03*
D32*
X99012000Y-63165000D03*
X105712000Y-63165000D03*
D33*
X101362000Y-68915000D03*
X103362000Y-68915000D03*
D34*
X99161600Y-72010000D03*
X99161600Y-75310000D03*
D35*
X110021500Y-78533100D03*
X111746500Y-78533100D03*
X110021500Y-76808100D03*
X111746500Y-76808100D03*
D36*
X108484000Y-79420600D03*
X108484000Y-78920600D03*
X108484000Y-78420600D03*
X108484000Y-77920600D03*
X108484000Y-77420600D03*
X108484000Y-76920600D03*
X108484000Y-76420600D03*
X108484000Y-75920600D03*
D37*
X109134000Y-75270600D03*
X109634000Y-75270600D03*
X110134000Y-75270600D03*
X110634000Y-75270600D03*
X111134000Y-75270600D03*
X111634000Y-75270600D03*
X112134000Y-75270600D03*
X112634000Y-75270600D03*
D36*
X113284000Y-75920600D03*
X113284000Y-76420600D03*
X113284000Y-76920600D03*
X113284000Y-77420600D03*
X113284000Y-77920600D03*
X113284000Y-78420600D03*
X113284000Y-78920600D03*
X113284000Y-79420600D03*
D37*
X112634000Y-80070600D03*
X112134000Y-80070600D03*
X111634000Y-80070600D03*
X111134000Y-80070600D03*
X110634000Y-80070600D03*
X110134000Y-80070600D03*
X109634000Y-80070600D03*
X109134000Y-80070600D03*
M02*
