G04 #@! TF.GenerationSoftware,KiCad,Pcbnew,(2017-05-26 revision 1fda668)-master*
G04 #@! TF.CreationDate,2017-06-12T11:29:52-07:00*
G04 #@! TF.ProjectId,feather_five,666561746865725F666976652E6B6963,rev?*
G04 #@! TF.FileFunction,Copper,L1,Top,Signal*
G04 #@! TF.FilePolarity,Positive*
%FSLAX46Y46*%
G04 Gerber Fmt 4.6, Leading zero omitted, Abs format (unit mm)*
G04 Created by KiCad (PCBNEW (2017-05-26 revision 1fda668)-master) date Monday, June 12, 2017 'AMt' 11:29:52 AM*
%MOMM*%
%LPD*%
G01*
G04 APERTURE LIST*
%ADD10C,0.100000*%
%ADD11R,0.650000X0.200000*%
%ADD12R,0.200000X0.650000*%
%ADD13R,2.200000X2.200000*%
%ADD14O,1.700000X1.700000*%
%ADD15R,1.700000X1.700000*%
%ADD16R,0.900000X0.500000*%
%ADD17R,1.000000X0.900000*%
%ADD18R,0.800000X0.900000*%
%ADD19R,1.300000X0.700000*%
%ADD20R,0.600000X1.500000*%
%ADD21R,0.800000X0.750000*%
%ADD22R,0.750000X0.800000*%
%ADD23R,1.200000X1.400000*%
%ADD24R,0.500000X0.900000*%
%ADD25R,0.650000X1.060000*%
%ADD26R,0.600000X0.800000*%
%ADD27R,1.400000X1.800000*%
%ADD28R,1.350000X0.400000*%
%ADD29R,1.900000X1.900000*%
%ADD30O,1.600000X1.900000*%
%ADD31R,1.500000X3.400000*%
%ADD32R,1.000000X3.500000*%
%ADD33R,1.200000X0.900000*%
%ADD34R,1.725000X1.725000*%
%ADD35R,0.700000X0.250000*%
%ADD36R,0.250000X0.700000*%
%ADD37C,0.914400*%
%ADD38C,0.195000*%
%ADD39C,0.200000*%
%ADD40C,0.254000*%
%ADD41C,0.203200*%
G04 APERTURE END LIST*
D10*
D11*
X130407600Y-69076000D03*
X130407600Y-69476000D03*
X130407600Y-69876000D03*
X130407600Y-70276000D03*
X130407600Y-70676000D03*
X130407600Y-71076000D03*
X130407600Y-71476000D03*
X130407600Y-71876000D03*
X130407600Y-72276000D03*
X130407600Y-72676000D03*
X130407600Y-73076000D03*
X130407600Y-73476000D03*
D12*
X131207600Y-74276000D03*
X131607600Y-74276000D03*
X132007600Y-74276000D03*
X132407600Y-74276000D03*
X132807600Y-74276000D03*
X133207600Y-74276000D03*
X133607600Y-74276000D03*
X134007600Y-74276000D03*
X134407600Y-74276000D03*
X134807600Y-74276000D03*
X135207600Y-74276000D03*
X135607600Y-74276000D03*
D11*
X136407600Y-73476000D03*
X136407600Y-73076000D03*
X136407600Y-72676000D03*
X136407600Y-72276000D03*
X136407600Y-71876000D03*
X136407600Y-71476000D03*
X136407600Y-71076000D03*
X136407600Y-70676000D03*
X136407600Y-70276000D03*
X136407600Y-69876000D03*
X136407600Y-69476000D03*
X136407600Y-69076000D03*
D12*
X135607600Y-68276000D03*
X135207600Y-68276000D03*
X134807600Y-68276000D03*
X134407600Y-68276000D03*
X134007600Y-68276000D03*
X133607600Y-68276000D03*
X133207600Y-68276000D03*
X132807600Y-68276000D03*
X132407600Y-68276000D03*
X132007600Y-68276000D03*
X131607600Y-68276000D03*
X131207600Y-68276000D03*
D13*
X132307600Y-70176000D03*
X132307600Y-72376000D03*
X134507600Y-70176000D03*
X134507600Y-72376000D03*
D14*
X135890000Y-62230000D03*
X133350000Y-62230000D03*
X130810000Y-62230000D03*
X128270000Y-62230000D03*
X125730000Y-62230000D03*
X123190000Y-62230000D03*
X120650000Y-62230000D03*
X118110000Y-62230000D03*
X115570000Y-62230000D03*
X113030000Y-62230000D03*
X110490000Y-62230000D03*
D15*
X107950000Y-62230000D03*
D14*
X135890000Y-82550000D03*
X133350000Y-82550000D03*
X130810000Y-82550000D03*
X128270000Y-82550000D03*
X125730000Y-82550000D03*
X123190000Y-82550000D03*
X120650000Y-82550000D03*
X118110000Y-82550000D03*
X115570000Y-82550000D03*
X113030000Y-82550000D03*
X110490000Y-82550000D03*
X107950000Y-82550000D03*
X105410000Y-82550000D03*
X102870000Y-82550000D03*
X100330000Y-82550000D03*
D15*
X97790000Y-82550000D03*
D16*
X103301800Y-78626400D03*
X103301800Y-77126400D03*
D17*
X101541800Y-79641600D03*
X101541800Y-78041600D03*
X97441800Y-79641600D03*
X97441800Y-78041600D03*
D18*
X120954800Y-78044800D03*
X121904800Y-80044800D03*
X120004800Y-80044800D03*
D19*
X105714800Y-73294200D03*
X105714800Y-75194200D03*
D16*
X106781600Y-79617000D03*
X106781600Y-78117000D03*
X115671600Y-80023400D03*
X115671600Y-78523400D03*
X117170200Y-78650400D03*
X117170200Y-80150400D03*
D20*
X115544600Y-66352400D03*
X115544600Y-73652400D03*
X116814600Y-66352400D03*
X116814600Y-73652400D03*
X118084600Y-66352400D03*
X118084600Y-73652400D03*
X119354600Y-66352400D03*
X119354600Y-73652400D03*
D21*
X125234000Y-73660000D03*
X126734000Y-73660000D03*
D22*
X128524000Y-74230800D03*
X128524000Y-75730800D03*
X128117600Y-72213600D03*
X128117600Y-70713600D03*
X126695200Y-72276400D03*
X126695200Y-70776400D03*
D21*
X130036000Y-77419200D03*
X128536000Y-77419200D03*
D22*
X125272800Y-72276400D03*
X125272800Y-70776400D03*
D21*
X128282000Y-66344800D03*
X129782000Y-66344800D03*
X128282000Y-64973200D03*
X129782000Y-64973200D03*
D22*
X134493000Y-76872400D03*
X134493000Y-78372400D03*
D21*
X140577000Y-69596000D03*
X139077000Y-69596000D03*
X139077000Y-70993000D03*
X140577000Y-70993000D03*
X115277200Y-64312800D03*
X116777200Y-64312800D03*
D22*
X113639600Y-66560000D03*
X113639600Y-68060000D03*
D21*
X112992600Y-70789800D03*
X111492600Y-70789800D03*
D22*
X104876600Y-78169200D03*
X104876600Y-76669200D03*
D21*
X112127600Y-64312800D03*
X113627600Y-64312800D03*
X102959600Y-71932800D03*
X101459600Y-71932800D03*
D23*
X126834000Y-75506400D03*
X126834000Y-77706400D03*
X125134000Y-77706400D03*
X125134000Y-75506400D03*
D16*
X123850400Y-70192200D03*
X123850400Y-71692200D03*
X136398000Y-76974000D03*
X136398000Y-78474000D03*
X138303000Y-75577000D03*
X138303000Y-77077000D03*
D24*
X110884400Y-64312800D03*
X109384400Y-64312800D03*
D16*
X97180400Y-74942000D03*
X97180400Y-76442000D03*
X97028000Y-66560000D03*
X97028000Y-68060000D03*
D25*
X111897200Y-68206800D03*
X109997200Y-68206800D03*
X109997200Y-66006800D03*
X110947200Y-66006800D03*
X111897200Y-66006800D03*
X109814400Y-69816800D03*
X108864400Y-69816800D03*
X107914400Y-69816800D03*
X107914400Y-72016800D03*
X109814400Y-72016800D03*
X103159600Y-75725200D03*
X101259600Y-75725200D03*
X101259600Y-73525200D03*
X102209600Y-73525200D03*
X103159600Y-73525200D03*
D26*
X93130000Y-67056000D03*
X94830000Y-67056000D03*
X93790400Y-77724000D03*
X95490400Y-77724000D03*
D27*
X95342500Y-68990000D03*
X95342500Y-75790000D03*
D28*
X95567500Y-71090000D03*
X95567500Y-71740000D03*
X95567500Y-72390000D03*
X95567500Y-73040000D03*
X95567500Y-73690000D03*
D29*
X92892500Y-71190000D03*
X92892500Y-73590000D03*
D30*
X92892500Y-68940000D03*
X92892500Y-75840000D03*
D31*
X99012000Y-63165000D03*
X105712000Y-63165000D03*
D32*
X101362000Y-68915000D03*
X103362000Y-68915000D03*
D33*
X99161600Y-72010000D03*
X99161600Y-75310000D03*
D34*
X110021500Y-78533100D03*
X111746500Y-78533100D03*
X110021500Y-76808100D03*
X111746500Y-76808100D03*
D35*
X108484000Y-79420600D03*
X108484000Y-78920600D03*
X108484000Y-78420600D03*
X108484000Y-77920600D03*
X108484000Y-77420600D03*
X108484000Y-76920600D03*
X108484000Y-76420600D03*
X108484000Y-75920600D03*
D36*
X109134000Y-75270600D03*
X109634000Y-75270600D03*
X110134000Y-75270600D03*
X110634000Y-75270600D03*
X111134000Y-75270600D03*
X111634000Y-75270600D03*
X112134000Y-75270600D03*
X112634000Y-75270600D03*
D35*
X113284000Y-75920600D03*
X113284000Y-76420600D03*
X113284000Y-76920600D03*
X113284000Y-77420600D03*
X113284000Y-77920600D03*
X113284000Y-78420600D03*
X113284000Y-78920600D03*
X113284000Y-79420600D03*
D36*
X112634000Y-80070600D03*
X112134000Y-80070600D03*
X111634000Y-80070600D03*
X111134000Y-80070600D03*
X110634000Y-80070600D03*
X110134000Y-80070600D03*
X109634000Y-80070600D03*
X109134000Y-80070600D03*
D37*
X118665152Y-80226778D03*
X99771200Y-76631800D03*
X128422400Y-79007554D03*
X129619373Y-74885816D03*
X139166600Y-68554600D03*
X113207800Y-69189600D03*
X99014280Y-66456560D03*
X105740200Y-72308720D03*
X119684800Y-72186800D03*
X99923600Y-78054200D03*
X114390857Y-79476703D03*
X117664007Y-64145362D03*
X127078697Y-66265012D03*
X140766790Y-68249800D03*
X123889769Y-74661105D03*
X134245792Y-78781375D03*
X137490200Y-82473800D03*
X113639600Y-65379600D03*
X105892600Y-76250800D03*
X97180400Y-73812400D03*
X132763850Y-71919750D03*
X132763850Y-70632250D03*
X134051350Y-71919750D03*
X134051350Y-70632250D03*
X123148908Y-70831549D03*
X124920517Y-64955150D03*
X139801557Y-76555600D03*
X140487434Y-74549000D03*
X135026356Y-75831261D03*
X136601168Y-75903710D03*
X122289543Y-75884797D03*
X100380800Y-79603600D03*
X114020600Y-72669400D03*
X114575946Y-77216580D03*
X109641034Y-73207212D03*
X98628198Y-74117200D03*
X112604528Y-66981230D03*
X97078800Y-70815200D03*
X108254800Y-80340200D03*
X104973216Y-80055919D03*
X131310070Y-65303390D03*
X95859600Y-65836800D03*
X126101145Y-64959633D03*
X105873111Y-70733862D03*
X98425000Y-76504800D03*
X111087993Y-73187163D03*
X110357273Y-74066404D03*
X113745044Y-75143850D03*
X132372713Y-78479818D03*
X122443364Y-77431474D03*
X114071400Y-73964800D03*
X120497600Y-76885798D03*
X119343964Y-76713426D03*
X138018018Y-70942992D03*
X133023288Y-75741529D03*
X135959810Y-66285986D03*
X134170553Y-65247091D03*
X136943012Y-67619193D03*
X137467421Y-66611478D03*
X138567822Y-66752587D03*
X115617990Y-77620560D03*
X138277570Y-73480806D03*
X118358375Y-79152095D03*
X138557011Y-74598417D03*
X107315000Y-76149200D03*
X121899530Y-78934388D03*
X137007579Y-74855198D03*
D38*
X130407600Y-73076000D02*
X129887600Y-73076000D01*
X129887600Y-73076000D02*
X129437600Y-73526000D01*
X129437600Y-73526000D02*
X129437023Y-73526000D01*
X131607600Y-68276000D02*
X131607600Y-67756000D01*
X131607600Y-67756000D02*
X131157600Y-67306000D01*
X131157600Y-67306000D02*
X131157600Y-67272000D01*
X136407600Y-70676000D02*
X137164771Y-70676000D01*
X137164771Y-70676000D02*
X137314771Y-70526000D01*
D39*
X129732600Y-73526000D02*
X129437023Y-73526000D01*
D40*
X130407600Y-73476000D02*
X129828600Y-73476000D01*
X129828600Y-73476000D02*
X129778600Y-73526000D01*
X129778600Y-73526000D02*
X129437023Y-73526000D01*
X118588774Y-80150400D02*
X118665152Y-80226778D01*
X117170200Y-80150400D02*
X118588774Y-80150400D01*
X98501200Y-77317599D02*
X99085401Y-77317599D01*
X98262161Y-77317599D02*
X98501200Y-77317599D01*
X98501200Y-77317599D02*
X98501200Y-80721200D01*
X98501200Y-80721200D02*
X100330000Y-82550000D01*
X106781600Y-78117000D02*
X104928800Y-78117000D01*
X104928800Y-78117000D02*
X104876600Y-78169200D01*
X108484000Y-77920600D02*
X106978000Y-77920600D01*
X106978000Y-77920600D02*
X106781600Y-78117000D01*
X108484000Y-78420600D02*
X107085200Y-78420600D01*
X107085200Y-78420600D02*
X106781600Y-78117000D01*
X103301800Y-77126400D02*
X103833800Y-77126400D01*
X103833800Y-77126400D02*
X104876600Y-78169200D01*
X99771200Y-76631800D02*
X102103200Y-76631800D01*
X102103200Y-76631800D02*
X102597800Y-77126400D01*
X102597800Y-77126400D02*
X103301800Y-77126400D01*
X96652401Y-77261399D02*
X98205961Y-77261399D01*
X96393000Y-78115762D02*
X96393000Y-77520800D01*
X96054561Y-78454201D02*
X96393000Y-78115762D01*
X96393000Y-77520800D02*
X96652401Y-77261399D01*
X99314001Y-77088999D02*
X99771200Y-76631800D01*
X93790400Y-77824000D02*
X94420601Y-78454201D01*
X94420601Y-78454201D02*
X96054561Y-78454201D01*
X98205961Y-77261399D02*
X98262161Y-77317599D01*
X99085401Y-77317599D02*
X99314001Y-77088999D01*
X93790400Y-77724000D02*
X93790400Y-77824000D01*
X111897200Y-68411800D02*
X112675000Y-69189600D01*
X111897200Y-68206800D02*
X111897200Y-68411800D01*
X113639600Y-68060000D02*
X113639600Y-68757800D01*
X128879599Y-78550355D02*
X128422400Y-79007554D01*
X128924616Y-78505584D02*
X128924370Y-78505584D01*
X128924370Y-78505584D02*
X128879599Y-78550355D01*
X130036000Y-77419200D02*
X130011000Y-77419200D01*
X130011000Y-77419200D02*
X128924616Y-78505584D01*
X128924616Y-78505584D02*
X128930400Y-78511368D01*
X115671600Y-80023400D02*
X117043200Y-80023400D01*
X117043200Y-80023400D02*
X117170200Y-80150400D01*
X114314882Y-80365602D02*
X114625398Y-80365602D01*
X114625398Y-80365602D02*
X114967600Y-80023400D01*
X114967600Y-80023400D02*
X115671600Y-80023400D01*
X114187985Y-80238705D02*
X114314882Y-80365602D01*
X114038303Y-80238705D02*
X114187985Y-80238705D01*
X113284000Y-79484402D02*
X114038303Y-80238705D01*
X113284000Y-79420600D02*
X113284000Y-79484402D01*
X129782000Y-66344800D02*
X129757000Y-66344800D01*
X129757000Y-66344800D02*
X129049387Y-67052413D01*
X129049387Y-67052413D02*
X126573668Y-67052413D01*
X126573668Y-67052413D02*
X125739044Y-66217789D01*
X125739044Y-66217789D02*
X125069589Y-66217789D01*
X125069589Y-66217789D02*
X122682000Y-63830200D01*
X122682000Y-63830200D02*
X119092735Y-63830200D01*
X119092735Y-63830200D02*
X117904934Y-65018001D01*
X117904934Y-65018001D02*
X115982399Y-65018001D01*
X117170200Y-80150400D02*
X117237446Y-80150400D01*
X129946400Y-76059600D02*
X129619373Y-75732573D01*
X129619373Y-75732573D02*
X129619373Y-75532394D01*
X130007600Y-74026000D02*
X130007600Y-74497589D01*
X130007600Y-74497589D02*
X129619373Y-74885816D01*
X129619373Y-75532394D02*
X129619373Y-74885816D01*
X129946400Y-76059600D02*
X129946400Y-76700600D01*
X129946400Y-76700600D02*
X130036000Y-76790200D01*
X130036000Y-76790200D02*
X130036000Y-77419200D01*
X139077000Y-68644200D02*
X139166600Y-68554600D01*
X139077000Y-69596000D02*
X139077000Y-68644200D01*
X104876600Y-78169200D02*
X105118600Y-77927200D01*
X108477400Y-77927200D02*
X108484000Y-77920600D01*
X111897200Y-68206800D02*
X113492800Y-68206800D01*
X113492800Y-68206800D02*
X113639600Y-68060000D01*
X114268600Y-68060000D02*
X113639600Y-68060000D01*
X129946400Y-76059600D02*
X129946400Y-76084600D01*
X115277200Y-64312800D02*
X115277200Y-64941800D01*
X115277200Y-64941800D02*
X115353401Y-65018001D01*
X115353401Y-65018001D02*
X115982399Y-65018001D01*
X115982399Y-65018001D02*
X115544600Y-65455800D01*
X129403600Y-74026000D02*
X130007600Y-74026000D01*
X129235200Y-73857600D02*
X129403600Y-74026000D01*
X129235200Y-73727823D02*
X129235200Y-73857600D01*
X129437023Y-73526000D02*
X129235200Y-73727823D01*
X139077000Y-69596000D02*
X139102000Y-69596000D01*
X131157600Y-67272000D02*
X130230400Y-66344800D01*
X130230400Y-66344800D02*
X129782000Y-66344800D01*
X138423000Y-69596000D02*
X139077000Y-69596000D01*
X138244771Y-69596000D02*
X138423000Y-69596000D01*
X137314771Y-70526000D02*
X138244771Y-69596000D01*
X112675000Y-69189600D02*
X113207800Y-69189600D01*
X113639600Y-68757800D02*
X113207800Y-69189600D01*
X115544600Y-66352400D02*
X115544600Y-66802400D01*
X115544600Y-66802400D02*
X114287000Y-68060000D01*
X114287000Y-68060000D02*
X114268600Y-68060000D01*
X115544600Y-65455800D02*
X115544600Y-66352400D01*
D41*
X129168098Y-70526000D02*
X128245286Y-69603188D01*
X121810425Y-73393826D02*
X121764925Y-73394299D01*
X128245286Y-69603188D02*
X122501715Y-69603188D01*
X121885612Y-70254437D02*
X121876697Y-70295457D01*
X122492801Y-69644207D02*
X122493239Y-69686182D01*
X122493239Y-69686182D02*
X122503004Y-69727006D01*
X121275155Y-70826630D02*
X121255839Y-70867829D01*
X122092326Y-70098198D02*
X122050351Y-70098634D01*
X122501715Y-69603188D02*
X122492801Y-69644207D01*
X121074086Y-73632412D02*
X121090210Y-73665022D01*
X122530005Y-70234714D02*
X122488986Y-70225799D01*
X122503004Y-69727006D02*
X122521609Y-69764636D01*
X122571980Y-70234278D02*
X122530005Y-70234714D01*
X122521609Y-69764636D02*
X122548120Y-69797181D01*
X122548120Y-69797181D02*
X122581209Y-69823012D01*
X121246648Y-70957793D02*
X121257233Y-71002047D01*
X122581209Y-69823012D02*
X122657225Y-69858649D01*
X121996741Y-70857158D02*
X121952487Y-70867744D01*
X121468975Y-70730797D02*
X121423475Y-70731270D01*
X121513439Y-70740461D02*
X121468975Y-70730797D01*
X121913522Y-70186607D02*
X121895702Y-70224614D01*
X122657225Y-69858649D02*
X122690314Y-69884480D01*
X121932017Y-70448432D02*
X121965106Y-70474262D01*
X122310919Y-70167185D02*
X122133346Y-70107113D01*
X122050351Y-70098634D02*
X122009526Y-70108400D01*
X122716828Y-69917025D02*
X122735433Y-69954655D01*
X122745198Y-69995479D02*
X122745634Y-70037454D01*
X121877134Y-70337432D02*
X121886899Y-70378257D01*
X122690314Y-69884480D02*
X122716828Y-69917025D01*
X120888780Y-73467736D02*
X120904904Y-73500346D01*
X122735433Y-69954655D02*
X122745198Y-69995479D01*
X122745634Y-70037454D02*
X122736719Y-70078474D01*
X121047802Y-73174063D02*
X121012421Y-73182527D01*
X122736719Y-70078474D02*
X122726631Y-70108299D01*
X121277401Y-71042835D02*
X121306140Y-71078114D01*
X121257233Y-71002047D02*
X121277401Y-71042835D01*
X122708812Y-70146307D02*
X122682981Y-70179394D01*
X121939352Y-70153517D02*
X121913522Y-70186607D01*
X121876697Y-70295457D02*
X121877134Y-70337432D01*
X122726631Y-70108299D02*
X122708812Y-70146307D01*
X122682981Y-70179394D02*
X122650436Y-70205907D01*
X122200350Y-72381346D02*
X122200823Y-72426846D01*
X122189765Y-72337091D02*
X122200350Y-72381346D01*
X121024033Y-71479745D02*
X120983245Y-71499912D01*
X122650436Y-70205907D02*
X122612806Y-70224512D01*
X122612806Y-70224512D02*
X122571980Y-70234278D01*
X122488986Y-70225799D02*
X122311414Y-70165728D01*
X121850690Y-72999669D02*
X121891891Y-73018983D01*
X121891891Y-73018983D02*
X121927759Y-73046982D01*
X121927759Y-73046982D02*
X121956497Y-73082260D01*
X122311414Y-70165728D02*
X122310919Y-70167185D01*
X122119327Y-70605904D02*
X122129092Y-70646729D01*
X122100721Y-70568275D02*
X122119327Y-70605904D01*
X121948438Y-71745663D02*
X121158252Y-71478350D01*
X122133346Y-70107113D02*
X122092326Y-70098198D01*
X120867341Y-72500230D02*
X120867814Y-72545730D01*
X120877005Y-72455766D02*
X120867341Y-72500230D01*
X120896320Y-72414567D02*
X120877005Y-72455766D01*
X120924319Y-72378699D02*
X120896320Y-72414567D01*
X120959598Y-72349960D02*
X120924319Y-72378699D01*
X122009526Y-70108400D02*
X121971897Y-70127005D01*
X121971897Y-70127005D02*
X121939352Y-70153517D01*
X120919967Y-71564519D02*
X120900652Y-71605718D01*
X121895702Y-70224614D02*
X121885612Y-70254437D01*
X120900652Y-71605718D02*
X120890988Y-71650182D01*
X121886899Y-70378257D02*
X121905505Y-70415886D01*
X122188225Y-71531096D02*
X122180500Y-71566646D01*
X121255839Y-70867829D02*
X121246175Y-70912293D01*
X122072808Y-70808252D02*
X122037529Y-70836990D01*
X121905505Y-70415886D02*
X121932017Y-70448432D01*
X121965106Y-70474262D02*
X122041120Y-70509900D01*
X122041120Y-70509900D02*
X122074209Y-70535730D01*
X122074209Y-70535730D02*
X122100721Y-70568275D01*
X122100807Y-70772384D02*
X122072808Y-70808252D01*
X122129092Y-70646729D02*
X122129529Y-70688704D01*
X122129529Y-70688704D02*
X122120614Y-70729724D01*
X122120614Y-70729724D02*
X122120123Y-70731185D01*
X122120123Y-70731185D02*
X122100807Y-70772384D01*
X122037529Y-70836990D02*
X121996741Y-70857158D01*
X121952487Y-70867744D02*
X121906987Y-70868216D01*
X121906987Y-70868216D02*
X121862522Y-70858553D01*
X121862522Y-70858553D02*
X121513439Y-70740461D01*
X121423475Y-70731270D02*
X121379221Y-70741856D01*
X121379221Y-70741856D02*
X121338432Y-70762023D01*
X121338432Y-70762023D02*
X121303154Y-70790762D01*
X121303154Y-70790762D02*
X121275155Y-70826630D01*
X121246175Y-70912293D02*
X121246648Y-70957793D01*
X121306140Y-71078114D02*
X121342008Y-71106113D01*
X121342008Y-71106113D02*
X121383207Y-71125429D01*
X121383207Y-71125429D02*
X122078667Y-71360697D01*
X122078667Y-71360697D02*
X122111608Y-71376137D01*
X122111608Y-71376137D02*
X122140283Y-71398523D01*
X122163260Y-71426727D02*
X122179383Y-71459339D01*
X122140283Y-71398523D02*
X122163260Y-71426727D01*
X122179383Y-71459339D02*
X122187848Y-71494719D01*
X122187848Y-71494719D02*
X122188225Y-71531096D01*
X122180500Y-71566646D02*
X122154388Y-71643832D01*
X122138944Y-71676772D02*
X122116560Y-71705447D01*
X122154388Y-71643832D02*
X122138944Y-71676772D01*
X122088355Y-71728424D02*
X122055745Y-71744548D01*
X122116560Y-71705447D02*
X122088355Y-71728424D01*
X122055745Y-71744548D02*
X122020365Y-71753011D01*
X122020365Y-71753011D02*
X121983986Y-71753388D01*
X121983986Y-71753388D02*
X121948438Y-71745663D01*
X121158252Y-71478350D02*
X121113787Y-71468686D01*
X121113787Y-71468686D02*
X121068287Y-71469159D01*
X121068287Y-71469159D02*
X121024033Y-71479745D01*
X120947966Y-71528651D02*
X120919967Y-71564519D01*
X120983245Y-71499912D02*
X120947966Y-71528651D01*
X120890988Y-71650182D02*
X120891461Y-71695682D01*
X120891461Y-71695682D02*
X120902046Y-71739936D01*
X120902046Y-71739936D02*
X120922214Y-71780724D01*
X120950953Y-71816003D02*
X120986821Y-71844002D01*
X120922214Y-71780724D02*
X120950953Y-71816003D01*
X120986821Y-71844002D02*
X121028020Y-71863318D01*
X121028020Y-71863318D02*
X122063790Y-72213711D01*
X122063790Y-72213711D02*
X122104991Y-72233025D01*
X122104991Y-72233025D02*
X122140858Y-72261024D01*
X122140858Y-72261024D02*
X122169596Y-72296302D01*
X122169596Y-72296302D02*
X122189765Y-72337091D01*
X122171844Y-72512509D02*
X122143845Y-72548377D01*
X122191160Y-72471309D02*
X122171844Y-72512509D01*
X122200823Y-72426846D02*
X122191160Y-72471309D01*
X122143845Y-72548377D02*
X122108568Y-72577115D01*
X122108568Y-72577115D02*
X122067778Y-72597283D01*
X122067778Y-72597283D02*
X122023523Y-72607868D01*
X122023523Y-72607868D02*
X121978025Y-72608341D01*
X121933560Y-72598679D02*
X121134605Y-72328398D01*
X121978025Y-72608341D02*
X121933560Y-72598679D01*
X121134605Y-72328398D02*
X121090140Y-72318734D01*
X121044641Y-72319207D02*
X121000387Y-72329793D01*
X121090140Y-72318734D02*
X121044641Y-72319207D01*
X121000387Y-72329793D02*
X120959598Y-72349960D01*
X120867814Y-72545730D02*
X120878399Y-72589984D01*
X120878399Y-72589984D02*
X120898567Y-72630772D01*
X120898567Y-72630772D02*
X120927306Y-72666051D01*
X120927306Y-72666051D02*
X120963174Y-72694050D01*
X120963174Y-72694050D02*
X121004373Y-72713366D01*
X121004373Y-72713366D02*
X121850690Y-72999669D01*
X121956497Y-73082260D02*
X121976665Y-73123050D01*
X121976665Y-73123050D02*
X121987250Y-73167304D01*
X121987250Y-73167304D02*
X121987723Y-73212802D01*
X121987723Y-73212802D02*
X121978060Y-73257267D01*
X121978060Y-73257267D02*
X121958744Y-73298465D01*
X121958744Y-73298465D02*
X121930745Y-73334333D01*
X121930745Y-73334333D02*
X121895468Y-73363073D01*
X121895468Y-73363073D02*
X121854678Y-73383239D01*
X121854678Y-73383239D02*
X121810425Y-73393826D01*
X121764925Y-73394299D02*
X121720460Y-73384635D01*
X121720460Y-73384635D02*
X121119728Y-73181411D01*
X121119728Y-73181411D02*
X121084179Y-73173685D01*
X121084179Y-73173685D02*
X121047802Y-73174063D01*
X121012421Y-73182527D02*
X120979810Y-73198651D01*
X120979810Y-73198651D02*
X120951605Y-73221627D01*
X120951605Y-73221627D02*
X120929220Y-73250304D01*
X120929220Y-73250304D02*
X120913777Y-73283242D01*
X120913777Y-73283242D02*
X120887665Y-73360428D01*
X120887665Y-73360428D02*
X120879939Y-73395978D01*
X120879939Y-73395978D02*
X120880317Y-73432355D01*
X120880317Y-73432355D02*
X120888780Y-73467736D01*
X120904904Y-73500346D02*
X120927880Y-73528551D01*
X120927880Y-73528551D02*
X120956557Y-73550936D01*
X120956557Y-73550936D02*
X121022433Y-73581821D01*
X121022433Y-73581821D02*
X121051110Y-73604206D01*
X121051110Y-73604206D02*
X121074086Y-73632412D01*
X121090210Y-73665022D02*
X121098673Y-73700403D01*
X121098673Y-73700403D02*
X121099051Y-73736780D01*
X121099051Y-73736780D02*
X121091325Y-73772329D01*
X121091325Y-73772329D02*
X120929400Y-74250993D01*
X120929400Y-74250993D02*
X120066781Y-75113612D01*
X120066781Y-75113612D02*
X119371532Y-75113612D01*
X119371532Y-75113612D02*
X118965121Y-75520023D01*
X118965121Y-75520023D02*
X116991631Y-75520023D01*
X116991631Y-75520023D02*
X116630163Y-75158555D01*
X116630163Y-75158555D02*
X116097555Y-75158555D01*
X116097555Y-75158555D02*
X115544600Y-74605600D01*
X115544600Y-74605600D02*
X115544600Y-73652400D01*
D38*
X130407600Y-70676000D02*
X129683726Y-70676000D01*
X129683726Y-70676000D02*
X129681666Y-70673940D01*
X129681666Y-70673940D02*
X129316038Y-70673940D01*
X129316038Y-70673940D02*
X129313538Y-70671440D01*
D39*
X129313538Y-70671440D02*
X129168098Y-70526000D01*
D41*
X129782600Y-68526000D02*
X129148074Y-67891474D01*
X129148074Y-67891474D02*
X126227306Y-67891474D01*
X126227306Y-67891474D02*
X125485812Y-67149980D01*
X125485812Y-67149980D02*
X120134380Y-67149980D01*
X120134380Y-67149980D02*
X119959401Y-66975001D01*
X118810759Y-65297599D02*
X118749799Y-65358559D01*
X118749799Y-67381401D02*
X118310659Y-67820541D01*
X119959401Y-66975001D02*
X119959401Y-65358559D01*
X119959401Y-65358559D02*
X119898441Y-65297599D01*
X119898441Y-65297599D02*
X118810759Y-65297599D01*
X118749799Y-65358559D02*
X118749799Y-67381401D01*
X118310659Y-67820541D02*
X115829671Y-70301529D01*
D39*
X115829671Y-70301529D02*
X115214400Y-70301529D01*
D41*
X116178497Y-69167652D02*
X116158755Y-69126655D01*
X115281452Y-67775608D02*
X115326954Y-67775609D01*
X116158755Y-69126655D02*
X116130385Y-69091080D01*
X115865709Y-68223210D02*
X115910070Y-68233335D01*
X115196094Y-67805477D02*
X115237090Y-67785735D01*
X115412312Y-67805477D02*
X115447888Y-67833846D01*
X115789138Y-68175096D02*
X115824712Y-68203467D01*
X115237090Y-67785735D02*
X115281452Y-67775608D01*
X115160518Y-67833847D02*
X115196094Y-67805477D01*
X116130385Y-69091080D02*
X115160519Y-68121215D01*
X115910070Y-68233335D02*
X115955574Y-68233334D01*
X115132148Y-67869422D02*
X115160518Y-67833847D01*
X115955574Y-68233334D02*
X115999935Y-68223209D01*
X115824712Y-68203467D02*
X115865709Y-68223210D01*
X115160519Y-68121215D02*
X115132147Y-68085640D01*
X115132147Y-68085640D02*
X115112405Y-68044644D01*
X115112405Y-68044644D02*
X115102280Y-68000282D01*
X115102280Y-68000282D02*
X115102279Y-67954780D01*
X116188623Y-69257516D02*
X116188623Y-69212013D01*
X116188623Y-69212013D02*
X116178497Y-69167652D01*
X116158755Y-69342873D02*
X116178497Y-69301877D01*
X116178497Y-69301877D02*
X116188623Y-69257516D01*
X115425196Y-68989087D02*
X115466193Y-69008829D01*
X115466193Y-69008829D02*
X115501768Y-69037200D01*
X115501768Y-69037200D02*
X115843017Y-69378449D01*
X115843017Y-69378449D02*
X115878592Y-69406819D01*
X115878592Y-69406819D02*
X115919589Y-69426562D01*
X115214400Y-69037200D02*
X115249975Y-69008829D01*
X116094810Y-69406819D02*
X116130385Y-69378449D01*
X116130385Y-69378449D02*
X116158755Y-69342873D01*
X115214400Y-70301529D02*
X115214400Y-69037200D01*
X115102279Y-67954780D02*
X115112406Y-67910418D01*
X115335332Y-68978961D02*
X115380835Y-68978961D01*
X115290971Y-68989087D02*
X115335332Y-68978961D01*
X115249975Y-69008829D02*
X115290971Y-68989087D01*
X115380835Y-68978961D02*
X115425196Y-68989087D01*
X115326954Y-67775609D02*
X115371316Y-67785734D01*
X115371316Y-67785734D02*
X115412312Y-67805477D01*
X116814600Y-67437000D02*
X116814600Y-66352400D01*
X115447888Y-67833846D02*
X115789138Y-68175096D01*
X115112406Y-67910418D02*
X115132148Y-67869422D01*
X116076506Y-68175096D02*
X116814600Y-67437000D01*
X116040930Y-68203467D02*
X116076506Y-68175096D01*
X115999935Y-68223209D02*
X116040930Y-68203467D01*
X116053814Y-69426562D02*
X116094810Y-69406819D01*
X115919589Y-69426562D02*
X115963950Y-69436687D01*
X115963950Y-69436687D02*
X116009453Y-69436687D01*
X116009453Y-69436687D02*
X116053814Y-69426562D01*
D39*
X130407600Y-69076000D02*
X130182600Y-69076000D01*
X130182600Y-69076000D02*
X129782600Y-68676000D01*
X129782600Y-68676000D02*
X129782600Y-68526000D01*
D41*
X121331134Y-69168866D02*
X120515305Y-68353037D01*
X129403142Y-69526000D02*
X128660354Y-68783211D01*
X120515305Y-68353037D02*
X120479730Y-68324667D01*
X120039163Y-70772064D02*
X120046809Y-70805571D01*
X119624831Y-69179565D02*
X119653202Y-69215140D01*
X121679968Y-68888443D02*
X121686369Y-68916493D01*
X121747210Y-69013322D02*
X121753612Y-69041370D01*
X120869740Y-69852388D02*
X120847246Y-69834450D01*
X119020228Y-69668942D02*
X119030354Y-69713303D01*
X121611118Y-69252275D02*
X121588624Y-69270213D01*
X120559880Y-70303511D02*
X120454207Y-70409185D01*
X119030354Y-69579078D02*
X119020228Y-69623439D01*
X121562703Y-69282697D02*
X121534655Y-69289098D01*
X128660354Y-68783211D02*
X121716789Y-68783211D01*
X121686369Y-68916493D02*
X121698852Y-68942414D01*
X121152553Y-69569574D02*
X121165036Y-69595495D01*
X119688777Y-68899402D02*
X119653202Y-68927772D01*
X120320926Y-70439605D02*
X120295005Y-70427123D01*
X120002822Y-70714230D02*
X120024250Y-70741100D01*
X119289263Y-69454394D02*
X119244902Y-69444269D01*
X121588624Y-69270213D02*
X121562703Y-69282697D01*
X121686370Y-68831625D02*
X121679968Y-68859673D01*
X120227937Y-68353037D02*
X120199566Y-68388612D01*
X120847246Y-69834450D02*
X119940570Y-68927772D01*
X119594963Y-69094207D02*
X119605089Y-69138568D01*
X121534655Y-69289098D02*
X121505885Y-69289098D01*
X120377744Y-70446008D02*
X120348974Y-70446008D01*
X121679968Y-68859673D02*
X121679968Y-68888443D01*
X117419401Y-74707201D02*
X116814600Y-74102400D01*
X119773289Y-71037939D02*
X119742325Y-71023026D01*
X119030354Y-69713303D02*
X119050096Y-69754300D01*
X121698852Y-68942414D02*
X121734727Y-68987401D01*
X120348974Y-70446008D02*
X120320926Y-70439605D01*
X119874671Y-71037938D02*
X119841165Y-71045586D01*
X120590300Y-70255098D02*
X120577817Y-70281019D01*
X121716789Y-68783211D02*
X121698853Y-68805704D01*
X121152552Y-69706284D02*
X121134615Y-69728776D01*
X119715455Y-71001598D02*
X119427496Y-70713638D01*
X121698853Y-68805704D02*
X121686370Y-68831625D01*
X119905635Y-71023027D02*
X119874671Y-71037938D01*
X119050096Y-69754300D02*
X119078467Y-69789875D01*
X119653202Y-69215140D02*
X120559879Y-70121817D01*
X120199566Y-68388612D02*
X120179824Y-68429608D01*
X119020228Y-69623439D02*
X119020228Y-69668942D01*
X120577818Y-70144309D02*
X120590301Y-70170230D01*
X121734727Y-68987401D02*
X121747210Y-69013322D01*
X121716789Y-69146603D02*
X121611118Y-69252275D01*
X121753612Y-69041370D02*
X121753612Y-69070140D01*
X121338575Y-69161428D02*
X121331134Y-69168866D01*
X120431713Y-70427123D02*
X120405794Y-70439605D01*
X120559879Y-70121817D02*
X120577818Y-70144309D01*
X121753612Y-69070140D02*
X121747211Y-69098188D01*
X120479730Y-68324667D02*
X120438733Y-68304924D01*
X120002823Y-70931280D02*
X119932505Y-71001599D01*
X119330260Y-69474137D02*
X119289263Y-69454394D01*
X120304508Y-68304924D02*
X120263512Y-68324667D01*
X121747211Y-69098188D02*
X121734728Y-69124109D01*
X120169698Y-68473969D02*
X120169698Y-68519472D01*
X119774135Y-68869534D02*
X119729773Y-68879659D01*
X120169698Y-68519472D02*
X120179824Y-68563833D01*
X121734728Y-69124109D02*
X121716789Y-69146603D01*
X119092015Y-70790209D02*
X119081889Y-70834570D01*
X121505885Y-69289098D02*
X121477835Y-69282697D01*
X119841165Y-71045586D02*
X119806797Y-71045586D01*
X119199400Y-69444269D02*
X119155038Y-69454394D01*
X120577817Y-70281019D02*
X120559880Y-70303511D01*
X120263512Y-68324667D02*
X120227937Y-68353037D01*
X119940570Y-68927772D02*
X119904995Y-68899402D01*
X121477835Y-69282697D02*
X121451916Y-69270213D01*
X120199566Y-68604830D02*
X120227937Y-68640405D01*
X119114042Y-69474137D02*
X119078467Y-69502507D01*
X119078467Y-69789875D02*
X120002822Y-70714230D01*
X121451916Y-69270213D02*
X121429422Y-69252275D01*
X119904995Y-68899402D02*
X119863998Y-68879659D01*
X120438733Y-68304924D02*
X120394372Y-68294799D01*
X121171437Y-69623545D02*
X121171437Y-69652315D01*
X120024250Y-70904410D02*
X120002823Y-70931280D01*
X121028942Y-69834450D02*
X121006448Y-69852388D01*
X119863998Y-68879659D02*
X119819637Y-68869534D01*
X119140128Y-71001006D02*
X119175876Y-71036754D01*
X121429422Y-69252275D02*
X121338575Y-69161428D01*
X120394372Y-68294799D02*
X120348870Y-68294799D01*
X119742325Y-71023026D02*
X119715455Y-71001598D01*
X119605089Y-69138568D02*
X119624831Y-69179565D01*
X120348870Y-68294799D02*
X120304508Y-68304924D01*
X120179824Y-68429608D02*
X120169698Y-68473969D01*
X119365835Y-69502507D02*
X119330260Y-69474137D01*
X120952479Y-69871273D02*
X120923709Y-69871273D01*
X118628441Y-74707201D02*
X117419401Y-74707201D01*
X120179824Y-68563833D02*
X120199566Y-68604830D01*
X120227937Y-68640405D02*
X121134614Y-69547082D01*
X120405794Y-70439605D02*
X120377744Y-70446008D01*
X119819637Y-68869534D02*
X119774135Y-68869534D01*
X121134614Y-69547082D02*
X121152553Y-69569574D01*
X121165036Y-69595495D02*
X121171437Y-69623545D01*
X119092015Y-70924434D02*
X119111757Y-70965431D01*
X121171437Y-69652315D02*
X121165035Y-69680363D01*
X121165035Y-69680363D02*
X121152552Y-69706284D01*
X120590301Y-70170230D02*
X120596702Y-70198280D01*
X121134615Y-69728776D02*
X121028942Y-69834450D01*
X121006448Y-69852388D02*
X120980529Y-69864870D01*
X120980529Y-69864870D02*
X120952479Y-69871273D01*
X120923709Y-69871273D02*
X120895661Y-69864870D01*
X120895661Y-69864870D02*
X120869740Y-69852388D01*
X119078467Y-69502507D02*
X119050096Y-69538082D01*
X119729773Y-68879659D02*
X119688777Y-68899402D01*
X119653202Y-68927772D02*
X119624831Y-68963347D01*
X119624831Y-68963347D02*
X119605089Y-69004343D01*
X119234114Y-71203189D02*
X119223989Y-71247551D01*
X119223989Y-71247551D02*
X119204246Y-71288547D01*
X119605089Y-69004343D02*
X119594963Y-69048704D01*
X119594963Y-69048704D02*
X119594963Y-69094207D01*
X120596702Y-70198280D02*
X120596702Y-70227050D01*
X119932505Y-71001599D02*
X119905635Y-71023027D01*
X120596702Y-70227050D02*
X120590300Y-70255098D01*
X120454207Y-70409185D02*
X120431713Y-70427123D01*
X120295005Y-70427123D02*
X120272511Y-70409185D01*
X120272511Y-70409185D02*
X119365835Y-69502507D01*
X119806797Y-71045586D02*
X119773289Y-71037939D01*
X119244902Y-69444269D02*
X119199400Y-69444269D01*
X119155038Y-69454394D02*
X119114042Y-69474137D01*
X119050096Y-69538082D02*
X119030354Y-69579078D01*
X120024250Y-70741100D02*
X120039163Y-70772064D01*
X120046809Y-70805571D02*
X120046809Y-70839939D01*
X120046809Y-70839939D02*
X120039162Y-70873446D01*
X120039162Y-70873446D02*
X120024250Y-70904410D01*
X119427496Y-70713638D02*
X119391921Y-70685268D01*
X119350925Y-70665525D02*
X119306563Y-70655400D01*
X119391921Y-70685268D02*
X119350925Y-70665525D01*
X119261061Y-70655400D02*
X119216699Y-70665525D01*
X119306563Y-70655400D02*
X119261061Y-70655400D01*
X119111757Y-70749213D02*
X119092015Y-70790209D01*
X119140128Y-70713638D02*
X119111757Y-70749213D01*
X119175703Y-70685268D02*
X119140128Y-70713638D01*
X119216699Y-70665525D02*
X119175703Y-70685268D01*
X119081889Y-70834570D02*
X119081889Y-70880073D01*
X119111757Y-70965431D02*
X119140128Y-71001006D01*
X116814600Y-74102400D02*
X116814600Y-73652400D01*
X119081889Y-70880073D02*
X119092015Y-70924434D01*
X119175876Y-71036754D02*
X119204246Y-71072329D01*
X119204246Y-71072329D02*
X119223989Y-71113325D01*
X119223989Y-71113325D02*
X119234114Y-71157687D01*
X119234114Y-71157687D02*
X119234114Y-71203189D01*
X119204246Y-71288547D02*
X119175876Y-71324122D01*
X119175876Y-71324122D02*
X118689401Y-71810599D01*
X118689401Y-71810599D02*
X118689401Y-74646241D01*
X118689401Y-74646241D02*
X118628441Y-74707201D01*
D39*
X129753142Y-69876000D02*
X129403142Y-69526000D01*
X130407600Y-69876000D02*
X129753142Y-69876000D01*
D41*
X129938463Y-67485063D02*
X126395645Y-67485062D01*
X126395645Y-67485062D02*
X125560183Y-66649600D01*
D39*
X122013274Y-64345052D02*
X122013274Y-64627894D01*
X120964960Y-64262000D02*
X120964960Y-64544842D01*
X119271607Y-64262000D02*
X120964960Y-64262000D01*
X120446970Y-66477038D02*
X120729812Y-66477038D01*
X120446970Y-66194195D02*
X120446970Y-66477038D01*
X120964960Y-64544842D02*
X120446973Y-65062828D01*
X120446973Y-65062828D02*
X120446973Y-65345670D01*
X122013274Y-64627894D02*
X121672063Y-64969103D01*
X121401559Y-66653810D02*
X121684401Y-66653810D01*
X120446973Y-65345670D02*
X120729815Y-65345670D01*
X120729815Y-65345670D02*
X121730432Y-64345053D01*
X121730432Y-64345053D02*
X122013274Y-64345052D01*
X123321412Y-65299637D02*
X123321412Y-65582479D01*
X121672063Y-64969103D02*
X120446970Y-66194195D01*
X120729812Y-66477038D02*
X122472891Y-64733958D01*
X122944848Y-65959044D02*
X122944847Y-66241886D01*
X122755731Y-64733956D02*
X122755731Y-65016798D01*
X122472891Y-64733958D02*
X122755731Y-64733956D01*
X122755731Y-65016798D02*
X121401559Y-66370968D01*
X121401559Y-66370968D02*
X121401559Y-66653810D01*
X121684401Y-66653810D02*
X123038572Y-65299639D01*
X123038572Y-65299639D02*
X123321412Y-65299637D01*
X123321412Y-65582479D02*
X122944848Y-65959044D01*
X122944847Y-66241886D02*
X123352560Y-66649600D01*
X123352560Y-66649600D02*
X125560183Y-66649600D01*
D41*
X118084600Y-65449007D02*
X118084600Y-66352400D01*
X119271607Y-64262000D02*
X118084600Y-65449007D01*
D38*
X131207600Y-68276000D02*
X131207600Y-68051000D01*
X131207600Y-68051000D02*
X130667563Y-67510963D01*
X130667563Y-67510963D02*
X130667563Y-67485063D01*
D39*
X130667563Y-67485063D02*
X129938463Y-67485063D01*
D41*
X129477893Y-69026001D02*
X128749777Y-68297885D01*
X128749777Y-68297885D02*
X125854285Y-68297885D01*
X125273221Y-67747603D02*
X125265404Y-67678221D01*
X125253874Y-67645270D02*
X125235300Y-67615711D01*
X125854285Y-68297885D02*
X125425211Y-67868811D01*
X124557945Y-68310485D02*
X124519417Y-68286277D01*
X124519417Y-68286277D02*
X124487242Y-68254102D01*
X125425211Y-67868811D02*
X125390520Y-67864902D01*
X124951169Y-67572452D02*
X124921610Y-67591026D01*
X124016387Y-68215574D02*
X123992179Y-68254102D01*
X123992179Y-68254102D02*
X123960004Y-68286277D01*
X122532118Y-67560922D02*
X122499167Y-67572452D01*
X121883303Y-67560922D02*
X121848613Y-67557014D01*
X121848613Y-67557014D02*
X121754009Y-67557014D01*
X125390520Y-67864902D02*
X125357569Y-67853372D01*
X125235300Y-67615711D02*
X125210615Y-67591026D01*
X124866821Y-67678221D02*
X124862913Y-67712913D01*
X124862913Y-67868811D02*
X124849311Y-67868811D01*
X124984120Y-67560922D02*
X124951169Y-67572452D01*
X125210615Y-67591026D02*
X125181056Y-67572452D01*
X124849311Y-68127408D02*
X124844216Y-68172625D01*
X124849311Y-67868811D02*
X124849311Y-68127408D01*
X121754009Y-67557014D02*
X121719318Y-67560922D01*
X121719318Y-67560922D02*
X121686367Y-67572452D01*
X125357569Y-67853372D02*
X125328010Y-67834798D01*
X125284751Y-67780554D02*
X125273221Y-67747603D01*
X123571413Y-67591026D02*
X123541854Y-67572452D01*
X122405816Y-68172625D02*
X122390787Y-68215574D01*
X125265404Y-67678221D02*
X125253874Y-67645270D01*
X125328010Y-67834798D02*
X125303325Y-67810113D01*
X125303325Y-67810113D02*
X125284751Y-67780554D01*
X125181056Y-67572452D02*
X125148105Y-67560922D01*
X121577987Y-68265574D02*
X121553779Y-68304102D01*
X123674442Y-68254102D02*
X123650234Y-68215574D01*
X123706617Y-68286277D02*
X123674442Y-68254102D01*
X125148105Y-67560922D02*
X125113415Y-67557014D01*
X124844216Y-68172625D02*
X124829187Y-68215574D01*
X123921476Y-68310485D02*
X123878527Y-68325514D01*
X121076676Y-67888935D02*
X121033727Y-67873906D01*
X121033727Y-67873906D02*
X120988511Y-67868811D01*
X125018811Y-67557014D02*
X124984120Y-67560922D01*
X125113415Y-67557014D02*
X125018811Y-67557014D01*
X124896925Y-67615711D02*
X124878351Y-67645270D01*
X124921610Y-67591026D02*
X124896925Y-67615711D01*
X124772804Y-68286277D02*
X124734276Y-68310485D01*
X124804979Y-68254102D02*
X124772804Y-68286277D01*
X124878351Y-67645270D02*
X124866821Y-67678221D01*
X122499167Y-67572452D02*
X122469608Y-67591026D01*
X121268217Y-68336277D02*
X121236042Y-68304102D01*
X121236042Y-68304102D02*
X121211834Y-68265574D01*
X122758613Y-67591026D02*
X122729054Y-67572452D01*
X122783298Y-67615711D02*
X122758613Y-67591026D01*
X124862913Y-67712913D02*
X124862913Y-67868811D01*
X122390787Y-68215574D02*
X122366579Y-68254102D01*
X124829187Y-68215574D02*
X124804979Y-68254102D01*
X122817311Y-67712912D02*
X122813402Y-67678221D01*
X124734276Y-68310485D02*
X124691327Y-68325514D01*
X124691327Y-68325514D02*
X124646111Y-68330608D01*
X124646111Y-68330608D02*
X124600894Y-68325514D01*
X121440127Y-68375514D02*
X121394911Y-68380608D01*
X121394911Y-68380608D02*
X121349694Y-68375514D01*
X121349694Y-68375514D02*
X121306745Y-68360485D01*
X121306745Y-68360485D02*
X121268217Y-68336277D01*
X122334404Y-68286277D02*
X122295876Y-68310485D01*
X123108676Y-68310485D02*
X123065727Y-68325514D01*
X124600894Y-68325514D02*
X124557945Y-68310485D01*
X122410911Y-68127408D02*
X122405816Y-68172625D01*
X122410911Y-67712912D02*
X122410911Y-68127408D01*
X124487242Y-68254102D02*
X124463034Y-68215574D01*
X124463034Y-68215574D02*
X124448005Y-68172625D01*
X124448005Y-68172625D02*
X124442911Y-68127408D01*
X124442911Y-68127408D02*
X124442911Y-67712912D01*
X124124767Y-67572452D02*
X124095208Y-67591026D01*
X124095208Y-67591026D02*
X124070523Y-67615711D01*
X122119545Y-68310485D02*
X122081017Y-68286277D01*
X122081017Y-68286277D02*
X122048842Y-68254102D01*
X121186616Y-68026795D02*
X121171587Y-67983846D01*
X121171587Y-67983846D02*
X121147379Y-67945318D01*
X124442911Y-67712912D02*
X124439002Y-67678221D01*
X121602019Y-67678221D02*
X121598111Y-67712912D01*
X121598111Y-67712912D02*
X121598111Y-68177408D01*
X124439002Y-67678221D02*
X124427472Y-67645270D01*
X124427472Y-67645270D02*
X124408898Y-67615711D01*
X124408898Y-67615711D02*
X124384213Y-67591026D01*
X122252927Y-68325514D02*
X122207711Y-68330608D01*
X124384213Y-67591026D02*
X124354654Y-67572452D01*
X121656808Y-67591026D02*
X121632123Y-67615711D01*
X123508903Y-67560922D02*
X123474213Y-67557014D01*
X121686367Y-67572452D02*
X121656808Y-67591026D01*
X122444923Y-67615711D02*
X122426349Y-67645270D01*
X124354654Y-67572452D02*
X124321703Y-67560922D01*
X124321703Y-67560922D02*
X124287013Y-67557014D01*
X124287013Y-67557014D02*
X124192409Y-67557014D01*
X123630111Y-67712912D02*
X123626202Y-67678221D01*
X123630111Y-68127408D02*
X123630111Y-67712912D01*
X124070523Y-67615711D02*
X124051949Y-67645270D01*
X124051949Y-67645270D02*
X124040419Y-67678221D01*
X124192409Y-67557014D02*
X124157718Y-67560922D01*
X124157718Y-67560922D02*
X124124767Y-67572452D01*
X123147204Y-68286277D02*
X123108676Y-68310485D01*
X124040419Y-67678221D02*
X124036511Y-67712912D01*
X124036511Y-67712912D02*
X124036511Y-68127408D01*
X124036511Y-68127408D02*
X124031416Y-68172625D01*
X124031416Y-68172625D02*
X124016387Y-68215574D01*
X123960004Y-68286277D02*
X123921476Y-68310485D01*
X122004511Y-67712912D02*
X122000602Y-67678221D01*
X122000602Y-67678221D02*
X121989072Y-67645270D01*
X121989072Y-67645270D02*
X121970498Y-67615711D01*
X121970498Y-67615711D02*
X121945813Y-67591026D01*
X123833311Y-68330608D02*
X123788094Y-68325514D01*
X123878527Y-68325514D02*
X123833311Y-68330608D01*
X123745145Y-68310485D02*
X123706617Y-68286277D01*
X123788094Y-68325514D02*
X123745145Y-68310485D01*
X122801872Y-67645270D02*
X122783298Y-67615711D01*
X123635205Y-68172625D02*
X123630111Y-68127408D01*
X123650234Y-68215574D02*
X123635205Y-68172625D01*
X123626202Y-67678221D02*
X123614672Y-67645270D01*
X123614672Y-67645270D02*
X123596098Y-67615711D01*
X123596098Y-67615711D02*
X123571413Y-67591026D01*
X123541854Y-67572452D02*
X123508903Y-67560922D01*
X123379609Y-67557014D02*
X123344918Y-67560922D01*
X123474213Y-67557014D02*
X123379609Y-67557014D01*
X121916254Y-67572452D02*
X121883303Y-67560922D01*
X122696103Y-67560922D02*
X122661413Y-67557014D01*
X123311967Y-67572452D02*
X123282408Y-67591026D01*
X123344918Y-67560922D02*
X123311967Y-67572452D01*
X122661413Y-67557014D02*
X122566809Y-67557014D01*
X123257723Y-67615711D02*
X123239149Y-67645270D01*
X123282408Y-67591026D02*
X123257723Y-67615711D01*
X123239149Y-67645270D02*
X123227619Y-67678221D01*
X123227619Y-67678221D02*
X123223711Y-67712912D01*
X123203587Y-68215574D02*
X123179379Y-68254102D01*
X123218616Y-68172625D02*
X123203587Y-68215574D01*
X123223711Y-67712912D02*
X123223711Y-68127408D01*
X123223711Y-68127408D02*
X123218616Y-68172625D01*
X123179379Y-68254102D02*
X123147204Y-68286277D01*
X122975294Y-68325514D02*
X122932345Y-68310485D01*
X123020511Y-68330608D02*
X122975294Y-68325514D01*
X123065727Y-68325514D02*
X123020511Y-68330608D01*
X122366579Y-68254102D02*
X122334404Y-68286277D01*
X121521604Y-68336277D02*
X121483076Y-68360485D01*
X122469608Y-67591026D02*
X122444923Y-67615711D01*
X122893817Y-68286277D02*
X122861642Y-68254102D01*
X122932345Y-68310485D02*
X122893817Y-68286277D01*
X122837434Y-68215574D02*
X122822405Y-68172625D01*
X122861642Y-68254102D02*
X122837434Y-68215574D01*
X122729054Y-67572452D02*
X122696103Y-67560922D01*
X122817311Y-68127408D02*
X122817311Y-67712912D01*
X122822405Y-68172625D02*
X122817311Y-68127408D01*
X121191711Y-68177408D02*
X121191711Y-68072011D01*
X122813402Y-67678221D02*
X122801872Y-67645270D01*
X122566809Y-67557014D02*
X122532118Y-67560922D01*
X122426349Y-67645270D02*
X122414819Y-67678221D01*
X121147379Y-67945318D02*
X121115204Y-67913143D01*
X121115204Y-67913143D02*
X121076676Y-67888935D01*
X122414819Y-67678221D02*
X122410911Y-67712912D01*
X122295876Y-68310485D02*
X122252927Y-68325514D01*
X122207711Y-68330608D02*
X122162494Y-68325514D01*
X122162494Y-68325514D02*
X122119545Y-68310485D01*
X122048842Y-68254102D02*
X122024634Y-68215574D01*
X122024634Y-68215574D02*
X122009605Y-68172625D01*
X122009605Y-68172625D02*
X122004511Y-68127408D01*
X122004511Y-68127408D02*
X122004511Y-67712912D01*
X121945813Y-67591026D02*
X121916254Y-67572452D01*
X121632123Y-67615711D02*
X121613549Y-67645270D01*
X121613549Y-67645270D02*
X121602019Y-67678221D01*
X121598111Y-68177408D02*
X121593016Y-68222625D01*
X121593016Y-68222625D02*
X121577987Y-68265574D01*
X121553779Y-68304102D02*
X121521604Y-68336277D01*
X121483076Y-68360485D02*
X121440127Y-68375514D01*
X121211834Y-68265574D02*
X121196805Y-68222625D01*
X121196805Y-68222625D02*
X121191711Y-68177408D01*
X121191711Y-68072011D02*
X121186616Y-68026795D01*
D39*
X120988511Y-67868811D02*
X119979429Y-67868811D01*
X119447052Y-68120537D02*
X119447052Y-68260861D01*
X119979429Y-67868811D02*
X119870220Y-67978020D01*
X119870220Y-67978020D02*
X119589571Y-67978019D01*
X119517214Y-68331023D02*
X119516666Y-68331574D01*
X119516666Y-68331574D02*
X119551474Y-68366382D01*
X119551475Y-68435994D02*
X119338245Y-68649225D01*
X119589571Y-67978019D02*
X119447052Y-68120537D01*
X119447052Y-68260861D02*
X119517214Y-68331023D01*
X119551474Y-68366382D02*
X119551475Y-68435994D01*
X119338245Y-68649225D02*
X119268633Y-68649224D01*
X119268633Y-68649224D02*
X119199019Y-68649225D01*
X119199019Y-68649225D02*
X118906028Y-68942212D01*
X118906028Y-68942212D02*
X118478114Y-69370126D01*
X118478114Y-69370126D02*
X118191063Y-69370126D01*
X118191063Y-69370126D02*
X118173310Y-69387879D01*
D41*
X117454890Y-70249983D02*
X117440705Y-70232195D01*
X118163400Y-71012590D02*
X118163401Y-70989838D01*
X118723201Y-70372425D02*
X118709016Y-70354638D01*
X117440705Y-70232195D02*
X117430834Y-70211697D01*
X117990598Y-71216741D02*
X118134281Y-71073057D01*
X118084600Y-73652400D02*
X118084600Y-72796400D01*
X118148466Y-70947160D02*
X118134281Y-70929373D01*
X118084600Y-72796400D02*
X117221000Y-71932800D01*
X118158338Y-70967657D02*
X118148466Y-70947160D01*
X118733073Y-70392922D02*
X118723201Y-70372425D01*
X118134281Y-71073057D02*
X118148467Y-71055268D01*
X117221000Y-71932800D02*
X117221000Y-71628000D01*
X118504866Y-70671126D02*
X118527047Y-70666063D01*
X118439436Y-70656192D02*
X118459935Y-70666062D01*
X117221000Y-71628000D02*
X117017800Y-71424800D01*
X117703974Y-69938559D02*
X117724472Y-69948430D01*
X118134594Y-71041395D02*
X118163400Y-71012590D01*
X118134281Y-70929373D02*
X117454890Y-70249983D01*
X117017800Y-71424800D02*
X117043200Y-71399400D01*
X117043200Y-71399400D02*
X117043200Y-71170800D01*
X118148467Y-71055268D02*
X118134594Y-71041395D01*
X117043200Y-71170800D02*
X117170200Y-71043800D01*
X117972811Y-71230926D02*
X117990598Y-71216741D01*
X117430834Y-70144584D02*
X117440705Y-70124086D01*
X117170200Y-71043800D02*
X117401080Y-71043800D01*
X117401080Y-71043800D02*
X117603140Y-71245860D01*
X117440705Y-70124086D02*
X117454890Y-70106299D01*
X117636861Y-69938559D02*
X117659042Y-69933496D01*
X117603140Y-71245860D02*
X117930131Y-71245861D01*
X117930131Y-71245861D02*
X117952312Y-71240798D01*
X118723202Y-70480533D02*
X118733072Y-70460036D01*
X117598575Y-69962615D02*
X117616363Y-69948430D01*
X117952312Y-71240798D02*
X117972811Y-71230926D01*
X118000506Y-69614780D02*
X118000506Y-69592029D01*
X118163401Y-70989838D02*
X118158338Y-70967657D01*
X117425771Y-70166765D02*
X117430834Y-70144584D01*
X117430834Y-70211697D02*
X117425771Y-70189516D01*
X117724472Y-69948430D02*
X117742259Y-69962615D01*
X117425771Y-70189516D02*
X117425771Y-70166765D01*
X117454890Y-70106299D02*
X117598575Y-69962615D01*
X117616363Y-69948430D02*
X117636861Y-69938559D01*
X117659042Y-69933496D02*
X117681793Y-69933496D01*
X117681793Y-69933496D02*
X117703974Y-69938559D01*
X117742259Y-69962615D02*
X118421649Y-70642006D01*
X118421649Y-70642006D02*
X118439436Y-70656192D01*
X118459935Y-70666062D02*
X118482116Y-70671125D01*
X118482116Y-70671125D02*
X118504866Y-70671126D01*
X118527047Y-70666063D02*
X118547546Y-70656191D01*
X118547546Y-70656191D02*
X118565333Y-70642006D01*
X118733072Y-70460036D02*
X118738135Y-70437855D01*
X118565333Y-70642006D02*
X118709016Y-70498322D01*
X118709016Y-70498322D02*
X118723202Y-70480533D01*
X118000506Y-69592029D02*
X118005569Y-69569848D01*
X118738136Y-70415103D02*
X118733073Y-70392922D01*
X118738135Y-70437855D02*
X118738136Y-70415103D01*
X118709016Y-70354638D02*
X118029625Y-69675247D01*
X118029625Y-69675247D02*
X118015440Y-69657459D01*
X118015440Y-69657459D02*
X118005569Y-69636961D01*
X118005569Y-69636961D02*
X118000506Y-69614780D01*
X118005569Y-69569848D02*
X118015440Y-69549350D01*
X118015440Y-69549350D02*
X118029625Y-69531563D01*
X118029625Y-69531563D02*
X118173310Y-69387879D01*
D39*
X129922893Y-69471001D02*
X129477893Y-69026001D01*
X130407600Y-69476000D02*
X130402601Y-69471001D01*
X130402601Y-69471001D02*
X129922893Y-69471001D01*
D41*
X119354600Y-66352400D02*
X119354600Y-67589400D01*
X119354600Y-67589400D02*
X116179600Y-70764400D01*
X119781664Y-74707201D02*
X120446801Y-74042064D01*
X128492014Y-69189622D02*
X129328392Y-70026000D01*
X116179600Y-70764400D02*
X116179600Y-74616042D01*
X116798503Y-74752144D02*
X117159971Y-75113612D01*
X116179600Y-74616042D02*
X116315702Y-74752144D01*
X120446801Y-74042064D02*
X120446801Y-71035808D01*
X120446801Y-71035808D02*
X122292987Y-69189622D01*
X116315702Y-74752144D02*
X116798503Y-74752144D01*
X119203192Y-74707201D02*
X119781664Y-74707201D01*
X117159971Y-75113612D02*
X118796781Y-75113612D01*
X118796781Y-75113612D02*
X119203192Y-74707201D01*
X122292987Y-69189622D02*
X128492014Y-69189622D01*
D38*
X130407600Y-70276000D02*
X129887600Y-70276000D01*
X129887600Y-70276000D02*
X129578392Y-70276000D01*
D39*
X129578392Y-70276000D02*
X129328392Y-70026000D01*
D41*
X119354600Y-66802400D02*
X119354600Y-66352400D01*
D38*
X130407600Y-71876000D02*
X129887600Y-71876000D01*
X129887600Y-71876000D02*
X129030200Y-71876000D01*
D39*
X129030200Y-71876000D02*
X128692600Y-72213600D01*
X128692600Y-72213600D02*
X128117600Y-72213600D01*
D40*
X101362000Y-68915000D02*
X101362000Y-67665000D01*
X100153560Y-66456560D02*
X99014280Y-66456560D01*
X101362000Y-67665000D02*
X100153560Y-66456560D01*
X105093622Y-72308720D02*
X105740200Y-72308720D01*
X105075301Y-72308720D02*
X105093622Y-72308720D01*
X106197399Y-71851521D02*
X105740200Y-72308720D01*
X108864400Y-70600800D02*
X108497600Y-70967600D01*
X108497600Y-70967600D02*
X107081320Y-70967600D01*
X107081320Y-70967600D02*
X106197399Y-71851521D01*
X119354600Y-73652400D02*
X119354600Y-72517000D01*
X119354600Y-72517000D02*
X119684800Y-72186800D01*
X101541800Y-78041600D02*
X99936200Y-78041600D01*
X99936200Y-78041600D02*
X99923600Y-78054200D01*
X97441800Y-78041600D02*
X97391800Y-78041600D01*
X97391800Y-78041600D02*
X96418400Y-79015000D01*
X104876600Y-76669200D02*
X105505600Y-76669200D01*
X105505600Y-76669200D02*
X106207700Y-77371300D01*
X106207700Y-77371300D02*
X107013100Y-77371300D01*
X125134000Y-77400762D02*
X125134000Y-77706400D01*
X124203799Y-76470561D02*
X125134000Y-77400762D01*
X123889769Y-75307683D02*
X124203799Y-75621713D01*
X124203799Y-75621713D02*
X124203799Y-76470561D01*
X123889769Y-74661105D02*
X123889769Y-75307683D01*
X127882000Y-78432909D02*
X127578308Y-78736601D01*
X128536000Y-77419200D02*
X128511000Y-77419200D01*
X128511000Y-77419200D02*
X127882000Y-78048200D01*
X127882000Y-78048200D02*
X127882000Y-78432909D01*
X127578308Y-78736601D02*
X126064201Y-78736601D01*
X126064201Y-78736601D02*
X125134000Y-77806400D01*
X125134000Y-77806400D02*
X125134000Y-77706400D01*
X113885631Y-78971477D02*
X113933658Y-79019504D01*
X113933658Y-79019504D02*
X114390857Y-79476703D01*
X113284000Y-78920600D02*
X113686185Y-78920600D01*
X113686185Y-78920600D02*
X113737062Y-78971477D01*
X113737062Y-78971477D02*
X113885631Y-78971477D01*
X116777200Y-64312800D02*
X117496569Y-64312800D01*
X117496569Y-64312800D02*
X117664007Y-64145362D01*
X128282000Y-66344800D02*
X127158485Y-66344800D01*
X127158485Y-66344800D02*
X127078697Y-66265012D01*
X140577000Y-68439590D02*
X140766790Y-68249800D01*
X140577000Y-69596000D02*
X140577000Y-68439590D01*
X125209000Y-73660000D02*
X124890874Y-73660000D01*
X124890874Y-73660000D02*
X124346968Y-74203906D01*
X124346968Y-74203906D02*
X123889769Y-74661105D01*
X125234000Y-73660000D02*
X125209000Y-73660000D01*
X134245792Y-78619608D02*
X134245792Y-78781375D01*
X134493000Y-78372400D02*
X134245792Y-78619608D01*
X125209000Y-73660000D02*
X124155200Y-74713800D01*
X135890000Y-82550000D02*
X137414000Y-82550000D01*
X137414000Y-82550000D02*
X137490200Y-82473800D01*
X113639600Y-65379600D02*
X113639600Y-64324800D01*
X113639600Y-66560000D02*
X113639600Y-65379600D01*
X108864400Y-67691000D02*
X109499400Y-67056000D01*
X108864400Y-69816800D02*
X108864400Y-67691000D01*
X109270000Y-71006400D02*
X108864400Y-70600800D01*
X108864400Y-70600800D02*
X108864400Y-69816800D01*
X104851200Y-76669200D02*
X105474200Y-76669200D01*
X105474200Y-76669200D02*
X105892600Y-76250800D01*
X108484000Y-77420600D02*
X107880000Y-77420600D01*
X107880000Y-77420600D02*
X107830700Y-77371300D01*
X107830700Y-77371300D02*
X107013100Y-77371300D01*
X107013100Y-77371300D02*
X106349799Y-76707999D01*
X106349799Y-76707999D02*
X105892600Y-76250800D01*
X113639600Y-64324800D02*
X113627600Y-64312800D01*
X128536000Y-77419200D02*
X128536000Y-75742800D01*
X128536000Y-75742800D02*
X128524000Y-75730800D01*
X95567500Y-73690000D02*
X97058000Y-73690000D01*
X97058000Y-73690000D02*
X97180400Y-73812400D01*
X95342500Y-75790000D02*
X95342500Y-73915000D01*
X95342500Y-73915000D02*
X95567500Y-73690000D01*
X102209600Y-73525200D02*
X102209600Y-72682800D01*
X102209600Y-72682800D02*
X102959600Y-71932800D01*
X128282000Y-64973200D02*
X128282000Y-66344800D01*
X128117600Y-72213600D02*
X126758000Y-72213600D01*
X126758000Y-72213600D02*
X126695200Y-72276400D01*
X125234000Y-73660000D02*
X125234000Y-72315200D01*
X125234000Y-72315200D02*
X125272800Y-72276400D01*
X126695200Y-72276400D02*
X125272800Y-72276400D01*
X126945600Y-72026000D02*
X126695200Y-72276400D01*
X126834000Y-75506400D02*
X126834000Y-75756400D01*
X126834000Y-75756400D02*
X125134000Y-77456400D01*
X125134000Y-77456400D02*
X125134000Y-77706400D01*
X132763850Y-70632250D02*
X132763850Y-71919750D01*
X134051350Y-71919750D02*
X132763850Y-70632250D01*
X132763850Y-71919750D02*
X134051350Y-71919750D01*
X134051350Y-71919750D02*
X134051350Y-70632250D01*
X140577000Y-69596000D02*
X140577000Y-70993000D01*
X101459600Y-69012600D02*
X101362000Y-68915000D01*
D38*
X130407600Y-71076000D02*
X129887600Y-71076000D01*
X129887600Y-71076000D02*
X129883050Y-71071450D01*
X129883050Y-71071450D02*
X129517012Y-71071450D01*
X132007600Y-68276000D02*
X132007600Y-67756000D01*
X132007600Y-67756000D02*
X132007600Y-67410204D01*
X137444161Y-71476000D02*
X136407600Y-71476000D01*
X135207600Y-74801000D02*
X135207600Y-74276000D01*
X133657600Y-75280000D02*
X133607600Y-75230000D01*
X133607600Y-75230000D02*
X133607600Y-74276000D01*
D39*
X132007600Y-67410204D02*
X131657600Y-67060204D01*
X137979060Y-71699200D02*
X138007627Y-71727767D01*
X137667361Y-71699200D02*
X137979060Y-71699200D01*
X137444161Y-71476000D02*
X137667361Y-71699200D01*
X138317233Y-71727767D02*
X139052000Y-70993000D01*
X138007627Y-71727767D02*
X138317233Y-71727767D01*
X139052000Y-70993000D02*
X139077000Y-70993000D01*
X129519925Y-71074363D02*
X129517012Y-71071450D01*
X129517012Y-71071450D02*
X128475450Y-71071450D01*
X128475450Y-71071450D02*
X128450050Y-71046050D01*
X128450050Y-71046050D02*
X128117600Y-70713600D01*
X135207600Y-74801000D02*
X135657600Y-75251000D01*
X135657600Y-75251000D02*
X135657600Y-75280000D01*
D40*
X114398553Y-71881999D02*
X112609799Y-71881999D01*
X114858801Y-72342247D02*
X114398553Y-71881999D01*
X114858801Y-74545953D02*
X114858801Y-72342247D01*
X115903214Y-75590366D02*
X114858801Y-74545953D01*
X116451302Y-75590366D02*
X115903214Y-75590366D01*
X120365849Y-75545423D02*
X122650602Y-73260670D01*
X122691709Y-71288748D02*
X123148908Y-70831549D01*
X122650602Y-71329855D02*
X122691709Y-71288748D01*
X122650602Y-73260670D02*
X122650602Y-71329855D01*
X119550393Y-75545423D02*
X120365849Y-75545423D01*
X119143982Y-75951834D02*
X119550393Y-75545423D01*
X116814600Y-75951834D02*
X119143982Y-75951834D01*
X123606107Y-70374350D02*
X123148908Y-70831549D01*
X123753867Y-70226590D02*
X123606107Y-70374350D01*
X123753867Y-70192200D02*
X123753867Y-70226590D01*
X123850400Y-70192200D02*
X123753867Y-70192200D01*
X128117600Y-70713600D02*
X128117600Y-70688600D01*
X128117600Y-70688600D02*
X127475199Y-70046199D01*
X127475199Y-70046199D02*
X124675001Y-70046199D01*
X124675001Y-70046199D02*
X124675001Y-70071599D01*
X124675001Y-70071599D02*
X124554400Y-70192200D01*
X124554400Y-70192200D02*
X123850400Y-70192200D01*
X123825000Y-70192200D02*
X123753867Y-70192200D01*
X135813766Y-76180634D02*
X135813766Y-75436166D01*
X134493000Y-76872400D02*
X135122000Y-76872400D01*
X135813766Y-75436166D02*
X135657600Y-75280000D01*
X135122000Y-76872400D02*
X135813766Y-76180634D01*
X111517600Y-70789800D02*
X111492600Y-70789800D01*
X112609799Y-71881999D02*
X111517600Y-70789800D01*
X116812770Y-75951834D02*
X116451302Y-75590366D01*
X116814600Y-75951834D02*
X116812770Y-75951834D01*
X109814400Y-72016800D02*
X110265600Y-72016800D01*
X110265600Y-72016800D02*
X111492600Y-70789800D01*
X125712402Y-65747035D02*
X125377716Y-65412349D01*
X127776238Y-64109600D02*
X126888784Y-64997054D01*
X125377716Y-65412349D02*
X124920517Y-64955150D01*
X128893400Y-64109600D02*
X127776238Y-64109600D01*
X126888784Y-64997054D02*
X126888784Y-65337350D01*
X129757000Y-64973200D02*
X128893400Y-64109600D01*
X129782000Y-64973200D02*
X129757000Y-64973200D01*
X126888784Y-65337350D02*
X126479099Y-65747035D01*
X126479099Y-65747035D02*
X125712402Y-65747035D01*
X139280157Y-77077000D02*
X139344358Y-77012799D01*
X139344358Y-77012799D02*
X139801557Y-76555600D01*
X138303000Y-77077000D02*
X139280157Y-77077000D01*
X116814600Y-75951834D02*
X117553988Y-75951834D01*
X134493000Y-76897400D02*
X134373512Y-76897400D01*
X140487434Y-73032434D02*
X140487434Y-73902422D01*
X140487434Y-73902422D02*
X140487434Y-74549000D01*
X139077000Y-71622000D02*
X140487434Y-73032434D01*
X130436000Y-65756626D02*
X131233858Y-66554484D01*
X131233858Y-66554484D02*
X131233858Y-66636462D01*
X131233858Y-66636462D02*
X131657600Y-67060204D01*
X130436000Y-65602200D02*
X130436000Y-65756626D01*
X129807000Y-64973200D02*
X130436000Y-65602200D01*
X129782000Y-64973200D02*
X129807000Y-64973200D01*
X129782000Y-64643000D02*
X129757000Y-64643000D01*
X129807000Y-64643000D02*
X129782000Y-64643000D01*
X139077000Y-71622000D02*
X139077000Y-70993000D01*
X134493000Y-76872400D02*
X134493000Y-76897400D01*
X134493000Y-76897400D02*
X136069600Y-78474000D01*
X136069600Y-78474000D02*
X136398000Y-78474000D01*
X134493000Y-76872400D02*
X133883401Y-76262801D01*
X133883401Y-76262801D02*
X133883401Y-75505801D01*
X133883401Y-75505801D02*
X133657600Y-75280000D01*
X136398000Y-78474000D02*
X136906000Y-78474000D01*
X136906000Y-78474000D02*
X138303000Y-77077000D01*
D38*
X130407600Y-71476000D02*
X129353600Y-71476000D01*
X129353600Y-71476000D02*
X129350660Y-71473060D01*
D41*
X126695200Y-70776400D02*
X126695200Y-70801400D01*
X126695200Y-70801400D02*
X127366860Y-71473060D01*
X127366860Y-71473060D02*
X129350660Y-71473060D01*
X125272800Y-70776400D02*
X124766200Y-70776400D01*
X124766200Y-70776400D02*
X123850400Y-71692200D01*
X126695200Y-70776400D02*
X125272800Y-70776400D01*
D38*
X134807600Y-74276000D02*
X134807600Y-75612505D01*
X134807600Y-75612505D02*
X135026356Y-75831261D01*
D41*
X135157600Y-75700017D02*
X135026356Y-75831261D01*
X136398000Y-76974000D02*
X136398000Y-76106878D01*
X136398000Y-76106878D02*
X136601168Y-75903710D01*
X121832344Y-76341996D02*
X122289543Y-75884797D01*
X121832344Y-76963175D02*
X121832344Y-76341996D01*
X120954800Y-77840719D02*
X121832344Y-76963175D01*
X120954800Y-77994800D02*
X120954800Y-77840719D01*
X120954800Y-78044800D02*
X117120162Y-78044800D01*
X115910361Y-76834999D02*
X114957527Y-76834999D01*
X117120162Y-78044800D02*
X115910361Y-76834999D01*
X114957527Y-76834999D02*
X114575946Y-77216580D01*
X101541800Y-79641600D02*
X102739800Y-79641600D01*
X102739800Y-79641600D02*
X103301800Y-79079600D01*
X103301800Y-79079600D02*
X103301800Y-78626400D01*
X100418800Y-79641600D02*
X100380800Y-79603600D01*
X101541800Y-79641600D02*
X100418800Y-79641600D01*
X97790000Y-82550000D02*
X97790000Y-79989800D01*
X97790000Y-79989800D02*
X97441800Y-79641600D01*
X113374022Y-72669400D02*
X114020600Y-72669400D01*
X112154822Y-72669400D02*
X113374022Y-72669400D01*
X110860838Y-72262998D02*
X111748420Y-72262998D01*
X111748420Y-72262998D02*
X112154822Y-72669400D01*
X109641034Y-73207212D02*
X109916624Y-73207212D01*
X109916624Y-73207212D02*
X110860838Y-72262998D01*
X114371926Y-77420600D02*
X114575946Y-77216580D01*
X113284000Y-77420600D02*
X114371926Y-77420600D01*
X120954800Y-78044800D02*
X120954800Y-77994800D01*
D38*
X130407600Y-72676000D02*
X129676351Y-72676000D01*
X129676351Y-72676000D02*
X129676331Y-72676020D01*
D39*
X129676331Y-72676020D02*
X129326351Y-73026000D01*
D41*
X128524000Y-73828351D02*
X128524000Y-74230800D01*
X129326351Y-73026000D02*
X128524000Y-73828351D01*
X126834000Y-77464128D02*
X126834000Y-77706400D01*
X127738801Y-76559327D02*
X126834000Y-77464128D01*
X127738801Y-75040999D02*
X127738801Y-76559327D01*
X128524000Y-74255800D02*
X127738801Y-75040999D01*
X128524000Y-74230800D02*
X128524000Y-74255800D01*
D38*
X130407600Y-72276000D02*
X129501600Y-72276000D01*
D39*
X129501600Y-72276000D02*
X129056409Y-72721191D01*
D41*
X126734000Y-73660000D02*
X127140400Y-73253600D01*
X127140400Y-73253600D02*
X128524000Y-73253600D01*
X128524000Y-73253600D02*
X129056409Y-72721191D01*
X125134000Y-75506400D02*
X125134000Y-75235000D01*
X125134000Y-75235000D02*
X126709000Y-73660000D01*
X126709000Y-73660000D02*
X126734000Y-73660000D01*
D40*
X98628198Y-74117200D02*
X98628198Y-74776598D01*
X98628198Y-74776598D02*
X99161600Y-75310000D01*
X101259600Y-75725200D02*
X99753600Y-75725200D01*
X99161600Y-75310000D02*
X99237799Y-75233801D01*
X99237799Y-75233801D02*
X99237799Y-75209399D01*
X111957950Y-66981230D02*
X112604528Y-66981230D01*
X111798559Y-66981230D02*
X111957950Y-66981230D01*
X111241999Y-67537790D02*
X111798559Y-66981230D01*
X111241999Y-68968201D02*
X111241999Y-67537790D01*
X109814400Y-69816800D02*
X110393400Y-69816800D01*
X112604528Y-66919128D02*
X112604528Y-66981230D01*
X110393400Y-69816800D02*
X111241999Y-68968201D01*
X111897200Y-66211800D02*
X112604528Y-66919128D01*
X111897200Y-66006800D02*
X111897200Y-66211800D01*
X112127600Y-64312800D02*
X112127600Y-63132400D01*
X112127600Y-63132400D02*
X113030000Y-62230000D01*
X110884400Y-64312800D02*
X110884400Y-64112800D01*
X110884400Y-64112800D02*
X112767200Y-62230000D01*
X112767200Y-62230000D02*
X113030000Y-62230000D01*
X111897200Y-66006800D02*
X111897200Y-64543200D01*
X111897200Y-64543200D02*
X112127600Y-64312800D01*
X95567500Y-71090000D02*
X96804000Y-71090000D01*
X96804000Y-71090000D02*
X97078800Y-70815200D01*
D41*
X108484000Y-80111000D02*
X108254800Y-80340200D01*
X108484000Y-79420600D02*
X108484000Y-80111000D01*
X106781600Y-79617000D02*
X105412135Y-79617000D01*
X105412135Y-79617000D02*
X104973216Y-80055919D01*
X108484000Y-78920600D02*
X107024800Y-78920600D01*
X107024800Y-78920600D02*
X106781600Y-79163800D01*
X106781600Y-79163800D02*
X106781600Y-79617000D01*
X104931319Y-80055919D02*
X104973216Y-80055919D01*
D40*
X107950000Y-62230000D02*
X107950000Y-65379600D01*
X107950000Y-65379600D02*
X106923840Y-66405760D01*
X106923840Y-66405760D02*
X104621240Y-66405760D01*
X104621240Y-66405760D02*
X103362000Y-67665000D01*
X103362000Y-67665000D02*
X103362000Y-68915000D01*
X103362000Y-68915000D02*
X103362000Y-70165000D01*
X103362000Y-70165000D02*
X101594200Y-71932800D01*
X101594200Y-71932800D02*
X101459600Y-71932800D01*
X101459600Y-71932800D02*
X101459600Y-73325200D01*
X101459600Y-73325200D02*
X101259600Y-73525200D01*
X99161600Y-72010000D02*
X101382400Y-72010000D01*
X101382400Y-72010000D02*
X101459600Y-71932800D01*
D41*
X109469000Y-66006800D02*
X107914400Y-67561400D01*
X109997200Y-66006800D02*
X109469000Y-66006800D01*
X107914400Y-69083600D02*
X107914400Y-69816800D01*
X107914400Y-67561400D02*
X107914400Y-69083600D01*
X109384400Y-64312800D02*
X109384400Y-65922200D01*
X109384400Y-65922200D02*
X109469000Y-66006800D01*
X110490000Y-62230000D02*
X109384400Y-63335600D01*
X109384400Y-63335600D02*
X109384400Y-64312800D01*
D39*
X132807600Y-68276000D02*
X132807600Y-67599532D01*
X132807600Y-67599532D02*
X131767269Y-66559201D01*
D41*
X124526313Y-63384801D02*
X125643946Y-64502434D01*
X125643946Y-64502434D02*
X126101145Y-64959633D01*
X118031210Y-63384801D02*
X124526313Y-63384801D01*
X118029769Y-63383360D02*
X118031210Y-63384801D01*
X116723360Y-63383360D02*
X118029769Y-63383360D01*
X115570000Y-62230000D02*
X116723360Y-63383360D01*
X131767269Y-66559201D02*
X131767269Y-65760589D01*
X131767269Y-65760589D02*
X131310070Y-65303390D01*
X95859600Y-65836800D02*
X95859600Y-66026400D01*
X95859600Y-66026400D02*
X94830000Y-67056000D01*
X103159600Y-73525200D02*
X103159600Y-73320200D01*
X103159600Y-73320200D02*
X104719120Y-71760680D01*
X104719120Y-71760680D02*
X104719120Y-71241275D01*
X104719120Y-71241275D02*
X105226533Y-70733862D01*
X105226533Y-70733862D02*
X105873111Y-70733862D01*
X98425000Y-76504800D02*
X97180400Y-75260200D01*
X97180400Y-75260200D02*
X97180400Y-74942000D01*
X97180400Y-75145200D02*
X97380400Y-75145200D01*
X98425000Y-76189800D02*
X98425000Y-76504800D01*
X93130000Y-67056000D02*
X93633200Y-67056000D01*
X95627199Y-67760801D02*
X96828000Y-66560000D01*
X93633200Y-67056000D02*
X94338001Y-67760801D01*
X94338001Y-67760801D02*
X95627199Y-67760801D01*
X96828000Y-66560000D02*
X97028000Y-66560000D01*
X95490400Y-77624000D02*
X95490400Y-77724000D01*
X95993600Y-77120800D02*
X95490400Y-77624000D01*
X96093600Y-77120800D02*
X95993600Y-77120800D01*
X96772400Y-76442000D02*
X96093600Y-77120800D01*
X97180400Y-76442000D02*
X96772400Y-76442000D01*
X103852800Y-75725200D02*
X104383800Y-75194200D01*
X104383800Y-75194200D02*
X105714800Y-75194200D01*
X103159600Y-75725200D02*
X103852800Y-75725200D01*
X103458800Y-75426000D02*
X103159600Y-75725200D01*
D39*
X134807600Y-68276000D02*
X134807600Y-65686526D01*
X134807600Y-65686526D02*
X135368539Y-65125587D01*
D41*
X141567858Y-67884038D02*
X141567858Y-73926911D01*
X138809407Y-65125587D02*
X141567858Y-67884038D01*
X134199999Y-81700001D02*
X133350000Y-82550000D01*
X136818895Y-81026000D02*
X134874000Y-81026000D01*
X138219697Y-79625199D02*
X136818895Y-81026000D01*
X139660216Y-79625199D02*
X138219697Y-79625199D01*
X141782800Y-77502615D02*
X139660216Y-79625199D01*
X141782800Y-74141853D02*
X141782800Y-77502615D01*
X134874000Y-81026000D02*
X134199999Y-81700001D01*
X141567858Y-73926911D02*
X141782800Y-74141853D01*
X135368539Y-65125587D02*
X138809407Y-65125587D01*
X111087993Y-73187163D02*
X111087993Y-73669362D01*
X111087993Y-73669362D02*
X111119274Y-73700643D01*
X111119274Y-73700643D02*
X111119274Y-75255874D01*
X111119274Y-75255874D02*
X111134000Y-75270600D01*
X133096000Y-82296000D02*
X133350000Y-82550000D01*
D39*
X135207600Y-65877492D02*
X135553094Y-65531998D01*
X135207600Y-68276000D02*
X135207600Y-65877492D01*
D41*
X110357273Y-74066404D02*
X110634000Y-74343131D01*
X110634000Y-74343131D02*
X110634000Y-75270600D01*
X132029157Y-81330844D02*
X131659999Y-81700001D01*
X131659999Y-81700001D02*
X130810000Y-82550000D01*
X134708832Y-80518000D02*
X133895988Y-81330844D01*
X133895988Y-81330844D02*
X132029157Y-81330844D01*
X138051356Y-79218788D02*
X136752144Y-80518000D01*
X136752144Y-80518000D02*
X134708832Y-80518000D01*
X141376389Y-77334275D02*
X139491876Y-79218788D01*
X139491876Y-79218788D02*
X138051356Y-79218788D01*
X141376389Y-74310193D02*
X141376389Y-77334275D01*
X141161447Y-74095251D02*
X141376389Y-74310193D01*
X141161447Y-72987847D02*
X141161447Y-74095251D01*
X139781801Y-71608201D02*
X141161447Y-72987847D01*
X139781801Y-69016361D02*
X139781801Y-71608201D01*
X135553094Y-65531998D02*
X138582398Y-65531998D01*
X138582398Y-65531998D02*
X140004789Y-66954389D01*
X140004789Y-66954389D02*
X140004789Y-68793373D01*
X140004789Y-68793373D02*
X139781801Y-69016361D01*
D39*
X132407600Y-75300738D02*
X132224780Y-75483558D01*
X132407600Y-74276000D02*
X132407600Y-75300738D01*
D41*
X132224780Y-77685307D02*
X132372713Y-77833240D01*
X132224780Y-75483558D02*
X132224780Y-77685307D01*
X132372713Y-77833240D02*
X132372713Y-78479818D01*
X113745044Y-75143850D02*
X112760750Y-75143850D01*
X112760750Y-75143850D02*
X112634000Y-75270600D01*
X131492673Y-78343760D02*
X129254056Y-80582377D01*
D39*
X131557610Y-77469150D02*
X131557610Y-77936129D01*
X131559209Y-77937728D02*
X131559209Y-78277224D01*
X131557610Y-77936129D02*
X131559209Y-77937728D01*
X131559209Y-78277224D02*
X131492673Y-78343760D01*
X132007600Y-74276000D02*
X132007600Y-75132776D01*
X132007600Y-75132776D02*
X131823170Y-75317206D01*
X131823170Y-75317206D02*
X131823170Y-77203590D01*
X131823170Y-77203590D02*
X131557610Y-77469150D01*
D41*
X122900563Y-77888673D02*
X122443364Y-77431474D01*
X123416377Y-78404487D02*
X122900563Y-77888673D01*
X123416377Y-78986921D02*
X123416377Y-78404487D01*
X129254056Y-80582377D02*
X125011833Y-80582377D01*
X125011833Y-80582377D02*
X123416377Y-78986921D01*
X114071400Y-73964800D02*
X112886600Y-73964800D01*
X112886600Y-73964800D02*
X112134000Y-74717400D01*
X112134000Y-74717400D02*
X112134000Y-75270600D01*
D39*
X131607600Y-74801000D02*
X131157600Y-75251000D01*
X131607600Y-74276000D02*
X131607600Y-74801000D01*
X131157600Y-75251000D02*
X131157600Y-78104081D01*
D41*
X122089217Y-75007477D02*
X120954799Y-76141895D01*
X122564654Y-75007477D02*
X122089217Y-75007477D01*
X123051547Y-76503732D02*
X123051547Y-75494370D01*
X123822788Y-77274973D02*
X123051547Y-76503732D01*
X123822788Y-78818581D02*
X123822788Y-77274973D01*
X125180173Y-80175966D02*
X123822788Y-78818581D01*
X129085715Y-80175966D02*
X125180173Y-80175966D01*
X131157600Y-78104081D02*
X129085715Y-80175966D01*
X123051547Y-75494370D02*
X122564654Y-75007477D01*
X120954799Y-76141895D02*
X120954799Y-76428599D01*
X120954799Y-76428599D02*
X120497600Y-76885798D01*
X117174094Y-77498581D02*
X119884817Y-77498581D01*
X120040401Y-77342997D02*
X120497600Y-76885798D01*
X119884817Y-77498581D02*
X120040401Y-77342997D01*
X116104101Y-76428588D02*
X117174094Y-77498581D01*
X113284000Y-76420600D02*
X113837200Y-76420600D01*
X113845188Y-76428588D02*
X116104101Y-76428588D01*
X113837200Y-76420600D02*
X113845188Y-76428588D01*
D39*
X130657600Y-75351000D02*
X130657600Y-76790701D01*
X130657600Y-75051000D02*
X130657600Y-75351000D01*
X131207600Y-74501000D02*
X130657600Y-75051000D01*
X131207600Y-74276000D02*
X131207600Y-74501000D01*
D41*
X120544710Y-75977234D02*
X120080156Y-75977234D01*
X120080156Y-75977234D02*
X119801163Y-76256227D01*
X119801163Y-76256227D02*
X119343964Y-76713426D01*
X124229199Y-78534250D02*
X124229199Y-77106633D01*
X124229199Y-77106633D02*
X123457958Y-76335392D01*
X123457958Y-76335392D02*
X123457958Y-75326030D01*
X123457958Y-75326030D02*
X122732994Y-74601066D01*
X122732994Y-74601066D02*
X121920878Y-74601066D01*
X121920878Y-74601066D02*
X120544710Y-75977234D01*
X128917375Y-79769555D02*
X125464504Y-79769555D01*
X125464504Y-79769555D02*
X124229199Y-78534250D01*
X130740801Y-77946129D02*
X128917375Y-79769555D01*
X130740801Y-76873902D02*
X130740801Y-77946129D01*
X130657600Y-76790701D02*
X130740801Y-76873902D01*
X118697386Y-76713426D02*
X119343964Y-76713426D01*
X116963690Y-76713426D02*
X118697386Y-76713426D01*
X116272441Y-76022177D02*
X116963690Y-76713426D01*
X115138177Y-76022177D02*
X116272441Y-76022177D01*
X115036600Y-75920600D02*
X115138177Y-76022177D01*
X113284000Y-75920600D02*
X115036600Y-75920600D01*
D38*
X136407600Y-71876000D02*
X137278462Y-71876000D01*
D39*
X137530238Y-72127776D02*
X138879691Y-72127776D01*
X137278462Y-71876000D02*
X137530238Y-72127776D01*
X138879691Y-72127776D02*
X138941703Y-72189788D01*
D41*
X136583804Y-80111589D02*
X134540492Y-80111589D01*
X133727648Y-80924433D02*
X131357086Y-80924433D01*
X137883016Y-78812377D02*
X136583804Y-80111589D01*
X134540492Y-80111589D02*
X133727648Y-80924433D01*
X139323536Y-78812377D02*
X137883016Y-78812377D01*
X140969978Y-77165935D02*
X139323536Y-78812377D01*
X140969978Y-75894465D02*
X140969978Y-77165935D01*
X131357086Y-80924433D02*
X130886318Y-81395199D01*
X140208701Y-75361788D02*
X140437301Y-75361788D01*
X139725424Y-74878511D02*
X140208701Y-75361788D01*
X140437301Y-75361788D02*
X140969978Y-75894465D01*
X130255695Y-81395199D02*
X129100894Y-82550000D01*
X129100894Y-82550000D02*
X128270000Y-82550000D01*
X138941703Y-72189788D02*
X139725424Y-72973509D01*
X139725424Y-72973509D02*
X139725424Y-74878511D01*
X130886318Y-81395199D02*
X130255695Y-81395199D01*
D38*
X137112763Y-72276000D02*
X136407600Y-72276000D01*
D39*
X137364548Y-72527787D02*
X138704951Y-72527787D01*
X138704951Y-72527787D02*
X138773363Y-72596199D01*
X137112763Y-72276000D02*
X137364548Y-72527787D01*
D41*
X132133531Y-80518022D02*
X130558122Y-80518022D01*
X130558122Y-80518022D02*
X129680945Y-81395199D01*
X129680945Y-81395199D02*
X126884801Y-81395199D01*
X126884801Y-81395199D02*
X126579999Y-81700001D01*
X126579999Y-81700001D02*
X125730000Y-82550000D01*
X137714676Y-78405966D02*
X136415464Y-79705178D01*
X136415464Y-79705178D02*
X132946375Y-79705178D01*
X139129796Y-78405966D02*
X137714676Y-78405966D01*
X140563567Y-76972195D02*
X139129796Y-78405966D01*
X138773363Y-72596199D02*
X139319013Y-73141849D01*
X139319013Y-73141849D02*
X139319013Y-75046851D01*
X139319013Y-75046851D02*
X140040361Y-75768199D01*
X132946375Y-79705178D02*
X132133531Y-80518022D01*
X140563567Y-76062805D02*
X140563567Y-76972195D01*
X140268961Y-75768199D02*
X140563567Y-76062805D01*
X140040361Y-75768199D02*
X140268961Y-75768199D01*
D38*
X136407600Y-71076000D02*
X137885010Y-71076000D01*
X137885010Y-71076000D02*
X138018018Y-70942992D01*
D41*
X138018018Y-70969147D02*
X138018018Y-70942992D01*
X137961165Y-71026000D02*
X138018018Y-70969147D01*
X133023288Y-76388107D02*
X133023288Y-75741529D01*
X132582455Y-79494347D02*
X133452011Y-78624791D01*
X131007049Y-79494347D02*
X132582455Y-79494347D01*
X129512608Y-80988788D02*
X131007049Y-79494347D01*
X133452011Y-76816830D02*
X133023288Y-76388107D01*
X124751212Y-80988788D02*
X129512608Y-80988788D01*
X123190000Y-82550000D02*
X124751212Y-80988788D01*
X133452011Y-78624791D02*
X133452011Y-76816830D01*
D39*
X133607600Y-68276000D02*
X133607600Y-67227609D01*
X133607600Y-67227609D02*
X132587977Y-66207986D01*
D41*
X129119999Y-63079999D02*
X128270000Y-62230000D01*
X132587977Y-66207986D02*
X132587977Y-64488846D01*
X131497509Y-63398378D02*
X130021601Y-63398378D01*
X132587977Y-64488846D02*
X131497509Y-63398378D01*
X130021601Y-63398378D02*
X129703222Y-63079999D01*
X129703222Y-63079999D02*
X129119999Y-63079999D01*
D39*
X134007600Y-68276000D02*
X134007600Y-67751000D01*
X134007600Y-67751000D02*
X134009211Y-67749389D01*
X134009211Y-67749389D02*
X134009211Y-67054469D01*
X134009211Y-67054469D02*
X132994388Y-66039646D01*
D41*
X131010253Y-62230000D02*
X130810000Y-62230000D01*
X132994388Y-66039646D02*
X132994388Y-64214135D01*
X132994388Y-64214135D02*
X131010253Y-62230000D01*
D39*
X134409221Y-67421595D02*
X134409221Y-66702983D01*
X134409221Y-66702983D02*
X133400799Y-65694561D01*
X134407600Y-68276000D02*
X134407600Y-67916699D01*
X134407600Y-67916699D02*
X134409221Y-67915078D01*
X134409221Y-67915078D02*
X134409221Y-67421595D01*
X134409221Y-67421595D02*
X134410821Y-67419995D01*
D41*
X133400799Y-65694561D02*
X133400799Y-63482880D01*
X133400799Y-63482880D02*
X133350000Y-63432081D01*
X133350000Y-63432081D02*
X133350000Y-62230000D01*
D39*
X135607600Y-68276000D02*
X135607600Y-66638196D01*
D41*
X135959810Y-66346826D02*
X135959810Y-66285986D01*
X136157600Y-66544616D02*
X135959810Y-66346826D01*
D39*
X135607600Y-66638196D02*
X135959810Y-66285986D01*
D41*
X134627752Y-64789892D02*
X134170553Y-65247091D01*
X135890000Y-62230000D02*
X135890000Y-63527644D01*
X135890000Y-63527644D02*
X134627752Y-64789892D01*
D39*
X136929634Y-68859647D02*
X136943012Y-68846269D01*
X136943012Y-68846269D02*
X136943012Y-67619193D01*
X136407600Y-69076000D02*
X136742587Y-69076000D01*
X136742587Y-69076000D02*
X136929634Y-68888954D01*
X136929634Y-68888954D02*
X136929634Y-68859647D01*
D41*
X136807600Y-67754605D02*
X136943012Y-67619193D01*
X137769598Y-66913655D02*
X137467421Y-66611478D01*
X137331243Y-69026000D02*
X137769598Y-68587645D01*
X137769598Y-68587645D02*
X137769598Y-66913655D01*
D39*
X137024639Y-69359647D02*
X137331243Y-69053043D01*
X137331243Y-69053043D02*
X137331243Y-69026000D01*
X136957420Y-69476000D02*
X137024639Y-69408781D01*
X136407600Y-69476000D02*
X136957420Y-69476000D01*
X137024639Y-69408781D02*
X137024639Y-69359647D01*
D41*
X138226801Y-67740186D02*
X138567822Y-67399165D01*
X138226801Y-68725447D02*
X138226801Y-67740186D01*
X138567822Y-67399165D02*
X138567822Y-66752587D01*
X137426248Y-69526000D02*
X138226801Y-68725447D01*
D39*
X137426248Y-69585572D02*
X137426248Y-69526000D01*
X137135820Y-69876000D02*
X137426248Y-69585572D01*
X136407600Y-69876000D02*
X137135820Y-69876000D01*
X133207600Y-68276000D02*
X133207600Y-67424782D01*
X133207600Y-67424782D02*
X132181566Y-66398748D01*
D41*
X130589860Y-64541388D02*
X129726261Y-63677789D01*
X129726261Y-63677789D02*
X127177789Y-63677789D01*
X131675832Y-64541388D02*
X130589860Y-64541388D01*
X132181566Y-65047122D02*
X131675832Y-64541388D01*
X127177789Y-63677789D02*
X126579999Y-63079999D01*
X132181566Y-66398748D02*
X132181566Y-65047122D01*
X126579999Y-63079999D02*
X125730000Y-62230000D01*
X117857986Y-81381612D02*
X119481612Y-81381612D01*
X119481612Y-81381612D02*
X119800001Y-81700001D01*
X119800001Y-81700001D02*
X120650000Y-82550000D01*
X112634000Y-80070600D02*
X113259526Y-80070600D01*
X113259526Y-80070600D02*
X113859442Y-80670516D01*
X117451587Y-80975213D02*
X117857986Y-81381612D01*
X114313821Y-80975213D02*
X117451587Y-80975213D01*
X114009124Y-80670516D02*
X114313821Y-80975213D01*
X113859442Y-80670516D02*
X114009124Y-80670516D01*
X116941626Y-81381626D02*
X117260001Y-81700001D01*
X114145483Y-81381626D02*
X116941626Y-81381626D01*
X113840784Y-81076927D02*
X114145483Y-81381626D01*
X113691102Y-81076927D02*
X113840784Y-81076927D01*
X112134000Y-80070600D02*
X112134000Y-80594242D01*
X112134000Y-80594242D02*
X112528546Y-80988788D01*
X112528546Y-80988788D02*
X113602963Y-80988788D01*
X113602963Y-80988788D02*
X113691102Y-81076927D01*
X117260001Y-81700001D02*
X118110000Y-82550000D01*
X114666293Y-82550000D02*
X115570000Y-82550000D01*
X113599631Y-81483338D02*
X114666293Y-82550000D01*
X113434623Y-81395199D02*
X113522762Y-81483338D01*
X113522762Y-81483338D02*
X113599631Y-81483338D01*
X112360206Y-81395199D02*
X113434623Y-81395199D01*
X111634000Y-80668993D02*
X112360206Y-81395199D01*
X111634000Y-80070600D02*
X111634000Y-80668993D01*
X112940256Y-82550000D02*
X113030000Y-82550000D01*
X111134000Y-80743744D02*
X112940256Y-82550000D01*
X111134000Y-80070600D02*
X111134000Y-80743744D01*
X110634000Y-80070600D02*
X110634000Y-82406000D01*
X110634000Y-82406000D02*
X110490000Y-82550000D01*
X110134000Y-80070600D02*
X110134000Y-80623800D01*
X108799999Y-81700001D02*
X107950000Y-82550000D01*
X110134000Y-80623800D02*
X109057799Y-81700001D01*
X109057799Y-81700001D02*
X108799999Y-81700001D01*
D39*
X136407600Y-73076000D02*
X137872764Y-73076000D01*
X137872764Y-73076000D02*
X138277570Y-73480806D01*
D41*
X115671600Y-77674170D02*
X115617990Y-77620560D01*
X115671600Y-78523400D02*
X115671600Y-77674170D01*
X115671600Y-78523400D02*
X115281455Y-78133255D01*
X113837200Y-77920600D02*
X113284000Y-77920600D01*
X113871608Y-77920600D02*
X113837200Y-77920600D01*
X114084263Y-78133255D02*
X113871608Y-77920600D01*
X115281455Y-78133255D02*
X114084263Y-78133255D01*
X115871600Y-78523400D02*
X115671600Y-78523400D01*
X138232376Y-73526000D02*
X138277570Y-73480806D01*
D39*
X137360800Y-73716020D02*
X137120780Y-73476000D01*
X137120780Y-73476000D02*
X136407600Y-73476000D01*
X137360800Y-74026000D02*
X137360800Y-73716020D01*
D41*
X117856680Y-78650400D02*
X117901176Y-78694896D01*
X117901176Y-78694896D02*
X118358375Y-79152095D01*
X117170200Y-78650400D02*
X117856680Y-78650400D01*
X116517000Y-79103600D02*
X115095400Y-79103600D01*
X115095400Y-79103600D02*
X114531466Y-78539666D01*
X114531466Y-78539666D02*
X113915923Y-78539666D01*
X113915923Y-78539666D02*
X113796857Y-78420600D01*
X113796857Y-78420600D02*
X113284000Y-78420600D01*
X116970200Y-78650400D02*
X116517000Y-79103600D01*
X117170200Y-78650400D02*
X116970200Y-78650400D01*
X137933217Y-74598417D02*
X138557011Y-74598417D01*
X137360800Y-74026000D02*
X137933217Y-74598417D01*
X98970878Y-72764801D02*
X100677607Y-74471530D01*
X98317759Y-72764801D02*
X98970878Y-72764801D01*
X97292958Y-71740000D02*
X98317759Y-72764801D01*
X95567500Y-71740000D02*
X97292958Y-71740000D01*
X109634000Y-74318234D02*
X109634000Y-74717400D01*
X108644296Y-73328530D02*
X109634000Y-74318234D01*
X107839904Y-73328530D02*
X108644296Y-73328530D01*
X107230304Y-73938130D02*
X107839904Y-73328530D01*
X106619512Y-73938130D02*
X107230304Y-73938130D01*
X106491242Y-74066400D02*
X106619512Y-73938130D01*
X104206434Y-74066400D02*
X106491242Y-74066400D01*
X109634000Y-74717400D02*
X109634000Y-75270600D01*
X103801304Y-74471530D02*
X104206434Y-74066400D01*
X100677607Y-74471530D02*
X103801304Y-74471530D01*
X95567500Y-72390000D02*
X97364643Y-72390000D01*
X97364643Y-72390000D02*
X98329841Y-73355198D01*
X98329841Y-73355198D02*
X98958398Y-73355198D01*
X98958398Y-73355198D02*
X100483670Y-74880470D01*
X100483670Y-74880470D02*
X103970696Y-74880470D01*
X103970696Y-74880470D02*
X104375835Y-74475331D01*
X104375835Y-74475331D02*
X106660626Y-74475331D01*
X106660626Y-74475331D02*
X106788887Y-74347070D01*
X106788887Y-74347070D02*
X107399696Y-74347070D01*
X107399696Y-74347070D02*
X108009296Y-73737470D01*
X108009296Y-73737470D02*
X108474904Y-73737470D01*
X108474904Y-73737470D02*
X109179530Y-74442096D01*
X109179530Y-74442096D02*
X109179530Y-74671870D01*
X109179530Y-74671870D02*
X109134000Y-74717400D01*
X109134000Y-74717400D02*
X109134000Y-75270600D01*
X108484000Y-76420600D02*
X107586400Y-76420600D01*
X107586400Y-76420600D02*
X107315000Y-76149200D01*
D38*
X135648298Y-74676000D02*
X135648298Y-74316698D01*
X135648298Y-74316698D02*
X135607600Y-74276000D01*
D39*
X135648298Y-74676000D02*
X136157600Y-74676000D01*
D41*
X120004800Y-80044800D02*
X120608000Y-80044800D01*
X120608000Y-80044800D02*
X121718412Y-78934388D01*
X121718412Y-78934388D02*
X121899530Y-78934388D01*
X136157600Y-74676000D02*
X136828381Y-74676000D01*
X136828381Y-74676000D02*
X137007579Y-74855198D01*
X138103000Y-75577000D02*
X138303000Y-75577000D01*
X137649800Y-75123800D02*
X138103000Y-75577000D01*
X137649800Y-74923800D02*
X137649800Y-75123800D01*
X137402000Y-74676000D02*
X137649800Y-74923800D01*
X136157600Y-74676000D02*
X137402000Y-74676000D01*
D40*
G36*
X97873536Y-61465000D02*
X97873536Y-64865000D01*
X97903106Y-65013659D01*
X97987314Y-65139686D01*
X98113341Y-65223894D01*
X98262000Y-65253464D01*
X99762000Y-65253464D01*
X99910659Y-65223894D01*
X100036686Y-65139686D01*
X100120894Y-65013659D01*
X100150464Y-64865000D01*
X100150464Y-61465000D01*
X100140717Y-61416000D01*
X104583283Y-61416000D01*
X104573536Y-61465000D01*
X104573536Y-64865000D01*
X104603106Y-65013659D01*
X104687314Y-65139686D01*
X104813341Y-65223894D01*
X104962000Y-65253464D01*
X106462000Y-65253464D01*
X106610659Y-65223894D01*
X106736686Y-65139686D01*
X106820894Y-65013659D01*
X106850464Y-64865000D01*
X106850464Y-63371491D01*
X106951341Y-63438894D01*
X107100000Y-63468464D01*
X107442000Y-63468464D01*
X107442000Y-65169179D01*
X106713420Y-65897760D01*
X104621240Y-65897760D01*
X104459090Y-65930014D01*
X104426836Y-65936429D01*
X104262030Y-66046550D01*
X103532044Y-66776536D01*
X102862000Y-66776536D01*
X102713341Y-66806106D01*
X102587314Y-66890314D01*
X102503106Y-67016341D01*
X102473536Y-67165000D01*
X102473536Y-70335044D01*
X102243000Y-70565580D01*
X102243000Y-69137250D01*
X102147750Y-69042000D01*
X101489000Y-69042000D01*
X101489000Y-70950750D01*
X101584250Y-71046000D01*
X101762580Y-71046000D01*
X101639244Y-71169336D01*
X101059600Y-71169336D01*
X100910941Y-71198906D01*
X100784914Y-71283114D01*
X100700706Y-71409141D01*
X100682235Y-71502000D01*
X100138527Y-71502000D01*
X100120494Y-71411341D01*
X100036286Y-71285314D01*
X99910259Y-71201106D01*
X99761600Y-71171536D01*
X98561600Y-71171536D01*
X98412941Y-71201106D01*
X98286914Y-71285314D01*
X98202706Y-71411341D01*
X98173136Y-71560000D01*
X98173136Y-71937679D01*
X97657414Y-71421956D01*
X97788977Y-71290622D01*
X97916854Y-70982660D01*
X97917145Y-70649203D01*
X97789805Y-70341018D01*
X97554222Y-70105023D01*
X97246260Y-69977146D01*
X96912803Y-69976855D01*
X96604618Y-70104195D01*
X96368623Y-70339778D01*
X96296957Y-70512368D01*
X96242500Y-70501536D01*
X94892500Y-70501536D01*
X94743841Y-70531106D01*
X94617814Y-70615314D01*
X94533606Y-70741341D01*
X94504036Y-70890000D01*
X94504036Y-71290000D01*
X94528900Y-71415000D01*
X94504036Y-71540000D01*
X94504036Y-71940000D01*
X94528900Y-72065000D01*
X94504036Y-72190000D01*
X94504036Y-72590000D01*
X94528900Y-72715000D01*
X94504036Y-72840000D01*
X94504036Y-73240000D01*
X94529868Y-73369869D01*
X94511500Y-73414214D01*
X94511500Y-73494750D01*
X94606750Y-73590000D01*
X94730530Y-73590000D01*
X94743841Y-73598894D01*
X94892500Y-73628464D01*
X96242500Y-73628464D01*
X96391159Y-73598894D01*
X96404470Y-73590000D01*
X96528250Y-73590000D01*
X96623500Y-73494750D01*
X96623500Y-73414214D01*
X96605132Y-73369869D01*
X96630964Y-73240000D01*
X96630964Y-72872600D01*
X97164743Y-72872600D01*
X97925978Y-73633835D01*
X97918021Y-73641778D01*
X97790144Y-73949740D01*
X97789853Y-74283197D01*
X97822456Y-74362103D01*
X97779059Y-74333106D01*
X97630400Y-74303536D01*
X96730400Y-74303536D01*
X96581741Y-74333106D01*
X96455714Y-74417314D01*
X96371506Y-74543341D01*
X96348801Y-74657485D01*
X96258319Y-74567004D01*
X96118285Y-74509000D01*
X95564750Y-74509000D01*
X95469500Y-74604250D01*
X95469500Y-75663000D01*
X96328250Y-75663000D01*
X96423500Y-75567750D01*
X96423500Y-75418474D01*
X96455714Y-75466686D01*
X96581741Y-75550894D01*
X96730400Y-75580464D01*
X96825128Y-75580464D01*
X96839150Y-75601450D01*
X97041236Y-75803536D01*
X96730400Y-75803536D01*
X96581741Y-75833106D01*
X96455714Y-75917314D01*
X96404785Y-75993535D01*
X96328250Y-75917000D01*
X95469500Y-75917000D01*
X95469500Y-75937000D01*
X95215500Y-75937000D01*
X95215500Y-75917000D01*
X94356750Y-75917000D01*
X94261500Y-76012250D01*
X94261500Y-76765786D01*
X94319504Y-76905820D01*
X94426681Y-77012996D01*
X94566715Y-77071000D01*
X94901224Y-77071000D01*
X94831506Y-77175341D01*
X94801936Y-77324000D01*
X94801936Y-77946201D01*
X94631021Y-77946201D01*
X94478864Y-77794044D01*
X94478864Y-77324000D01*
X94449294Y-77175341D01*
X94365086Y-77049314D01*
X94239059Y-76965106D01*
X94090400Y-76935536D01*
X93600653Y-76935536D01*
X93606007Y-76932929D01*
X93912538Y-76588105D01*
X94063777Y-76152225D01*
X93979484Y-75967000D01*
X93019500Y-75967000D01*
X93019500Y-77068297D01*
X93169228Y-77118886D01*
X93131506Y-77175341D01*
X93101936Y-77324000D01*
X93101936Y-78124000D01*
X93131506Y-78272659D01*
X93215714Y-78398686D01*
X93341741Y-78482894D01*
X93490400Y-78512464D01*
X93760444Y-78512464D01*
X94061391Y-78813411D01*
X94226198Y-78923532D01*
X94420601Y-78962201D01*
X96054561Y-78962201D01*
X96248964Y-78923532D01*
X96413771Y-78813411D01*
X96589795Y-78637387D01*
X96618804Y-78707420D01*
X96725981Y-78814596D01*
X96784171Y-78838699D01*
X96667114Y-78916914D01*
X96582906Y-79042941D01*
X96553336Y-79191600D01*
X96553336Y-80091600D01*
X96582906Y-80240259D01*
X96667114Y-80366286D01*
X96793141Y-80450494D01*
X96941800Y-80480064D01*
X97307400Y-80480064D01*
X97307400Y-81311536D01*
X96940000Y-81311536D01*
X96791341Y-81341106D01*
X96665314Y-81425314D01*
X96581106Y-81551341D01*
X96551536Y-81700000D01*
X96551536Y-83364000D01*
X94024911Y-83364000D01*
X93185906Y-83197112D01*
X92512707Y-82747293D01*
X92062888Y-82074094D01*
X91973122Y-81622807D01*
X92248700Y-81622807D01*
X92511674Y-82259252D01*
X92998187Y-82746614D01*
X93634172Y-83010699D01*
X94322807Y-83011300D01*
X94959252Y-82748326D01*
X95446614Y-82261813D01*
X95710699Y-81625828D01*
X95711300Y-80937193D01*
X95448326Y-80300748D01*
X94961813Y-79813386D01*
X94325828Y-79549301D01*
X93637193Y-79548700D01*
X93000748Y-79811674D01*
X92513386Y-80298187D01*
X92249301Y-80934172D01*
X92248700Y-81622807D01*
X91973122Y-81622807D01*
X91896000Y-81235089D01*
X91896000Y-76614583D01*
X92178993Y-76932929D01*
X92583386Y-77129829D01*
X92765500Y-77068297D01*
X92765500Y-75967000D01*
X92745500Y-75967000D01*
X92745500Y-75713000D01*
X92765500Y-75713000D01*
X92765500Y-73717000D01*
X93019500Y-73717000D01*
X93019500Y-75713000D01*
X93979484Y-75713000D01*
X94063777Y-75527775D01*
X93912538Y-75091895D01*
X93760621Y-74921000D01*
X93918285Y-74921000D01*
X94058319Y-74862996D01*
X94107101Y-74814214D01*
X94261500Y-74814214D01*
X94261500Y-75567750D01*
X94356750Y-75663000D01*
X95215500Y-75663000D01*
X95215500Y-74604250D01*
X95120250Y-74509000D01*
X94566715Y-74509000D01*
X94426681Y-74567004D01*
X94319504Y-74674180D01*
X94261500Y-74814214D01*
X94107101Y-74814214D01*
X94165496Y-74755820D01*
X94223500Y-74615786D01*
X94223500Y-73885250D01*
X94511500Y-73885250D01*
X94511500Y-73965786D01*
X94569504Y-74105820D01*
X94676681Y-74212996D01*
X94816715Y-74271000D01*
X95345250Y-74271000D01*
X95440500Y-74175750D01*
X95440500Y-73790000D01*
X95694500Y-73790000D01*
X95694500Y-74175750D01*
X95789750Y-74271000D01*
X96318285Y-74271000D01*
X96458319Y-74212996D01*
X96565496Y-74105820D01*
X96623500Y-73965786D01*
X96623500Y-73885250D01*
X96528250Y-73790000D01*
X95694500Y-73790000D01*
X95440500Y-73790000D01*
X94606750Y-73790000D01*
X94511500Y-73885250D01*
X94223500Y-73885250D01*
X94223500Y-73812250D01*
X94128250Y-73717000D01*
X93019500Y-73717000D01*
X92765500Y-73717000D01*
X92745500Y-73717000D01*
X92745500Y-73463000D01*
X92765500Y-73463000D01*
X92765500Y-71317000D01*
X93019500Y-71317000D01*
X93019500Y-73463000D01*
X94128250Y-73463000D01*
X94223500Y-73367750D01*
X94223500Y-72564214D01*
X94165496Y-72424180D01*
X94131316Y-72390000D01*
X94165496Y-72355820D01*
X94223500Y-72215786D01*
X94223500Y-71412250D01*
X94128250Y-71317000D01*
X93019500Y-71317000D01*
X92765500Y-71317000D01*
X92745500Y-71317000D01*
X92745500Y-71063000D01*
X92765500Y-71063000D01*
X92765500Y-69067000D01*
X93019500Y-69067000D01*
X93019500Y-71063000D01*
X94128250Y-71063000D01*
X94223500Y-70967750D01*
X94223500Y-70164214D01*
X94165496Y-70024180D01*
X94058319Y-69917004D01*
X93918285Y-69859000D01*
X93760621Y-69859000D01*
X93912538Y-69688105D01*
X94063777Y-69252225D01*
X94045586Y-69212250D01*
X94261500Y-69212250D01*
X94261500Y-69965786D01*
X94319504Y-70105820D01*
X94426681Y-70212996D01*
X94566715Y-70271000D01*
X95120250Y-70271000D01*
X95215500Y-70175750D01*
X95215500Y-69117000D01*
X95469500Y-69117000D01*
X95469500Y-70175750D01*
X95564750Y-70271000D01*
X96118285Y-70271000D01*
X96258319Y-70212996D01*
X96365496Y-70105820D01*
X96423500Y-69965786D01*
X96423500Y-69212250D01*
X96348500Y-69137250D01*
X100481000Y-69137250D01*
X100481000Y-70740785D01*
X100539004Y-70880819D01*
X100646180Y-70987996D01*
X100786214Y-71046000D01*
X101139750Y-71046000D01*
X101235000Y-70950750D01*
X101235000Y-69042000D01*
X100576250Y-69042000D01*
X100481000Y-69137250D01*
X96348500Y-69137250D01*
X96328250Y-69117000D01*
X95469500Y-69117000D01*
X95215500Y-69117000D01*
X94356750Y-69117000D01*
X94261500Y-69212250D01*
X94045586Y-69212250D01*
X93979484Y-69067000D01*
X93019500Y-69067000D01*
X92765500Y-69067000D01*
X92745500Y-69067000D01*
X92745500Y-68813000D01*
X92765500Y-68813000D01*
X92765500Y-68793000D01*
X93019500Y-68793000D01*
X93019500Y-68813000D01*
X93979484Y-68813000D01*
X94063777Y-68627775D01*
X93912538Y-68191895D01*
X93606007Y-67847071D01*
X93551157Y-67820364D01*
X93578659Y-67814894D01*
X93657149Y-67762449D01*
X93996751Y-68102051D01*
X94153318Y-68206665D01*
X94261500Y-68228184D01*
X94261500Y-68767750D01*
X94356750Y-68863000D01*
X95215500Y-68863000D01*
X95215500Y-68843000D01*
X95469500Y-68843000D01*
X95469500Y-68863000D01*
X96328250Y-68863000D01*
X96423500Y-68767750D01*
X96423500Y-68658395D01*
X96502215Y-68691000D01*
X96805750Y-68691000D01*
X96901000Y-68595750D01*
X96901000Y-68185000D01*
X97155000Y-68185000D01*
X97155000Y-68595750D01*
X97250250Y-68691000D01*
X97553785Y-68691000D01*
X97693819Y-68632996D01*
X97800996Y-68525820D01*
X97859000Y-68385786D01*
X97859000Y-68280250D01*
X97763750Y-68185000D01*
X97155000Y-68185000D01*
X96901000Y-68185000D01*
X96881000Y-68185000D01*
X96881000Y-67935000D01*
X96901000Y-67935000D01*
X96901000Y-67524250D01*
X97155000Y-67524250D01*
X97155000Y-67935000D01*
X97763750Y-67935000D01*
X97859000Y-67839750D01*
X97859000Y-67734214D01*
X97800996Y-67594180D01*
X97693819Y-67487004D01*
X97553785Y-67429000D01*
X97250250Y-67429000D01*
X97155000Y-67524250D01*
X96901000Y-67524250D01*
X96805750Y-67429000D01*
X96641500Y-67429000D01*
X96872036Y-67198464D01*
X97478000Y-67198464D01*
X97626659Y-67168894D01*
X97745907Y-67089215D01*
X100481000Y-67089215D01*
X100481000Y-68692750D01*
X100576250Y-68788000D01*
X101235000Y-68788000D01*
X101235000Y-66879250D01*
X101489000Y-66879250D01*
X101489000Y-68788000D01*
X102147750Y-68788000D01*
X102243000Y-68692750D01*
X102243000Y-67089215D01*
X102184996Y-66949181D01*
X102077820Y-66842004D01*
X101937786Y-66784000D01*
X101584250Y-66784000D01*
X101489000Y-66879250D01*
X101235000Y-66879250D01*
X101139750Y-66784000D01*
X100786214Y-66784000D01*
X100646180Y-66842004D01*
X100539004Y-66949181D01*
X100481000Y-67089215D01*
X97745907Y-67089215D01*
X97752686Y-67084686D01*
X97836894Y-66958659D01*
X97866464Y-66810000D01*
X97866464Y-66310000D01*
X97836894Y-66161341D01*
X97752686Y-66035314D01*
X97626659Y-65951106D01*
X97478000Y-65921536D01*
X96697726Y-65921536D01*
X96697945Y-65670803D01*
X96570605Y-65362618D01*
X96335022Y-65126623D01*
X96027060Y-64998746D01*
X95693603Y-64998455D01*
X95385418Y-65125795D01*
X95149423Y-65361378D01*
X95021546Y-65669340D01*
X95021255Y-66002797D01*
X95073723Y-66129777D01*
X94935964Y-66267536D01*
X94530000Y-66267536D01*
X94381341Y-66297106D01*
X94255314Y-66381314D01*
X94171106Y-66507341D01*
X94141536Y-66656000D01*
X94141536Y-66881836D01*
X93974450Y-66714750D01*
X93817883Y-66610136D01*
X93808989Y-66608367D01*
X93788894Y-66507341D01*
X93704686Y-66381314D01*
X93578659Y-66297106D01*
X93430000Y-66267536D01*
X92830000Y-66267536D01*
X92681341Y-66297106D01*
X92555314Y-66381314D01*
X92471106Y-66507341D01*
X92441536Y-66656000D01*
X92441536Y-67456000D01*
X92471106Y-67604659D01*
X92521613Y-67680248D01*
X92178993Y-67847071D01*
X91896000Y-68165417D01*
X91896000Y-63842807D01*
X92248700Y-63842807D01*
X92511674Y-64479252D01*
X92998187Y-64966614D01*
X93634172Y-65230699D01*
X94322807Y-65231300D01*
X94959252Y-64968326D01*
X95446614Y-64481813D01*
X95710699Y-63845828D01*
X95711300Y-63157193D01*
X95448326Y-62520748D01*
X94961813Y-62033386D01*
X94325828Y-61769301D01*
X93637193Y-61768700D01*
X93000748Y-62031674D01*
X92513386Y-62518187D01*
X92249301Y-63154172D01*
X92248700Y-63842807D01*
X91896000Y-63842807D01*
X91896000Y-63544911D01*
X92062888Y-62705906D01*
X92512707Y-62032707D01*
X93185906Y-61582888D01*
X94024911Y-61416000D01*
X97883283Y-61416000D01*
X97873536Y-61465000D01*
X97873536Y-61465000D01*
G37*
X97873536Y-61465000D02*
X97873536Y-64865000D01*
X97903106Y-65013659D01*
X97987314Y-65139686D01*
X98113341Y-65223894D01*
X98262000Y-65253464D01*
X99762000Y-65253464D01*
X99910659Y-65223894D01*
X100036686Y-65139686D01*
X100120894Y-65013659D01*
X100150464Y-64865000D01*
X100150464Y-61465000D01*
X100140717Y-61416000D01*
X104583283Y-61416000D01*
X104573536Y-61465000D01*
X104573536Y-64865000D01*
X104603106Y-65013659D01*
X104687314Y-65139686D01*
X104813341Y-65223894D01*
X104962000Y-65253464D01*
X106462000Y-65253464D01*
X106610659Y-65223894D01*
X106736686Y-65139686D01*
X106820894Y-65013659D01*
X106850464Y-64865000D01*
X106850464Y-63371491D01*
X106951341Y-63438894D01*
X107100000Y-63468464D01*
X107442000Y-63468464D01*
X107442000Y-65169179D01*
X106713420Y-65897760D01*
X104621240Y-65897760D01*
X104459090Y-65930014D01*
X104426836Y-65936429D01*
X104262030Y-66046550D01*
X103532044Y-66776536D01*
X102862000Y-66776536D01*
X102713341Y-66806106D01*
X102587314Y-66890314D01*
X102503106Y-67016341D01*
X102473536Y-67165000D01*
X102473536Y-70335044D01*
X102243000Y-70565580D01*
X102243000Y-69137250D01*
X102147750Y-69042000D01*
X101489000Y-69042000D01*
X101489000Y-70950750D01*
X101584250Y-71046000D01*
X101762580Y-71046000D01*
X101639244Y-71169336D01*
X101059600Y-71169336D01*
X100910941Y-71198906D01*
X100784914Y-71283114D01*
X100700706Y-71409141D01*
X100682235Y-71502000D01*
X100138527Y-71502000D01*
X100120494Y-71411341D01*
X100036286Y-71285314D01*
X99910259Y-71201106D01*
X99761600Y-71171536D01*
X98561600Y-71171536D01*
X98412941Y-71201106D01*
X98286914Y-71285314D01*
X98202706Y-71411341D01*
X98173136Y-71560000D01*
X98173136Y-71937679D01*
X97657414Y-71421956D01*
X97788977Y-71290622D01*
X97916854Y-70982660D01*
X97917145Y-70649203D01*
X97789805Y-70341018D01*
X97554222Y-70105023D01*
X97246260Y-69977146D01*
X96912803Y-69976855D01*
X96604618Y-70104195D01*
X96368623Y-70339778D01*
X96296957Y-70512368D01*
X96242500Y-70501536D01*
X94892500Y-70501536D01*
X94743841Y-70531106D01*
X94617814Y-70615314D01*
X94533606Y-70741341D01*
X94504036Y-70890000D01*
X94504036Y-71290000D01*
X94528900Y-71415000D01*
X94504036Y-71540000D01*
X94504036Y-71940000D01*
X94528900Y-72065000D01*
X94504036Y-72190000D01*
X94504036Y-72590000D01*
X94528900Y-72715000D01*
X94504036Y-72840000D01*
X94504036Y-73240000D01*
X94529868Y-73369869D01*
X94511500Y-73414214D01*
X94511500Y-73494750D01*
X94606750Y-73590000D01*
X94730530Y-73590000D01*
X94743841Y-73598894D01*
X94892500Y-73628464D01*
X96242500Y-73628464D01*
X96391159Y-73598894D01*
X96404470Y-73590000D01*
X96528250Y-73590000D01*
X96623500Y-73494750D01*
X96623500Y-73414214D01*
X96605132Y-73369869D01*
X96630964Y-73240000D01*
X96630964Y-72872600D01*
X97164743Y-72872600D01*
X97925978Y-73633835D01*
X97918021Y-73641778D01*
X97790144Y-73949740D01*
X97789853Y-74283197D01*
X97822456Y-74362103D01*
X97779059Y-74333106D01*
X97630400Y-74303536D01*
X96730400Y-74303536D01*
X96581741Y-74333106D01*
X96455714Y-74417314D01*
X96371506Y-74543341D01*
X96348801Y-74657485D01*
X96258319Y-74567004D01*
X96118285Y-74509000D01*
X95564750Y-74509000D01*
X95469500Y-74604250D01*
X95469500Y-75663000D01*
X96328250Y-75663000D01*
X96423500Y-75567750D01*
X96423500Y-75418474D01*
X96455714Y-75466686D01*
X96581741Y-75550894D01*
X96730400Y-75580464D01*
X96825128Y-75580464D01*
X96839150Y-75601450D01*
X97041236Y-75803536D01*
X96730400Y-75803536D01*
X96581741Y-75833106D01*
X96455714Y-75917314D01*
X96404785Y-75993535D01*
X96328250Y-75917000D01*
X95469500Y-75917000D01*
X95469500Y-75937000D01*
X95215500Y-75937000D01*
X95215500Y-75917000D01*
X94356750Y-75917000D01*
X94261500Y-76012250D01*
X94261500Y-76765786D01*
X94319504Y-76905820D01*
X94426681Y-77012996D01*
X94566715Y-77071000D01*
X94901224Y-77071000D01*
X94831506Y-77175341D01*
X94801936Y-77324000D01*
X94801936Y-77946201D01*
X94631021Y-77946201D01*
X94478864Y-77794044D01*
X94478864Y-77324000D01*
X94449294Y-77175341D01*
X94365086Y-77049314D01*
X94239059Y-76965106D01*
X94090400Y-76935536D01*
X93600653Y-76935536D01*
X93606007Y-76932929D01*
X93912538Y-76588105D01*
X94063777Y-76152225D01*
X93979484Y-75967000D01*
X93019500Y-75967000D01*
X93019500Y-77068297D01*
X93169228Y-77118886D01*
X93131506Y-77175341D01*
X93101936Y-77324000D01*
X93101936Y-78124000D01*
X93131506Y-78272659D01*
X93215714Y-78398686D01*
X93341741Y-78482894D01*
X93490400Y-78512464D01*
X93760444Y-78512464D01*
X94061391Y-78813411D01*
X94226198Y-78923532D01*
X94420601Y-78962201D01*
X96054561Y-78962201D01*
X96248964Y-78923532D01*
X96413771Y-78813411D01*
X96589795Y-78637387D01*
X96618804Y-78707420D01*
X96725981Y-78814596D01*
X96784171Y-78838699D01*
X96667114Y-78916914D01*
X96582906Y-79042941D01*
X96553336Y-79191600D01*
X96553336Y-80091600D01*
X96582906Y-80240259D01*
X96667114Y-80366286D01*
X96793141Y-80450494D01*
X96941800Y-80480064D01*
X97307400Y-80480064D01*
X97307400Y-81311536D01*
X96940000Y-81311536D01*
X96791341Y-81341106D01*
X96665314Y-81425314D01*
X96581106Y-81551341D01*
X96551536Y-81700000D01*
X96551536Y-83364000D01*
X94024911Y-83364000D01*
X93185906Y-83197112D01*
X92512707Y-82747293D01*
X92062888Y-82074094D01*
X91973122Y-81622807D01*
X92248700Y-81622807D01*
X92511674Y-82259252D01*
X92998187Y-82746614D01*
X93634172Y-83010699D01*
X94322807Y-83011300D01*
X94959252Y-82748326D01*
X95446614Y-82261813D01*
X95710699Y-81625828D01*
X95711300Y-80937193D01*
X95448326Y-80300748D01*
X94961813Y-79813386D01*
X94325828Y-79549301D01*
X93637193Y-79548700D01*
X93000748Y-79811674D01*
X92513386Y-80298187D01*
X92249301Y-80934172D01*
X92248700Y-81622807D01*
X91973122Y-81622807D01*
X91896000Y-81235089D01*
X91896000Y-76614583D01*
X92178993Y-76932929D01*
X92583386Y-77129829D01*
X92765500Y-77068297D01*
X92765500Y-75967000D01*
X92745500Y-75967000D01*
X92745500Y-75713000D01*
X92765500Y-75713000D01*
X92765500Y-73717000D01*
X93019500Y-73717000D01*
X93019500Y-75713000D01*
X93979484Y-75713000D01*
X94063777Y-75527775D01*
X93912538Y-75091895D01*
X93760621Y-74921000D01*
X93918285Y-74921000D01*
X94058319Y-74862996D01*
X94107101Y-74814214D01*
X94261500Y-74814214D01*
X94261500Y-75567750D01*
X94356750Y-75663000D01*
X95215500Y-75663000D01*
X95215500Y-74604250D01*
X95120250Y-74509000D01*
X94566715Y-74509000D01*
X94426681Y-74567004D01*
X94319504Y-74674180D01*
X94261500Y-74814214D01*
X94107101Y-74814214D01*
X94165496Y-74755820D01*
X94223500Y-74615786D01*
X94223500Y-73885250D01*
X94511500Y-73885250D01*
X94511500Y-73965786D01*
X94569504Y-74105820D01*
X94676681Y-74212996D01*
X94816715Y-74271000D01*
X95345250Y-74271000D01*
X95440500Y-74175750D01*
X95440500Y-73790000D01*
X95694500Y-73790000D01*
X95694500Y-74175750D01*
X95789750Y-74271000D01*
X96318285Y-74271000D01*
X96458319Y-74212996D01*
X96565496Y-74105820D01*
X96623500Y-73965786D01*
X96623500Y-73885250D01*
X96528250Y-73790000D01*
X95694500Y-73790000D01*
X95440500Y-73790000D01*
X94606750Y-73790000D01*
X94511500Y-73885250D01*
X94223500Y-73885250D01*
X94223500Y-73812250D01*
X94128250Y-73717000D01*
X93019500Y-73717000D01*
X92765500Y-73717000D01*
X92745500Y-73717000D01*
X92745500Y-73463000D01*
X92765500Y-73463000D01*
X92765500Y-71317000D01*
X93019500Y-71317000D01*
X93019500Y-73463000D01*
X94128250Y-73463000D01*
X94223500Y-73367750D01*
X94223500Y-72564214D01*
X94165496Y-72424180D01*
X94131316Y-72390000D01*
X94165496Y-72355820D01*
X94223500Y-72215786D01*
X94223500Y-71412250D01*
X94128250Y-71317000D01*
X93019500Y-71317000D01*
X92765500Y-71317000D01*
X92745500Y-71317000D01*
X92745500Y-71063000D01*
X92765500Y-71063000D01*
X92765500Y-69067000D01*
X93019500Y-69067000D01*
X93019500Y-71063000D01*
X94128250Y-71063000D01*
X94223500Y-70967750D01*
X94223500Y-70164214D01*
X94165496Y-70024180D01*
X94058319Y-69917004D01*
X93918285Y-69859000D01*
X93760621Y-69859000D01*
X93912538Y-69688105D01*
X94063777Y-69252225D01*
X94045586Y-69212250D01*
X94261500Y-69212250D01*
X94261500Y-69965786D01*
X94319504Y-70105820D01*
X94426681Y-70212996D01*
X94566715Y-70271000D01*
X95120250Y-70271000D01*
X95215500Y-70175750D01*
X95215500Y-69117000D01*
X95469500Y-69117000D01*
X95469500Y-70175750D01*
X95564750Y-70271000D01*
X96118285Y-70271000D01*
X96258319Y-70212996D01*
X96365496Y-70105820D01*
X96423500Y-69965786D01*
X96423500Y-69212250D01*
X96348500Y-69137250D01*
X100481000Y-69137250D01*
X100481000Y-70740785D01*
X100539004Y-70880819D01*
X100646180Y-70987996D01*
X100786214Y-71046000D01*
X101139750Y-71046000D01*
X101235000Y-70950750D01*
X101235000Y-69042000D01*
X100576250Y-69042000D01*
X100481000Y-69137250D01*
X96348500Y-69137250D01*
X96328250Y-69117000D01*
X95469500Y-69117000D01*
X95215500Y-69117000D01*
X94356750Y-69117000D01*
X94261500Y-69212250D01*
X94045586Y-69212250D01*
X93979484Y-69067000D01*
X93019500Y-69067000D01*
X92765500Y-69067000D01*
X92745500Y-69067000D01*
X92745500Y-68813000D01*
X92765500Y-68813000D01*
X92765500Y-68793000D01*
X93019500Y-68793000D01*
X93019500Y-68813000D01*
X93979484Y-68813000D01*
X94063777Y-68627775D01*
X93912538Y-68191895D01*
X93606007Y-67847071D01*
X93551157Y-67820364D01*
X93578659Y-67814894D01*
X93657149Y-67762449D01*
X93996751Y-68102051D01*
X94153318Y-68206665D01*
X94261500Y-68228184D01*
X94261500Y-68767750D01*
X94356750Y-68863000D01*
X95215500Y-68863000D01*
X95215500Y-68843000D01*
X95469500Y-68843000D01*
X95469500Y-68863000D01*
X96328250Y-68863000D01*
X96423500Y-68767750D01*
X96423500Y-68658395D01*
X96502215Y-68691000D01*
X96805750Y-68691000D01*
X96901000Y-68595750D01*
X96901000Y-68185000D01*
X97155000Y-68185000D01*
X97155000Y-68595750D01*
X97250250Y-68691000D01*
X97553785Y-68691000D01*
X97693819Y-68632996D01*
X97800996Y-68525820D01*
X97859000Y-68385786D01*
X97859000Y-68280250D01*
X97763750Y-68185000D01*
X97155000Y-68185000D01*
X96901000Y-68185000D01*
X96881000Y-68185000D01*
X96881000Y-67935000D01*
X96901000Y-67935000D01*
X96901000Y-67524250D01*
X97155000Y-67524250D01*
X97155000Y-67935000D01*
X97763750Y-67935000D01*
X97859000Y-67839750D01*
X97859000Y-67734214D01*
X97800996Y-67594180D01*
X97693819Y-67487004D01*
X97553785Y-67429000D01*
X97250250Y-67429000D01*
X97155000Y-67524250D01*
X96901000Y-67524250D01*
X96805750Y-67429000D01*
X96641500Y-67429000D01*
X96872036Y-67198464D01*
X97478000Y-67198464D01*
X97626659Y-67168894D01*
X97745907Y-67089215D01*
X100481000Y-67089215D01*
X100481000Y-68692750D01*
X100576250Y-68788000D01*
X101235000Y-68788000D01*
X101235000Y-66879250D01*
X101489000Y-66879250D01*
X101489000Y-68788000D01*
X102147750Y-68788000D01*
X102243000Y-68692750D01*
X102243000Y-67089215D01*
X102184996Y-66949181D01*
X102077820Y-66842004D01*
X101937786Y-66784000D01*
X101584250Y-66784000D01*
X101489000Y-66879250D01*
X101235000Y-66879250D01*
X101139750Y-66784000D01*
X100786214Y-66784000D01*
X100646180Y-66842004D01*
X100539004Y-66949181D01*
X100481000Y-67089215D01*
X97745907Y-67089215D01*
X97752686Y-67084686D01*
X97836894Y-66958659D01*
X97866464Y-66810000D01*
X97866464Y-66310000D01*
X97836894Y-66161341D01*
X97752686Y-66035314D01*
X97626659Y-65951106D01*
X97478000Y-65921536D01*
X96697726Y-65921536D01*
X96697945Y-65670803D01*
X96570605Y-65362618D01*
X96335022Y-65126623D01*
X96027060Y-64998746D01*
X95693603Y-64998455D01*
X95385418Y-65125795D01*
X95149423Y-65361378D01*
X95021546Y-65669340D01*
X95021255Y-66002797D01*
X95073723Y-66129777D01*
X94935964Y-66267536D01*
X94530000Y-66267536D01*
X94381341Y-66297106D01*
X94255314Y-66381314D01*
X94171106Y-66507341D01*
X94141536Y-66656000D01*
X94141536Y-66881836D01*
X93974450Y-66714750D01*
X93817883Y-66610136D01*
X93808989Y-66608367D01*
X93788894Y-66507341D01*
X93704686Y-66381314D01*
X93578659Y-66297106D01*
X93430000Y-66267536D01*
X92830000Y-66267536D01*
X92681341Y-66297106D01*
X92555314Y-66381314D01*
X92471106Y-66507341D01*
X92441536Y-66656000D01*
X92441536Y-67456000D01*
X92471106Y-67604659D01*
X92521613Y-67680248D01*
X92178993Y-67847071D01*
X91896000Y-68165417D01*
X91896000Y-63842807D01*
X92248700Y-63842807D01*
X92511674Y-64479252D01*
X92998187Y-64966614D01*
X93634172Y-65230699D01*
X94322807Y-65231300D01*
X94959252Y-64968326D01*
X95446614Y-64481813D01*
X95710699Y-63845828D01*
X95711300Y-63157193D01*
X95448326Y-62520748D01*
X94961813Y-62033386D01*
X94325828Y-61769301D01*
X93637193Y-61768700D01*
X93000748Y-62031674D01*
X92513386Y-62518187D01*
X92249301Y-63154172D01*
X92248700Y-63842807D01*
X91896000Y-63842807D01*
X91896000Y-63544911D01*
X92062888Y-62705906D01*
X92512707Y-62032707D01*
X93185906Y-61582888D01*
X94024911Y-61416000D01*
X97883283Y-61416000D01*
X97873536Y-61465000D01*
G36*
X141784000Y-81235089D02*
X141617112Y-82074094D01*
X141167293Y-82747293D01*
X140494094Y-83197112D01*
X139655089Y-83364000D01*
X136792665Y-83364000D01*
X136867652Y-83298056D01*
X137079501Y-82866982D01*
X137019193Y-82677000D01*
X136017000Y-82677000D01*
X136017000Y-82697000D01*
X135763000Y-82697000D01*
X135763000Y-82677000D01*
X134760807Y-82677000D01*
X134700499Y-82866982D01*
X134912348Y-83298056D01*
X134987335Y-83364000D01*
X134274280Y-83364000D01*
X134487296Y-83045200D01*
X134581000Y-82574117D01*
X134581000Y-82525883D01*
X134493999Y-82088501D01*
X134541250Y-82041250D01*
X135073899Y-81508600D01*
X135245921Y-81508600D01*
X134912348Y-81801944D01*
X134700499Y-82233018D01*
X134760807Y-82423000D01*
X135763000Y-82423000D01*
X135763000Y-82403000D01*
X136017000Y-82403000D01*
X136017000Y-82423000D01*
X137019193Y-82423000D01*
X137079501Y-82233018D01*
X136867652Y-81801944D01*
X136534079Y-81508600D01*
X136818895Y-81508600D01*
X137003578Y-81471864D01*
X137160145Y-81367250D01*
X138419596Y-80107799D01*
X138424106Y-80107799D01*
X138233386Y-80298187D01*
X137969301Y-80934172D01*
X137968700Y-81622807D01*
X138231674Y-82259252D01*
X138718187Y-82746614D01*
X139354172Y-83010699D01*
X140042807Y-83011300D01*
X140679252Y-82748326D01*
X141166614Y-82261813D01*
X141430699Y-81625828D01*
X141431300Y-80937193D01*
X141168326Y-80300748D01*
X140681813Y-79813386D01*
X140309237Y-79658678D01*
X141784000Y-78183915D01*
X141784000Y-81235089D01*
X141784000Y-81235089D01*
G37*
X141784000Y-81235089D02*
X141617112Y-82074094D01*
X141167293Y-82747293D01*
X140494094Y-83197112D01*
X139655089Y-83364000D01*
X136792665Y-83364000D01*
X136867652Y-83298056D01*
X137079501Y-82866982D01*
X137019193Y-82677000D01*
X136017000Y-82677000D01*
X136017000Y-82697000D01*
X135763000Y-82697000D01*
X135763000Y-82677000D01*
X134760807Y-82677000D01*
X134700499Y-82866982D01*
X134912348Y-83298056D01*
X134987335Y-83364000D01*
X134274280Y-83364000D01*
X134487296Y-83045200D01*
X134581000Y-82574117D01*
X134581000Y-82525883D01*
X134493999Y-82088501D01*
X134541250Y-82041250D01*
X135073899Y-81508600D01*
X135245921Y-81508600D01*
X134912348Y-81801944D01*
X134700499Y-82233018D01*
X134760807Y-82423000D01*
X135763000Y-82423000D01*
X135763000Y-82403000D01*
X136017000Y-82403000D01*
X136017000Y-82423000D01*
X137019193Y-82423000D01*
X137079501Y-82233018D01*
X136867652Y-81801944D01*
X136534079Y-81508600D01*
X136818895Y-81508600D01*
X137003578Y-81471864D01*
X137160145Y-81367250D01*
X138419596Y-80107799D01*
X138424106Y-80107799D01*
X138233386Y-80298187D01*
X137969301Y-80934172D01*
X137968700Y-81622807D01*
X138231674Y-82259252D01*
X138718187Y-82746614D01*
X139354172Y-83010699D01*
X140042807Y-83011300D01*
X140679252Y-82748326D01*
X141166614Y-82261813D01*
X141430699Y-81625828D01*
X141431300Y-80937193D01*
X141168326Y-80300748D01*
X140681813Y-79813386D01*
X140309237Y-79658678D01*
X141784000Y-78183915D01*
X141784000Y-81235089D01*
G36*
X101963580Y-77210600D02*
X101764050Y-77210600D01*
X101668800Y-77305850D01*
X101668800Y-77914600D01*
X102327550Y-77914600D01*
X102422800Y-77819350D01*
X102422800Y-77599590D01*
X102561085Y-77627097D01*
X102577114Y-77651086D01*
X102703141Y-77735294D01*
X102851800Y-77764864D01*
X103751800Y-77764864D01*
X103753505Y-77764525D01*
X104113136Y-78124156D01*
X104113136Y-78240018D01*
X104110694Y-78227741D01*
X104026486Y-78101714D01*
X103900459Y-78017506D01*
X103751800Y-77987936D01*
X102851800Y-77987936D01*
X102703141Y-78017506D01*
X102577114Y-78101714D01*
X102492906Y-78227741D01*
X102463336Y-78376400D01*
X102463336Y-78876400D01*
X102492906Y-79025059D01*
X102565378Y-79133522D01*
X102539900Y-79159000D01*
X102423779Y-79159000D01*
X102400694Y-79042941D01*
X102316486Y-78916914D01*
X102199429Y-78838699D01*
X102257619Y-78814596D01*
X102364796Y-78707420D01*
X102422800Y-78567386D01*
X102422800Y-78263850D01*
X102327550Y-78168600D01*
X101668800Y-78168600D01*
X101668800Y-78188600D01*
X101414800Y-78188600D01*
X101414800Y-78168600D01*
X100756050Y-78168600D01*
X100660800Y-78263850D01*
X100660800Y-78567386D01*
X100718804Y-78707420D01*
X100825981Y-78814596D01*
X100884171Y-78838699D01*
X100822949Y-78879607D01*
X100548260Y-78765546D01*
X100214803Y-78765255D01*
X99906618Y-78892595D01*
X99670623Y-79128178D01*
X99542746Y-79436140D01*
X99542455Y-79769597D01*
X99669795Y-80077782D01*
X99905378Y-80313777D01*
X100213340Y-80441654D01*
X100546797Y-80441945D01*
X100759064Y-80354238D01*
X100767114Y-80366286D01*
X100893141Y-80450494D01*
X101041800Y-80480064D01*
X102041800Y-80480064D01*
X102190459Y-80450494D01*
X102316486Y-80366286D01*
X102400694Y-80240259D01*
X102423779Y-80124200D01*
X102739800Y-80124200D01*
X102924483Y-80087464D01*
X103081050Y-79982850D01*
X103643050Y-79420850D01*
X103747276Y-79264864D01*
X103751800Y-79264864D01*
X103900459Y-79235294D01*
X104026486Y-79151086D01*
X104110694Y-79025059D01*
X104140264Y-78876400D01*
X104140264Y-78705582D01*
X104142706Y-78717859D01*
X104226914Y-78843886D01*
X104352941Y-78928094D01*
X104501600Y-78957664D01*
X105251600Y-78957664D01*
X105400259Y-78928094D01*
X105526286Y-78843886D01*
X105610494Y-78717859D01*
X105628965Y-78625000D01*
X106045765Y-78625000D01*
X106056914Y-78641686D01*
X106182941Y-78725894D01*
X106331600Y-78755464D01*
X106507436Y-78755464D01*
X106440350Y-78822550D01*
X106336124Y-78978536D01*
X106331600Y-78978536D01*
X106182941Y-79008106D01*
X106056914Y-79092314D01*
X106028793Y-79134400D01*
X105412135Y-79134400D01*
X105227452Y-79171136D01*
X105151062Y-79222178D01*
X105140676Y-79217865D01*
X104807219Y-79217574D01*
X104499034Y-79344914D01*
X104263039Y-79580497D01*
X104135162Y-79888459D01*
X104134871Y-80221916D01*
X104262211Y-80530101D01*
X104497794Y-80766096D01*
X104805756Y-80893973D01*
X105139213Y-80894264D01*
X105447398Y-80766924D01*
X105683393Y-80531341D01*
X105811270Y-80223379D01*
X105811378Y-80099600D01*
X106028793Y-80099600D01*
X106056914Y-80141686D01*
X106182941Y-80225894D01*
X106331600Y-80255464D01*
X107231600Y-80255464D01*
X107380259Y-80225894D01*
X107416721Y-80201531D01*
X107416455Y-80506197D01*
X107543795Y-80814382D01*
X107779378Y-81050377D01*
X108087340Y-81178254D01*
X108420797Y-81178545D01*
X108728982Y-81051205D01*
X108964977Y-80815622D01*
X108970851Y-80801476D01*
X109009000Y-80809064D01*
X109259000Y-80809064D01*
X109268033Y-80807267D01*
X108857899Y-81217401D01*
X108799999Y-81217401D01*
X108615316Y-81254137D01*
X108458749Y-81358751D01*
X108425777Y-81391723D01*
X108421083Y-81388587D01*
X107950000Y-81294883D01*
X107478917Y-81388587D01*
X107079552Y-81655435D01*
X106812704Y-82054800D01*
X106719000Y-82525883D01*
X106719000Y-82574117D01*
X106812704Y-83045200D01*
X107025720Y-83364000D01*
X106312665Y-83364000D01*
X106387652Y-83298056D01*
X106599501Y-82866982D01*
X106539193Y-82677000D01*
X105537000Y-82677000D01*
X105537000Y-82697000D01*
X105283000Y-82697000D01*
X105283000Y-82677000D01*
X104280807Y-82677000D01*
X104220499Y-82866982D01*
X104432348Y-83298056D01*
X104507335Y-83364000D01*
X103794280Y-83364000D01*
X104007296Y-83045200D01*
X104101000Y-82574117D01*
X104101000Y-82525883D01*
X104042746Y-82233018D01*
X104220499Y-82233018D01*
X104280807Y-82423000D01*
X105283000Y-82423000D01*
X105283000Y-81421373D01*
X105537000Y-81421373D01*
X105537000Y-82423000D01*
X106539193Y-82423000D01*
X106599501Y-82233018D01*
X106387652Y-81801944D01*
X106026964Y-81484755D01*
X105726980Y-81360511D01*
X105537000Y-81421373D01*
X105283000Y-81421373D01*
X105093020Y-81360511D01*
X104793036Y-81484755D01*
X104432348Y-81801944D01*
X104220499Y-82233018D01*
X104042746Y-82233018D01*
X104007296Y-82054800D01*
X103740448Y-81655435D01*
X103341083Y-81388587D01*
X102870000Y-81294883D01*
X102398917Y-81388587D01*
X101999552Y-81655435D01*
X101732704Y-82054800D01*
X101639000Y-82525883D01*
X101639000Y-82574117D01*
X101732704Y-83045200D01*
X101945720Y-83364000D01*
X101254280Y-83364000D01*
X101467296Y-83045200D01*
X101561000Y-82574117D01*
X101561000Y-82525883D01*
X101467296Y-82054800D01*
X101200448Y-81655435D01*
X100801083Y-81388587D01*
X100330000Y-81294883D01*
X99882347Y-81383927D01*
X99009200Y-80510780D01*
X99009200Y-77825599D01*
X99085401Y-77825599D01*
X99279804Y-77786930D01*
X99444611Y-77676809D01*
X99605606Y-77515814D01*
X100660800Y-77515814D01*
X100660800Y-77819350D01*
X100756050Y-77914600D01*
X101414800Y-77914600D01*
X101414800Y-77305850D01*
X101319550Y-77210600D01*
X100966015Y-77210600D01*
X100825981Y-77268604D01*
X100718804Y-77375780D01*
X100660800Y-77515814D01*
X99605606Y-77515814D01*
X99651524Y-77469896D01*
X99937197Y-77470145D01*
X100245382Y-77342805D01*
X100448742Y-77139800D01*
X101892780Y-77139800D01*
X101963580Y-77210600D01*
X101963580Y-77210600D01*
G37*
X101963580Y-77210600D02*
X101764050Y-77210600D01*
X101668800Y-77305850D01*
X101668800Y-77914600D01*
X102327550Y-77914600D01*
X102422800Y-77819350D01*
X102422800Y-77599590D01*
X102561085Y-77627097D01*
X102577114Y-77651086D01*
X102703141Y-77735294D01*
X102851800Y-77764864D01*
X103751800Y-77764864D01*
X103753505Y-77764525D01*
X104113136Y-78124156D01*
X104113136Y-78240018D01*
X104110694Y-78227741D01*
X104026486Y-78101714D01*
X103900459Y-78017506D01*
X103751800Y-77987936D01*
X102851800Y-77987936D01*
X102703141Y-78017506D01*
X102577114Y-78101714D01*
X102492906Y-78227741D01*
X102463336Y-78376400D01*
X102463336Y-78876400D01*
X102492906Y-79025059D01*
X102565378Y-79133522D01*
X102539900Y-79159000D01*
X102423779Y-79159000D01*
X102400694Y-79042941D01*
X102316486Y-78916914D01*
X102199429Y-78838699D01*
X102257619Y-78814596D01*
X102364796Y-78707420D01*
X102422800Y-78567386D01*
X102422800Y-78263850D01*
X102327550Y-78168600D01*
X101668800Y-78168600D01*
X101668800Y-78188600D01*
X101414800Y-78188600D01*
X101414800Y-78168600D01*
X100756050Y-78168600D01*
X100660800Y-78263850D01*
X100660800Y-78567386D01*
X100718804Y-78707420D01*
X100825981Y-78814596D01*
X100884171Y-78838699D01*
X100822949Y-78879607D01*
X100548260Y-78765546D01*
X100214803Y-78765255D01*
X99906618Y-78892595D01*
X99670623Y-79128178D01*
X99542746Y-79436140D01*
X99542455Y-79769597D01*
X99669795Y-80077782D01*
X99905378Y-80313777D01*
X100213340Y-80441654D01*
X100546797Y-80441945D01*
X100759064Y-80354238D01*
X100767114Y-80366286D01*
X100893141Y-80450494D01*
X101041800Y-80480064D01*
X102041800Y-80480064D01*
X102190459Y-80450494D01*
X102316486Y-80366286D01*
X102400694Y-80240259D01*
X102423779Y-80124200D01*
X102739800Y-80124200D01*
X102924483Y-80087464D01*
X103081050Y-79982850D01*
X103643050Y-79420850D01*
X103747276Y-79264864D01*
X103751800Y-79264864D01*
X103900459Y-79235294D01*
X104026486Y-79151086D01*
X104110694Y-79025059D01*
X104140264Y-78876400D01*
X104140264Y-78705582D01*
X104142706Y-78717859D01*
X104226914Y-78843886D01*
X104352941Y-78928094D01*
X104501600Y-78957664D01*
X105251600Y-78957664D01*
X105400259Y-78928094D01*
X105526286Y-78843886D01*
X105610494Y-78717859D01*
X105628965Y-78625000D01*
X106045765Y-78625000D01*
X106056914Y-78641686D01*
X106182941Y-78725894D01*
X106331600Y-78755464D01*
X106507436Y-78755464D01*
X106440350Y-78822550D01*
X106336124Y-78978536D01*
X106331600Y-78978536D01*
X106182941Y-79008106D01*
X106056914Y-79092314D01*
X106028793Y-79134400D01*
X105412135Y-79134400D01*
X105227452Y-79171136D01*
X105151062Y-79222178D01*
X105140676Y-79217865D01*
X104807219Y-79217574D01*
X104499034Y-79344914D01*
X104263039Y-79580497D01*
X104135162Y-79888459D01*
X104134871Y-80221916D01*
X104262211Y-80530101D01*
X104497794Y-80766096D01*
X104805756Y-80893973D01*
X105139213Y-80894264D01*
X105447398Y-80766924D01*
X105683393Y-80531341D01*
X105811270Y-80223379D01*
X105811378Y-80099600D01*
X106028793Y-80099600D01*
X106056914Y-80141686D01*
X106182941Y-80225894D01*
X106331600Y-80255464D01*
X107231600Y-80255464D01*
X107380259Y-80225894D01*
X107416721Y-80201531D01*
X107416455Y-80506197D01*
X107543795Y-80814382D01*
X107779378Y-81050377D01*
X108087340Y-81178254D01*
X108420797Y-81178545D01*
X108728982Y-81051205D01*
X108964977Y-80815622D01*
X108970851Y-80801476D01*
X109009000Y-80809064D01*
X109259000Y-80809064D01*
X109268033Y-80807267D01*
X108857899Y-81217401D01*
X108799999Y-81217401D01*
X108615316Y-81254137D01*
X108458749Y-81358751D01*
X108425777Y-81391723D01*
X108421083Y-81388587D01*
X107950000Y-81294883D01*
X107478917Y-81388587D01*
X107079552Y-81655435D01*
X106812704Y-82054800D01*
X106719000Y-82525883D01*
X106719000Y-82574117D01*
X106812704Y-83045200D01*
X107025720Y-83364000D01*
X106312665Y-83364000D01*
X106387652Y-83298056D01*
X106599501Y-82866982D01*
X106539193Y-82677000D01*
X105537000Y-82677000D01*
X105537000Y-82697000D01*
X105283000Y-82697000D01*
X105283000Y-82677000D01*
X104280807Y-82677000D01*
X104220499Y-82866982D01*
X104432348Y-83298056D01*
X104507335Y-83364000D01*
X103794280Y-83364000D01*
X104007296Y-83045200D01*
X104101000Y-82574117D01*
X104101000Y-82525883D01*
X104042746Y-82233018D01*
X104220499Y-82233018D01*
X104280807Y-82423000D01*
X105283000Y-82423000D01*
X105283000Y-81421373D01*
X105537000Y-81421373D01*
X105537000Y-82423000D01*
X106539193Y-82423000D01*
X106599501Y-82233018D01*
X106387652Y-81801944D01*
X106026964Y-81484755D01*
X105726980Y-81360511D01*
X105537000Y-81421373D01*
X105283000Y-81421373D01*
X105093020Y-81360511D01*
X104793036Y-81484755D01*
X104432348Y-81801944D01*
X104220499Y-82233018D01*
X104042746Y-82233018D01*
X104007296Y-82054800D01*
X103740448Y-81655435D01*
X103341083Y-81388587D01*
X102870000Y-81294883D01*
X102398917Y-81388587D01*
X101999552Y-81655435D01*
X101732704Y-82054800D01*
X101639000Y-82525883D01*
X101639000Y-82574117D01*
X101732704Y-83045200D01*
X101945720Y-83364000D01*
X101254280Y-83364000D01*
X101467296Y-83045200D01*
X101561000Y-82574117D01*
X101561000Y-82525883D01*
X101467296Y-82054800D01*
X101200448Y-81655435D01*
X100801083Y-81388587D01*
X100330000Y-81294883D01*
X99882347Y-81383927D01*
X99009200Y-80510780D01*
X99009200Y-77825599D01*
X99085401Y-77825599D01*
X99279804Y-77786930D01*
X99444611Y-77676809D01*
X99605606Y-77515814D01*
X100660800Y-77515814D01*
X100660800Y-77819350D01*
X100756050Y-77914600D01*
X101414800Y-77914600D01*
X101414800Y-77305850D01*
X101319550Y-77210600D01*
X100966015Y-77210600D01*
X100825981Y-77268604D01*
X100718804Y-77375780D01*
X100660800Y-77515814D01*
X99605606Y-77515814D01*
X99651524Y-77469896D01*
X99937197Y-77470145D01*
X100245382Y-77342805D01*
X100448742Y-77139800D01*
X101892780Y-77139800D01*
X101963580Y-77210600D01*
G36*
X114754150Y-79444850D02*
X114884480Y-79531933D01*
X114773197Y-79554069D01*
X114608390Y-79664190D01*
X114454813Y-79817767D01*
X114382388Y-79769374D01*
X114263805Y-79745787D01*
X114022464Y-79504445D01*
X114022464Y-79295600D01*
X113996631Y-79165731D01*
X114015000Y-79121385D01*
X114015000Y-79078350D01*
X113984252Y-79047602D01*
X114015000Y-79047602D01*
X114015000Y-79022266D01*
X114331566Y-79022266D01*
X114754150Y-79444850D01*
X114754150Y-79444850D01*
G37*
X114754150Y-79444850D02*
X114884480Y-79531933D01*
X114773197Y-79554069D01*
X114608390Y-79664190D01*
X114454813Y-79817767D01*
X114382388Y-79769374D01*
X114263805Y-79745787D01*
X114022464Y-79504445D01*
X114022464Y-79295600D01*
X113996631Y-79165731D01*
X114015000Y-79121385D01*
X114015000Y-79078350D01*
X113984252Y-79047602D01*
X114015000Y-79047602D01*
X114015000Y-79022266D01*
X114331566Y-79022266D01*
X114754150Y-79444850D01*
G36*
X134620000Y-78245400D02*
X135122580Y-78245400D01*
X135559536Y-78682356D01*
X135559536Y-78724000D01*
X135589106Y-78872659D01*
X135673314Y-78998686D01*
X135799341Y-79082894D01*
X135948000Y-79112464D01*
X136325678Y-79112464D01*
X136215564Y-79222578D01*
X133536724Y-79222578D01*
X133787997Y-78971305D01*
X133795004Y-78988220D01*
X133902181Y-79095396D01*
X134042215Y-79153400D01*
X134270750Y-79153400D01*
X134366000Y-79058150D01*
X134366000Y-78499400D01*
X134620000Y-78499400D01*
X134620000Y-79058150D01*
X134715250Y-79153400D01*
X134943785Y-79153400D01*
X135083819Y-79095396D01*
X135190996Y-78988220D01*
X135249000Y-78848186D01*
X135249000Y-78594650D01*
X135153750Y-78499400D01*
X134620000Y-78499400D01*
X134366000Y-78499400D01*
X134346000Y-78499400D01*
X134346000Y-78245400D01*
X134366000Y-78245400D01*
X134366000Y-78225400D01*
X134620000Y-78225400D01*
X134620000Y-78245400D01*
X134620000Y-78245400D01*
G37*
X134620000Y-78245400D02*
X135122580Y-78245400D01*
X135559536Y-78682356D01*
X135559536Y-78724000D01*
X135589106Y-78872659D01*
X135673314Y-78998686D01*
X135799341Y-79082894D01*
X135948000Y-79112464D01*
X136325678Y-79112464D01*
X136215564Y-79222578D01*
X133536724Y-79222578D01*
X133787997Y-78971305D01*
X133795004Y-78988220D01*
X133902181Y-79095396D01*
X134042215Y-79153400D01*
X134270750Y-79153400D01*
X134366000Y-79058150D01*
X134366000Y-78499400D01*
X134620000Y-78499400D01*
X134620000Y-79058150D01*
X134715250Y-79153400D01*
X134943785Y-79153400D01*
X135083819Y-79095396D01*
X135190996Y-78988220D01*
X135249000Y-78848186D01*
X135249000Y-78594650D01*
X135153750Y-78499400D01*
X134620000Y-78499400D01*
X134366000Y-78499400D01*
X134346000Y-78499400D01*
X134346000Y-78245400D01*
X134366000Y-78245400D01*
X134366000Y-78225400D01*
X134620000Y-78225400D01*
X134620000Y-78245400D01*
G36*
X97568800Y-77914600D02*
X97588800Y-77914600D01*
X97588800Y-78168600D01*
X97568800Y-78168600D01*
X97568800Y-78188600D01*
X97314800Y-78188600D01*
X97314800Y-78168600D01*
X97294800Y-78168600D01*
X97294800Y-77914600D01*
X97314800Y-77914600D01*
X97314800Y-77894600D01*
X97568800Y-77894600D01*
X97568800Y-77914600D01*
X97568800Y-77914600D01*
G37*
X97568800Y-77914600D02*
X97588800Y-77914600D01*
X97588800Y-78168600D01*
X97568800Y-78168600D01*
X97568800Y-78188600D01*
X97314800Y-78188600D01*
X97314800Y-78168600D01*
X97294800Y-78168600D01*
X97294800Y-77914600D01*
X97314800Y-77914600D01*
X97314800Y-77894600D01*
X97568800Y-77894600D01*
X97568800Y-77914600D01*
G36*
X127760536Y-73830800D02*
X127760536Y-74336764D01*
X127624418Y-74472882D01*
X127509785Y-74425400D01*
X127056250Y-74425400D01*
X126961000Y-74520650D01*
X126961000Y-75379400D01*
X126981000Y-75379400D01*
X126981000Y-75633400D01*
X126961000Y-75633400D01*
X126961000Y-76492150D01*
X127042239Y-76573389D01*
X126997692Y-76617936D01*
X126234000Y-76617936D01*
X126085341Y-76647506D01*
X125982582Y-76716167D01*
X125949819Y-76683404D01*
X125809785Y-76625400D01*
X125356250Y-76625400D01*
X125261000Y-76720650D01*
X125261000Y-77579400D01*
X125281000Y-77579400D01*
X125281000Y-77833400D01*
X125261000Y-77833400D01*
X125261000Y-77853400D01*
X125007000Y-77853400D01*
X125007000Y-77833400D01*
X124987000Y-77833400D01*
X124987000Y-77579400D01*
X125007000Y-77579400D01*
X125007000Y-76720650D01*
X124911750Y-76625400D01*
X124458215Y-76625400D01*
X124438593Y-76633528D01*
X124340192Y-76535126D01*
X124385341Y-76565294D01*
X124534000Y-76594864D01*
X125734000Y-76594864D01*
X125882659Y-76565294D01*
X125985418Y-76496633D01*
X126018181Y-76529396D01*
X126158215Y-76587400D01*
X126611750Y-76587400D01*
X126707000Y-76492150D01*
X126707000Y-75633400D01*
X126687000Y-75633400D01*
X126687000Y-75379400D01*
X126707000Y-75379400D01*
X126707000Y-74520650D01*
X126618925Y-74432575D01*
X126628035Y-74423464D01*
X127134000Y-74423464D01*
X127282659Y-74393894D01*
X127408686Y-74309686D01*
X127492894Y-74183659D01*
X127522464Y-74035000D01*
X127522464Y-73736200D01*
X127779353Y-73736200D01*
X127760536Y-73830800D01*
X127760536Y-73830800D01*
G37*
X127760536Y-73830800D02*
X127760536Y-74336764D01*
X127624418Y-74472882D01*
X127509785Y-74425400D01*
X127056250Y-74425400D01*
X126961000Y-74520650D01*
X126961000Y-75379400D01*
X126981000Y-75379400D01*
X126981000Y-75633400D01*
X126961000Y-75633400D01*
X126961000Y-76492150D01*
X127042239Y-76573389D01*
X126997692Y-76617936D01*
X126234000Y-76617936D01*
X126085341Y-76647506D01*
X125982582Y-76716167D01*
X125949819Y-76683404D01*
X125809785Y-76625400D01*
X125356250Y-76625400D01*
X125261000Y-76720650D01*
X125261000Y-77579400D01*
X125281000Y-77579400D01*
X125281000Y-77833400D01*
X125261000Y-77833400D01*
X125261000Y-77853400D01*
X125007000Y-77853400D01*
X125007000Y-77833400D01*
X124987000Y-77833400D01*
X124987000Y-77579400D01*
X125007000Y-77579400D01*
X125007000Y-76720650D01*
X124911750Y-76625400D01*
X124458215Y-76625400D01*
X124438593Y-76633528D01*
X124340192Y-76535126D01*
X124385341Y-76565294D01*
X124534000Y-76594864D01*
X125734000Y-76594864D01*
X125882659Y-76565294D01*
X125985418Y-76496633D01*
X126018181Y-76529396D01*
X126158215Y-76587400D01*
X126611750Y-76587400D01*
X126707000Y-76492150D01*
X126707000Y-75633400D01*
X126687000Y-75633400D01*
X126687000Y-75379400D01*
X126707000Y-75379400D01*
X126707000Y-74520650D01*
X126618925Y-74432575D01*
X126628035Y-74423464D01*
X127134000Y-74423464D01*
X127282659Y-74393894D01*
X127408686Y-74309686D01*
X127492894Y-74183659D01*
X127522464Y-74035000D01*
X127522464Y-73736200D01*
X127779353Y-73736200D01*
X127760536Y-73830800D01*
G36*
X104705906Y-75692859D02*
X104790114Y-75818886D01*
X104916141Y-75903094D01*
X105056114Y-75930936D01*
X105003600Y-75983450D01*
X105003600Y-76542200D01*
X105537350Y-76542200D01*
X105632600Y-76446950D01*
X105632600Y-76193414D01*
X105574596Y-76053380D01*
X105467419Y-75946204D01*
X105434731Y-75932664D01*
X106364800Y-75932664D01*
X106509255Y-75903930D01*
X106476946Y-75981740D01*
X106476655Y-76315197D01*
X106603995Y-76623382D01*
X106839578Y-76859377D01*
X107147540Y-76987254D01*
X107480997Y-76987545D01*
X107685127Y-76903200D01*
X107745536Y-76903200D01*
X107745536Y-77045600D01*
X107771369Y-77175469D01*
X107753000Y-77219815D01*
X107753000Y-77262850D01*
X107783748Y-77293598D01*
X107753000Y-77293598D01*
X107753000Y-77412600D01*
X106978000Y-77412600D01*
X106783597Y-77451269D01*
X106742789Y-77478536D01*
X106331600Y-77478536D01*
X106182941Y-77508106D01*
X106056914Y-77592314D01*
X106045765Y-77609000D01*
X105602783Y-77609000D01*
X105526286Y-77494514D01*
X105409229Y-77416299D01*
X105467419Y-77392196D01*
X105574596Y-77285020D01*
X105632600Y-77144986D01*
X105632600Y-76891450D01*
X105537350Y-76796200D01*
X105003600Y-76796200D01*
X105003600Y-76816200D01*
X104749600Y-76816200D01*
X104749600Y-76796200D01*
X104222020Y-76796200D01*
X104193010Y-76767190D01*
X104091920Y-76699644D01*
X104026486Y-76601714D01*
X103900459Y-76517506D01*
X103783149Y-76494172D01*
X103843494Y-76403859D01*
X103873064Y-76255200D01*
X103873064Y-76203769D01*
X104037483Y-76171064D01*
X104165208Y-76085722D01*
X104120600Y-76193414D01*
X104120600Y-76446950D01*
X104215850Y-76542200D01*
X104749600Y-76542200D01*
X104749600Y-75983450D01*
X104654350Y-75888200D01*
X104425815Y-75888200D01*
X104334459Y-75926041D01*
X104583699Y-75676800D01*
X104702712Y-75676800D01*
X104705906Y-75692859D01*
X104705906Y-75692859D01*
G37*
X104705906Y-75692859D02*
X104790114Y-75818886D01*
X104916141Y-75903094D01*
X105056114Y-75930936D01*
X105003600Y-75983450D01*
X105003600Y-76542200D01*
X105537350Y-76542200D01*
X105632600Y-76446950D01*
X105632600Y-76193414D01*
X105574596Y-76053380D01*
X105467419Y-75946204D01*
X105434731Y-75932664D01*
X106364800Y-75932664D01*
X106509255Y-75903930D01*
X106476946Y-75981740D01*
X106476655Y-76315197D01*
X106603995Y-76623382D01*
X106839578Y-76859377D01*
X107147540Y-76987254D01*
X107480997Y-76987545D01*
X107685127Y-76903200D01*
X107745536Y-76903200D01*
X107745536Y-77045600D01*
X107771369Y-77175469D01*
X107753000Y-77219815D01*
X107753000Y-77262850D01*
X107783748Y-77293598D01*
X107753000Y-77293598D01*
X107753000Y-77412600D01*
X106978000Y-77412600D01*
X106783597Y-77451269D01*
X106742789Y-77478536D01*
X106331600Y-77478536D01*
X106182941Y-77508106D01*
X106056914Y-77592314D01*
X106045765Y-77609000D01*
X105602783Y-77609000D01*
X105526286Y-77494514D01*
X105409229Y-77416299D01*
X105467419Y-77392196D01*
X105574596Y-77285020D01*
X105632600Y-77144986D01*
X105632600Y-76891450D01*
X105537350Y-76796200D01*
X105003600Y-76796200D01*
X105003600Y-76816200D01*
X104749600Y-76816200D01*
X104749600Y-76796200D01*
X104222020Y-76796200D01*
X104193010Y-76767190D01*
X104091920Y-76699644D01*
X104026486Y-76601714D01*
X103900459Y-76517506D01*
X103783149Y-76494172D01*
X103843494Y-76403859D01*
X103873064Y-76255200D01*
X103873064Y-76203769D01*
X104037483Y-76171064D01*
X104165208Y-76085722D01*
X104120600Y-76193414D01*
X104120600Y-76446950D01*
X104215850Y-76542200D01*
X104749600Y-76542200D01*
X104749600Y-75983450D01*
X104654350Y-75888200D01*
X104425815Y-75888200D01*
X104334459Y-75926041D01*
X104583699Y-75676800D01*
X104702712Y-75676800D01*
X104705906Y-75692859D01*
G36*
X128651000Y-75603800D02*
X128671000Y-75603800D01*
X128671000Y-75857800D01*
X128651000Y-75857800D01*
X128651000Y-76416550D01*
X128746250Y-76511800D01*
X128974785Y-76511800D01*
X129114819Y-76453796D01*
X129221996Y-76346620D01*
X129280000Y-76206586D01*
X129280000Y-76111620D01*
X129438400Y-76270020D01*
X129438400Y-76700600D01*
X129441456Y-76715965D01*
X129361314Y-76769514D01*
X129283099Y-76886571D01*
X129258996Y-76828381D01*
X129151820Y-76721204D01*
X129011786Y-76663200D01*
X128758250Y-76663200D01*
X128663000Y-76758450D01*
X128663000Y-77292200D01*
X128683000Y-77292200D01*
X128683000Y-77546200D01*
X128663000Y-77546200D01*
X128663000Y-77566200D01*
X128409000Y-77566200D01*
X128409000Y-77546200D01*
X128389000Y-77546200D01*
X128389000Y-77292200D01*
X128409000Y-77292200D01*
X128409000Y-76758450D01*
X128313750Y-76663200D01*
X128200739Y-76663200D01*
X128221401Y-76559327D01*
X128221401Y-76511800D01*
X128301750Y-76511800D01*
X128397000Y-76416550D01*
X128397000Y-75857800D01*
X128377000Y-75857800D01*
X128377000Y-75603800D01*
X128397000Y-75603800D01*
X128397000Y-75583800D01*
X128651000Y-75583800D01*
X128651000Y-75603800D01*
X128651000Y-75603800D01*
G37*
X128651000Y-75603800D02*
X128671000Y-75603800D01*
X128671000Y-75857800D01*
X128651000Y-75857800D01*
X128651000Y-76416550D01*
X128746250Y-76511800D01*
X128974785Y-76511800D01*
X129114819Y-76453796D01*
X129221996Y-76346620D01*
X129280000Y-76206586D01*
X129280000Y-76111620D01*
X129438400Y-76270020D01*
X129438400Y-76700600D01*
X129441456Y-76715965D01*
X129361314Y-76769514D01*
X129283099Y-76886571D01*
X129258996Y-76828381D01*
X129151820Y-76721204D01*
X129011786Y-76663200D01*
X128758250Y-76663200D01*
X128663000Y-76758450D01*
X128663000Y-77292200D01*
X128683000Y-77292200D01*
X128683000Y-77546200D01*
X128663000Y-77546200D01*
X128663000Y-77566200D01*
X128409000Y-77566200D01*
X128409000Y-77546200D01*
X128389000Y-77546200D01*
X128389000Y-77292200D01*
X128409000Y-77292200D01*
X128409000Y-76758450D01*
X128313750Y-76663200D01*
X128200739Y-76663200D01*
X128221401Y-76559327D01*
X128221401Y-76511800D01*
X128301750Y-76511800D01*
X128397000Y-76416550D01*
X128397000Y-75857800D01*
X128377000Y-75857800D01*
X128377000Y-75603800D01*
X128397000Y-75603800D01*
X128397000Y-75583800D01*
X128651000Y-75583800D01*
X128651000Y-75603800D01*
G36*
X128756764Y-72340600D02*
X128244600Y-72340600D01*
X128244600Y-72360600D01*
X127990600Y-72360600D01*
X127990600Y-72340600D01*
X127456850Y-72340600D01*
X127375000Y-72422450D01*
X127355950Y-72403400D01*
X126822200Y-72403400D01*
X126822200Y-72423400D01*
X126568200Y-72423400D01*
X126568200Y-72403400D01*
X126034450Y-72403400D01*
X125984000Y-72453850D01*
X125933550Y-72403400D01*
X125399800Y-72403400D01*
X125399800Y-72960450D01*
X125361000Y-72999250D01*
X125361000Y-73533000D01*
X125381000Y-73533000D01*
X125381000Y-73787000D01*
X125361000Y-73787000D01*
X125361000Y-74320750D01*
X125363375Y-74323125D01*
X125268564Y-74417936D01*
X124534000Y-74417936D01*
X124385341Y-74447506D01*
X124259314Y-74531714D01*
X124175106Y-74657741D01*
X124145536Y-74806400D01*
X124145536Y-76206400D01*
X124175106Y-76355059D01*
X124205273Y-76400208D01*
X123940558Y-76135492D01*
X123940558Y-75326030D01*
X123903822Y-75141347D01*
X123799208Y-74984780D01*
X123074244Y-74259816D01*
X122917677Y-74155202D01*
X122732994Y-74118466D01*
X122511226Y-74118466D01*
X122747442Y-73882250D01*
X124453000Y-73882250D01*
X124453000Y-74110785D01*
X124511004Y-74250819D01*
X124618180Y-74357996D01*
X124758214Y-74416000D01*
X125011750Y-74416000D01*
X125107000Y-74320750D01*
X125107000Y-73787000D01*
X124548250Y-73787000D01*
X124453000Y-73882250D01*
X122747442Y-73882250D01*
X123009812Y-73619880D01*
X123119933Y-73455073D01*
X123158602Y-73260670D01*
X123158602Y-73209215D01*
X124453000Y-73209215D01*
X124453000Y-73437750D01*
X124548250Y-73533000D01*
X125107000Y-73533000D01*
X125107000Y-73000950D01*
X125145800Y-72962150D01*
X125145800Y-72403400D01*
X124612050Y-72403400D01*
X124516800Y-72498650D01*
X124516800Y-72752186D01*
X124574804Y-72892220D01*
X124636854Y-72954269D01*
X124618180Y-72962004D01*
X124511004Y-73069181D01*
X124453000Y-73209215D01*
X123158602Y-73209215D01*
X123158602Y-72238861D01*
X123251741Y-72301094D01*
X123400400Y-72330664D01*
X124300400Y-72330664D01*
X124449059Y-72301094D01*
X124575086Y-72216886D01*
X124620178Y-72149400D01*
X125145800Y-72149400D01*
X125145800Y-72129400D01*
X125399800Y-72129400D01*
X125399800Y-72149400D01*
X125933550Y-72149400D01*
X125984000Y-72098950D01*
X126034450Y-72149400D01*
X126568200Y-72149400D01*
X126568200Y-72129400D01*
X126822200Y-72129400D01*
X126822200Y-72149400D01*
X127355950Y-72149400D01*
X127437800Y-72067550D01*
X127456850Y-72086600D01*
X127990600Y-72086600D01*
X127990600Y-72066600D01*
X128244600Y-72066600D01*
X128244600Y-72086600D01*
X128778350Y-72086600D01*
X128873600Y-71991350D01*
X128873600Y-71955660D01*
X129141704Y-71955660D01*
X128756764Y-72340600D01*
X128756764Y-72340600D01*
G37*
X128756764Y-72340600D02*
X128244600Y-72340600D01*
X128244600Y-72360600D01*
X127990600Y-72360600D01*
X127990600Y-72340600D01*
X127456850Y-72340600D01*
X127375000Y-72422450D01*
X127355950Y-72403400D01*
X126822200Y-72403400D01*
X126822200Y-72423400D01*
X126568200Y-72423400D01*
X126568200Y-72403400D01*
X126034450Y-72403400D01*
X125984000Y-72453850D01*
X125933550Y-72403400D01*
X125399800Y-72403400D01*
X125399800Y-72960450D01*
X125361000Y-72999250D01*
X125361000Y-73533000D01*
X125381000Y-73533000D01*
X125381000Y-73787000D01*
X125361000Y-73787000D01*
X125361000Y-74320750D01*
X125363375Y-74323125D01*
X125268564Y-74417936D01*
X124534000Y-74417936D01*
X124385341Y-74447506D01*
X124259314Y-74531714D01*
X124175106Y-74657741D01*
X124145536Y-74806400D01*
X124145536Y-76206400D01*
X124175106Y-76355059D01*
X124205273Y-76400208D01*
X123940558Y-76135492D01*
X123940558Y-75326030D01*
X123903822Y-75141347D01*
X123799208Y-74984780D01*
X123074244Y-74259816D01*
X122917677Y-74155202D01*
X122732994Y-74118466D01*
X122511226Y-74118466D01*
X122747442Y-73882250D01*
X124453000Y-73882250D01*
X124453000Y-74110785D01*
X124511004Y-74250819D01*
X124618180Y-74357996D01*
X124758214Y-74416000D01*
X125011750Y-74416000D01*
X125107000Y-74320750D01*
X125107000Y-73787000D01*
X124548250Y-73787000D01*
X124453000Y-73882250D01*
X122747442Y-73882250D01*
X123009812Y-73619880D01*
X123119933Y-73455073D01*
X123158602Y-73260670D01*
X123158602Y-73209215D01*
X124453000Y-73209215D01*
X124453000Y-73437750D01*
X124548250Y-73533000D01*
X125107000Y-73533000D01*
X125107000Y-73000950D01*
X125145800Y-72962150D01*
X125145800Y-72403400D01*
X124612050Y-72403400D01*
X124516800Y-72498650D01*
X124516800Y-72752186D01*
X124574804Y-72892220D01*
X124636854Y-72954269D01*
X124618180Y-72962004D01*
X124511004Y-73069181D01*
X124453000Y-73209215D01*
X123158602Y-73209215D01*
X123158602Y-72238861D01*
X123251741Y-72301094D01*
X123400400Y-72330664D01*
X124300400Y-72330664D01*
X124449059Y-72301094D01*
X124575086Y-72216886D01*
X124620178Y-72149400D01*
X125145800Y-72149400D01*
X125145800Y-72129400D01*
X125399800Y-72129400D01*
X125399800Y-72149400D01*
X125933550Y-72149400D01*
X125984000Y-72098950D01*
X126034450Y-72149400D01*
X126568200Y-72149400D01*
X126568200Y-72129400D01*
X126822200Y-72129400D01*
X126822200Y-72149400D01*
X127355950Y-72149400D01*
X127437800Y-72067550D01*
X127456850Y-72086600D01*
X127990600Y-72086600D01*
X127990600Y-72066600D01*
X128244600Y-72066600D01*
X128244600Y-72086600D01*
X128778350Y-72086600D01*
X128873600Y-71991350D01*
X128873600Y-71955660D01*
X129141704Y-71955660D01*
X128756764Y-72340600D01*
G36*
X119665914Y-71508442D02*
X119699422Y-71516089D01*
X119735871Y-71517111D01*
X119746210Y-71519778D01*
X119753480Y-71518752D01*
X119760333Y-71521368D01*
X119771014Y-71521068D01*
X119806797Y-71528186D01*
X119841165Y-71528186D01*
X119876962Y-71521065D01*
X119887649Y-71521365D01*
X119894482Y-71518757D01*
X119901724Y-71519779D01*
X119912075Y-71517109D01*
X119948560Y-71516085D01*
X119964201Y-71512515D01*
X119964201Y-72673186D01*
X119870420Y-72579404D01*
X119730386Y-72521400D01*
X119576850Y-72521400D01*
X119481600Y-72616650D01*
X119481600Y-73525400D01*
X119501600Y-73525400D01*
X119501600Y-73779400D01*
X119481600Y-73779400D01*
X119481600Y-73799400D01*
X119227600Y-73799400D01*
X119227600Y-73779400D01*
X119207600Y-73779400D01*
X119207600Y-73525400D01*
X119227600Y-73525400D01*
X119227600Y-72616650D01*
X119172001Y-72561051D01*
X119172001Y-72010497D01*
X119517126Y-71665371D01*
X119532309Y-71642648D01*
X119553188Y-71625017D01*
X119581558Y-71589442D01*
X119606445Y-71541268D01*
X119616687Y-71527659D01*
X119617580Y-71526815D01*
X119617958Y-71525971D01*
X119639052Y-71497942D01*
X119639654Y-71496692D01*
X119665914Y-71508442D01*
X119665914Y-71508442D01*
G37*
X119665914Y-71508442D02*
X119699422Y-71516089D01*
X119735871Y-71517111D01*
X119746210Y-71519778D01*
X119753480Y-71518752D01*
X119760333Y-71521368D01*
X119771014Y-71521068D01*
X119806797Y-71528186D01*
X119841165Y-71528186D01*
X119876962Y-71521065D01*
X119887649Y-71521365D01*
X119894482Y-71518757D01*
X119901724Y-71519779D01*
X119912075Y-71517109D01*
X119948560Y-71516085D01*
X119964201Y-71512515D01*
X119964201Y-72673186D01*
X119870420Y-72579404D01*
X119730386Y-72521400D01*
X119576850Y-72521400D01*
X119481600Y-72616650D01*
X119481600Y-73525400D01*
X119501600Y-73525400D01*
X119501600Y-73779400D01*
X119481600Y-73779400D01*
X119481600Y-73799400D01*
X119227600Y-73799400D01*
X119227600Y-73779400D01*
X119207600Y-73779400D01*
X119207600Y-73525400D01*
X119227600Y-73525400D01*
X119227600Y-72616650D01*
X119172001Y-72561051D01*
X119172001Y-72010497D01*
X119517126Y-71665371D01*
X119532309Y-71642648D01*
X119553188Y-71625017D01*
X119581558Y-71589442D01*
X119606445Y-71541268D01*
X119616687Y-71527659D01*
X119617580Y-71526815D01*
X119617958Y-71525971D01*
X119639052Y-71497942D01*
X119639654Y-71496692D01*
X119665914Y-71508442D01*
G36*
X108901800Y-63559993D02*
X108859714Y-63588114D01*
X108775506Y-63714141D01*
X108745936Y-63862800D01*
X108745936Y-64762800D01*
X108775506Y-64911459D01*
X108859714Y-65037486D01*
X108901800Y-65065607D01*
X108901800Y-65891501D01*
X107573150Y-67220150D01*
X107468536Y-67376717D01*
X107431800Y-67561400D01*
X107431800Y-68933880D01*
X107314714Y-69012114D01*
X107230506Y-69138141D01*
X107200936Y-69286800D01*
X107200936Y-70346800D01*
X107230506Y-70495459D01*
X107314714Y-70621486D01*
X107440741Y-70705694D01*
X107589400Y-70735264D01*
X108239400Y-70735264D01*
X108388059Y-70705694D01*
X108396550Y-70700021D01*
X108463615Y-70727800D01*
X108642150Y-70727800D01*
X108737400Y-70632550D01*
X108737400Y-69943800D01*
X108717400Y-69943800D01*
X108717400Y-69689800D01*
X108737400Y-69689800D01*
X108737400Y-69001050D01*
X108642150Y-68905800D01*
X108463615Y-68905800D01*
X108397000Y-68933393D01*
X108397000Y-67761300D01*
X109377206Y-66781093D01*
X109397514Y-66811486D01*
X109523541Y-66895694D01*
X109672200Y-66925264D01*
X110322200Y-66925264D01*
X110470859Y-66895694D01*
X110479350Y-66890021D01*
X110546415Y-66917800D01*
X110724950Y-66917800D01*
X110820200Y-66822550D01*
X110820200Y-66133800D01*
X110800200Y-66133800D01*
X110800200Y-65879800D01*
X110820200Y-65879800D01*
X110820200Y-65859800D01*
X111074200Y-65859800D01*
X111074200Y-65879800D01*
X111094200Y-65879800D01*
X111094200Y-66133800D01*
X111074200Y-66133800D01*
X111074200Y-66822550D01*
X111156510Y-66904860D01*
X110882789Y-67178580D01*
X110772668Y-67343387D01*
X110733999Y-67537790D01*
X110733999Y-68757781D01*
X110699660Y-68792120D01*
X110710664Y-68736800D01*
X110710664Y-67676800D01*
X110681094Y-67528141D01*
X110596886Y-67402114D01*
X110470859Y-67317906D01*
X110322200Y-67288336D01*
X109672200Y-67288336D01*
X109523541Y-67317906D01*
X109397514Y-67402114D01*
X109313306Y-67528141D01*
X109283736Y-67676800D01*
X109283736Y-68736800D01*
X109313306Y-68885459D01*
X109341559Y-68927743D01*
X109340741Y-68927906D01*
X109332250Y-68933579D01*
X109265185Y-68905800D01*
X109086650Y-68905800D01*
X108991400Y-69001050D01*
X108991400Y-69689800D01*
X109011400Y-69689800D01*
X109011400Y-69943800D01*
X108991400Y-69943800D01*
X108991400Y-70632550D01*
X109086650Y-70727800D01*
X109265185Y-70727800D01*
X109332250Y-70700021D01*
X109340741Y-70705694D01*
X109489400Y-70735264D01*
X110139400Y-70735264D01*
X110288059Y-70705694D01*
X110414086Y-70621486D01*
X110498294Y-70495459D01*
X110527864Y-70346800D01*
X110527864Y-70298054D01*
X110587803Y-70286131D01*
X110752610Y-70176010D01*
X111601209Y-69327411D01*
X111711330Y-69162605D01*
X111718758Y-69125264D01*
X111892244Y-69125264D01*
X112315790Y-69548810D01*
X112480596Y-69658931D01*
X112496062Y-69662007D01*
X112496795Y-69663782D01*
X112732378Y-69899777D01*
X113040340Y-70027654D01*
X113373797Y-70027945D01*
X113681982Y-69900605D01*
X113917977Y-69665022D01*
X114045854Y-69357060D01*
X114046125Y-69046199D01*
X114108931Y-68952204D01*
X114121544Y-68888794D01*
X114134302Y-68824654D01*
X114163259Y-68818894D01*
X114289286Y-68734686D01*
X114373494Y-68608659D01*
X114385478Y-68548412D01*
X114481403Y-68529331D01*
X114646210Y-68419210D01*
X114728708Y-68336712D01*
X114729950Y-68338364D01*
X114754845Y-68386548D01*
X114783217Y-68422123D01*
X114804089Y-68439747D01*
X114819269Y-68462465D01*
X114974955Y-68618151D01*
X114949073Y-68631522D01*
X114913498Y-68659893D01*
X114895871Y-68680769D01*
X114873150Y-68695950D01*
X114835606Y-68752139D01*
X114792014Y-68803764D01*
X114783717Y-68829797D01*
X114768536Y-68852517D01*
X114755354Y-68918787D01*
X114734833Y-68983173D01*
X114737130Y-69010403D01*
X114731800Y-69037200D01*
X114731800Y-70301529D01*
X114768536Y-70486212D01*
X114873150Y-70642779D01*
X115029717Y-70747393D01*
X115214400Y-70784129D01*
X115222444Y-70782529D01*
X115697000Y-70782529D01*
X115697000Y-72513936D01*
X115366801Y-72513936D01*
X115366801Y-72342247D01*
X115328132Y-72147844D01*
X115218011Y-71983037D01*
X114757763Y-71522789D01*
X114592956Y-71412668D01*
X114398553Y-71373999D01*
X113718338Y-71373999D01*
X113773600Y-71240585D01*
X113773600Y-71012050D01*
X113678350Y-70916800D01*
X113119600Y-70916800D01*
X113119600Y-70936800D01*
X112865600Y-70936800D01*
X112865600Y-70916800D01*
X112845600Y-70916800D01*
X112845600Y-70662800D01*
X112865600Y-70662800D01*
X112865600Y-70129050D01*
X113119600Y-70129050D01*
X113119600Y-70662800D01*
X113678350Y-70662800D01*
X113773600Y-70567550D01*
X113773600Y-70339015D01*
X113715596Y-70198981D01*
X113608420Y-70091804D01*
X113468386Y-70033800D01*
X113214850Y-70033800D01*
X113119600Y-70129050D01*
X112865600Y-70129050D01*
X112770350Y-70033800D01*
X112516814Y-70033800D01*
X112376780Y-70091804D01*
X112269604Y-70198981D01*
X112245501Y-70257171D01*
X112167286Y-70140114D01*
X112041259Y-70055906D01*
X111892600Y-70026336D01*
X111092600Y-70026336D01*
X110943941Y-70055906D01*
X110817914Y-70140114D01*
X110733706Y-70266141D01*
X110704136Y-70414800D01*
X110704136Y-70859844D01*
X110376788Y-71187192D01*
X110288059Y-71127906D01*
X110139400Y-71098336D01*
X109489400Y-71098336D01*
X109340741Y-71127906D01*
X109214714Y-71212114D01*
X109130506Y-71338141D01*
X109100936Y-71486800D01*
X109100936Y-72546800D01*
X109103460Y-72559488D01*
X108930857Y-72731790D01*
X108859688Y-72903185D01*
X108828979Y-72882666D01*
X108644296Y-72845930D01*
X108477503Y-72845930D01*
X108514086Y-72821486D01*
X108598294Y-72695459D01*
X108627864Y-72546800D01*
X108627864Y-71486800D01*
X108598294Y-71338141D01*
X108514086Y-71212114D01*
X108388059Y-71127906D01*
X108239400Y-71098336D01*
X107589400Y-71098336D01*
X107440741Y-71127906D01*
X107314714Y-71212114D01*
X107230506Y-71338141D01*
X107200936Y-71486800D01*
X107200936Y-72546800D01*
X107230506Y-72695459D01*
X107314714Y-72821486D01*
X107440741Y-72905694D01*
X107579461Y-72933287D01*
X107498654Y-72987280D01*
X107498652Y-72987283D01*
X107030404Y-73455530D01*
X106684880Y-73455530D01*
X106650550Y-73421200D01*
X105841800Y-73421200D01*
X105841800Y-73441200D01*
X105587800Y-73441200D01*
X105587800Y-73421200D01*
X104779050Y-73421200D01*
X104683800Y-73516450D01*
X104683800Y-73583800D01*
X104206434Y-73583800D01*
X104021751Y-73620536D01*
X103873064Y-73719885D01*
X103873064Y-73289236D01*
X104293885Y-72868414D01*
X104683800Y-72868414D01*
X104683800Y-73071950D01*
X104779050Y-73167200D01*
X105587800Y-73167200D01*
X105587800Y-72658450D01*
X105841800Y-72658450D01*
X105841800Y-73167200D01*
X106650550Y-73167200D01*
X106745800Y-73071950D01*
X106745800Y-72868414D01*
X106687796Y-72728380D01*
X106580619Y-72621204D01*
X106440585Y-72563200D01*
X105937050Y-72563200D01*
X105841800Y-72658450D01*
X105587800Y-72658450D01*
X105492550Y-72563200D01*
X104989015Y-72563200D01*
X104848981Y-72621204D01*
X104741804Y-72728380D01*
X104683800Y-72868414D01*
X104293885Y-72868414D01*
X105060367Y-72101932D01*
X105060370Y-72101930D01*
X105164984Y-71945363D01*
X105201720Y-71760680D01*
X105201720Y-71441175D01*
X105298359Y-71344535D01*
X105397689Y-71444039D01*
X105705651Y-71571916D01*
X106039108Y-71572207D01*
X106347293Y-71444867D01*
X106583288Y-71209284D01*
X106711165Y-70901322D01*
X106711456Y-70567865D01*
X106584116Y-70259680D01*
X106348533Y-70023685D01*
X106040571Y-69895808D01*
X105707114Y-69895517D01*
X105398929Y-70022857D01*
X105162934Y-70258440D01*
X105160457Y-70264405D01*
X105041850Y-70287998D01*
X104885283Y-70392612D01*
X104885281Y-70392615D01*
X104377870Y-70900025D01*
X104273256Y-71056592D01*
X104236520Y-71241275D01*
X104236520Y-71560781D01*
X103691425Y-72105875D01*
X103645350Y-72059800D01*
X103086600Y-72059800D01*
X103086600Y-72079800D01*
X102832600Y-72079800D01*
X102832600Y-72059800D01*
X102812600Y-72059800D01*
X102812600Y-71805800D01*
X102832600Y-71805800D01*
X102832600Y-71785800D01*
X103086600Y-71785800D01*
X103086600Y-71805800D01*
X103645350Y-71805800D01*
X103740600Y-71710550D01*
X103740600Y-71482015D01*
X103682596Y-71341981D01*
X103575420Y-71234804D01*
X103435386Y-71176800D01*
X103181850Y-71176800D01*
X103086602Y-71272048D01*
X103086602Y-71176800D01*
X103068620Y-71176800D01*
X103191956Y-71053464D01*
X103862000Y-71053464D01*
X104010659Y-71023894D01*
X104136686Y-70939686D01*
X104220894Y-70813659D01*
X104250464Y-70665000D01*
X104250464Y-67494956D01*
X104831660Y-66913760D01*
X106923840Y-66913760D01*
X107118243Y-66875091D01*
X107283050Y-66764970D01*
X108309210Y-65738811D01*
X108419331Y-65574004D01*
X108431135Y-65514659D01*
X108458000Y-65379600D01*
X108458000Y-63468464D01*
X108800000Y-63468464D01*
X108901800Y-63448215D01*
X108901800Y-63559993D01*
X108901800Y-63559993D01*
G37*
X108901800Y-63559993D02*
X108859714Y-63588114D01*
X108775506Y-63714141D01*
X108745936Y-63862800D01*
X108745936Y-64762800D01*
X108775506Y-64911459D01*
X108859714Y-65037486D01*
X108901800Y-65065607D01*
X108901800Y-65891501D01*
X107573150Y-67220150D01*
X107468536Y-67376717D01*
X107431800Y-67561400D01*
X107431800Y-68933880D01*
X107314714Y-69012114D01*
X107230506Y-69138141D01*
X107200936Y-69286800D01*
X107200936Y-70346800D01*
X107230506Y-70495459D01*
X107314714Y-70621486D01*
X107440741Y-70705694D01*
X107589400Y-70735264D01*
X108239400Y-70735264D01*
X108388059Y-70705694D01*
X108396550Y-70700021D01*
X108463615Y-70727800D01*
X108642150Y-70727800D01*
X108737400Y-70632550D01*
X108737400Y-69943800D01*
X108717400Y-69943800D01*
X108717400Y-69689800D01*
X108737400Y-69689800D01*
X108737400Y-69001050D01*
X108642150Y-68905800D01*
X108463615Y-68905800D01*
X108397000Y-68933393D01*
X108397000Y-67761300D01*
X109377206Y-66781093D01*
X109397514Y-66811486D01*
X109523541Y-66895694D01*
X109672200Y-66925264D01*
X110322200Y-66925264D01*
X110470859Y-66895694D01*
X110479350Y-66890021D01*
X110546415Y-66917800D01*
X110724950Y-66917800D01*
X110820200Y-66822550D01*
X110820200Y-66133800D01*
X110800200Y-66133800D01*
X110800200Y-65879800D01*
X110820200Y-65879800D01*
X110820200Y-65859800D01*
X111074200Y-65859800D01*
X111074200Y-65879800D01*
X111094200Y-65879800D01*
X111094200Y-66133800D01*
X111074200Y-66133800D01*
X111074200Y-66822550D01*
X111156510Y-66904860D01*
X110882789Y-67178580D01*
X110772668Y-67343387D01*
X110733999Y-67537790D01*
X110733999Y-68757781D01*
X110699660Y-68792120D01*
X110710664Y-68736800D01*
X110710664Y-67676800D01*
X110681094Y-67528141D01*
X110596886Y-67402114D01*
X110470859Y-67317906D01*
X110322200Y-67288336D01*
X109672200Y-67288336D01*
X109523541Y-67317906D01*
X109397514Y-67402114D01*
X109313306Y-67528141D01*
X109283736Y-67676800D01*
X109283736Y-68736800D01*
X109313306Y-68885459D01*
X109341559Y-68927743D01*
X109340741Y-68927906D01*
X109332250Y-68933579D01*
X109265185Y-68905800D01*
X109086650Y-68905800D01*
X108991400Y-69001050D01*
X108991400Y-69689800D01*
X109011400Y-69689800D01*
X109011400Y-69943800D01*
X108991400Y-69943800D01*
X108991400Y-70632550D01*
X109086650Y-70727800D01*
X109265185Y-70727800D01*
X109332250Y-70700021D01*
X109340741Y-70705694D01*
X109489400Y-70735264D01*
X110139400Y-70735264D01*
X110288059Y-70705694D01*
X110414086Y-70621486D01*
X110498294Y-70495459D01*
X110527864Y-70346800D01*
X110527864Y-70298054D01*
X110587803Y-70286131D01*
X110752610Y-70176010D01*
X111601209Y-69327411D01*
X111711330Y-69162605D01*
X111718758Y-69125264D01*
X111892244Y-69125264D01*
X112315790Y-69548810D01*
X112480596Y-69658931D01*
X112496062Y-69662007D01*
X112496795Y-69663782D01*
X112732378Y-69899777D01*
X113040340Y-70027654D01*
X113373797Y-70027945D01*
X113681982Y-69900605D01*
X113917977Y-69665022D01*
X114045854Y-69357060D01*
X114046125Y-69046199D01*
X114108931Y-68952204D01*
X114121544Y-68888794D01*
X114134302Y-68824654D01*
X114163259Y-68818894D01*
X114289286Y-68734686D01*
X114373494Y-68608659D01*
X114385478Y-68548412D01*
X114481403Y-68529331D01*
X114646210Y-68419210D01*
X114728708Y-68336712D01*
X114729950Y-68338364D01*
X114754845Y-68386548D01*
X114783217Y-68422123D01*
X114804089Y-68439747D01*
X114819269Y-68462465D01*
X114974955Y-68618151D01*
X114949073Y-68631522D01*
X114913498Y-68659893D01*
X114895871Y-68680769D01*
X114873150Y-68695950D01*
X114835606Y-68752139D01*
X114792014Y-68803764D01*
X114783717Y-68829797D01*
X114768536Y-68852517D01*
X114755354Y-68918787D01*
X114734833Y-68983173D01*
X114737130Y-69010403D01*
X114731800Y-69037200D01*
X114731800Y-70301529D01*
X114768536Y-70486212D01*
X114873150Y-70642779D01*
X115029717Y-70747393D01*
X115214400Y-70784129D01*
X115222444Y-70782529D01*
X115697000Y-70782529D01*
X115697000Y-72513936D01*
X115366801Y-72513936D01*
X115366801Y-72342247D01*
X115328132Y-72147844D01*
X115218011Y-71983037D01*
X114757763Y-71522789D01*
X114592956Y-71412668D01*
X114398553Y-71373999D01*
X113718338Y-71373999D01*
X113773600Y-71240585D01*
X113773600Y-71012050D01*
X113678350Y-70916800D01*
X113119600Y-70916800D01*
X113119600Y-70936800D01*
X112865600Y-70936800D01*
X112865600Y-70916800D01*
X112845600Y-70916800D01*
X112845600Y-70662800D01*
X112865600Y-70662800D01*
X112865600Y-70129050D01*
X113119600Y-70129050D01*
X113119600Y-70662800D01*
X113678350Y-70662800D01*
X113773600Y-70567550D01*
X113773600Y-70339015D01*
X113715596Y-70198981D01*
X113608420Y-70091804D01*
X113468386Y-70033800D01*
X113214850Y-70033800D01*
X113119600Y-70129050D01*
X112865600Y-70129050D01*
X112770350Y-70033800D01*
X112516814Y-70033800D01*
X112376780Y-70091804D01*
X112269604Y-70198981D01*
X112245501Y-70257171D01*
X112167286Y-70140114D01*
X112041259Y-70055906D01*
X111892600Y-70026336D01*
X111092600Y-70026336D01*
X110943941Y-70055906D01*
X110817914Y-70140114D01*
X110733706Y-70266141D01*
X110704136Y-70414800D01*
X110704136Y-70859844D01*
X110376788Y-71187192D01*
X110288059Y-71127906D01*
X110139400Y-71098336D01*
X109489400Y-71098336D01*
X109340741Y-71127906D01*
X109214714Y-71212114D01*
X109130506Y-71338141D01*
X109100936Y-71486800D01*
X109100936Y-72546800D01*
X109103460Y-72559488D01*
X108930857Y-72731790D01*
X108859688Y-72903185D01*
X108828979Y-72882666D01*
X108644296Y-72845930D01*
X108477503Y-72845930D01*
X108514086Y-72821486D01*
X108598294Y-72695459D01*
X108627864Y-72546800D01*
X108627864Y-71486800D01*
X108598294Y-71338141D01*
X108514086Y-71212114D01*
X108388059Y-71127906D01*
X108239400Y-71098336D01*
X107589400Y-71098336D01*
X107440741Y-71127906D01*
X107314714Y-71212114D01*
X107230506Y-71338141D01*
X107200936Y-71486800D01*
X107200936Y-72546800D01*
X107230506Y-72695459D01*
X107314714Y-72821486D01*
X107440741Y-72905694D01*
X107579461Y-72933287D01*
X107498654Y-72987280D01*
X107498652Y-72987283D01*
X107030404Y-73455530D01*
X106684880Y-73455530D01*
X106650550Y-73421200D01*
X105841800Y-73421200D01*
X105841800Y-73441200D01*
X105587800Y-73441200D01*
X105587800Y-73421200D01*
X104779050Y-73421200D01*
X104683800Y-73516450D01*
X104683800Y-73583800D01*
X104206434Y-73583800D01*
X104021751Y-73620536D01*
X103873064Y-73719885D01*
X103873064Y-73289236D01*
X104293885Y-72868414D01*
X104683800Y-72868414D01*
X104683800Y-73071950D01*
X104779050Y-73167200D01*
X105587800Y-73167200D01*
X105587800Y-72658450D01*
X105841800Y-72658450D01*
X105841800Y-73167200D01*
X106650550Y-73167200D01*
X106745800Y-73071950D01*
X106745800Y-72868414D01*
X106687796Y-72728380D01*
X106580619Y-72621204D01*
X106440585Y-72563200D01*
X105937050Y-72563200D01*
X105841800Y-72658450D01*
X105587800Y-72658450D01*
X105492550Y-72563200D01*
X104989015Y-72563200D01*
X104848981Y-72621204D01*
X104741804Y-72728380D01*
X104683800Y-72868414D01*
X104293885Y-72868414D01*
X105060367Y-72101932D01*
X105060370Y-72101930D01*
X105164984Y-71945363D01*
X105201720Y-71760680D01*
X105201720Y-71441175D01*
X105298359Y-71344535D01*
X105397689Y-71444039D01*
X105705651Y-71571916D01*
X106039108Y-71572207D01*
X106347293Y-71444867D01*
X106583288Y-71209284D01*
X106711165Y-70901322D01*
X106711456Y-70567865D01*
X106584116Y-70259680D01*
X106348533Y-70023685D01*
X106040571Y-69895808D01*
X105707114Y-69895517D01*
X105398929Y-70022857D01*
X105162934Y-70258440D01*
X105160457Y-70264405D01*
X105041850Y-70287998D01*
X104885283Y-70392612D01*
X104885281Y-70392615D01*
X104377870Y-70900025D01*
X104273256Y-71056592D01*
X104236520Y-71241275D01*
X104236520Y-71560781D01*
X103691425Y-72105875D01*
X103645350Y-72059800D01*
X103086600Y-72059800D01*
X103086600Y-72079800D01*
X102832600Y-72079800D01*
X102832600Y-72059800D01*
X102812600Y-72059800D01*
X102812600Y-71805800D01*
X102832600Y-71805800D01*
X102832600Y-71785800D01*
X103086600Y-71785800D01*
X103086600Y-71805800D01*
X103645350Y-71805800D01*
X103740600Y-71710550D01*
X103740600Y-71482015D01*
X103682596Y-71341981D01*
X103575420Y-71234804D01*
X103435386Y-71176800D01*
X103181850Y-71176800D01*
X103086602Y-71272048D01*
X103086602Y-71176800D01*
X103068620Y-71176800D01*
X103191956Y-71053464D01*
X103862000Y-71053464D01*
X104010659Y-71023894D01*
X104136686Y-70939686D01*
X104220894Y-70813659D01*
X104250464Y-70665000D01*
X104250464Y-67494956D01*
X104831660Y-66913760D01*
X106923840Y-66913760D01*
X107118243Y-66875091D01*
X107283050Y-66764970D01*
X108309210Y-65738811D01*
X108419331Y-65574004D01*
X108431135Y-65514659D01*
X108458000Y-65379600D01*
X108458000Y-63468464D01*
X108800000Y-63468464D01*
X108901800Y-63448215D01*
X108901800Y-63559993D01*
G36*
X102236604Y-72523619D02*
X102343780Y-72630796D01*
X102394320Y-72651730D01*
X102336600Y-72709450D01*
X102336600Y-73398200D01*
X102356600Y-73398200D01*
X102356600Y-73652200D01*
X102336600Y-73652200D01*
X102336600Y-73672200D01*
X102082600Y-73672200D01*
X102082600Y-73652200D01*
X102062600Y-73652200D01*
X102062600Y-73398200D01*
X102082600Y-73398200D01*
X102082600Y-72709450D01*
X102027193Y-72654043D01*
X102134286Y-72582486D01*
X102212501Y-72465429D01*
X102236604Y-72523619D01*
X102236604Y-72523619D01*
G37*
X102236604Y-72523619D02*
X102343780Y-72630796D01*
X102394320Y-72651730D01*
X102336600Y-72709450D01*
X102336600Y-73398200D01*
X102356600Y-73398200D01*
X102356600Y-73652200D01*
X102336600Y-73652200D01*
X102336600Y-73672200D01*
X102082600Y-73672200D01*
X102082600Y-73652200D01*
X102062600Y-73652200D01*
X102062600Y-73398200D01*
X102082600Y-73398200D01*
X102082600Y-72709450D01*
X102027193Y-72654043D01*
X102134286Y-72582486D01*
X102212501Y-72465429D01*
X102236604Y-72523619D01*
G36*
X132434600Y-70049000D02*
X134380600Y-70049000D01*
X134380600Y-70029000D01*
X134634600Y-70029000D01*
X134634600Y-70049000D01*
X134654600Y-70049000D01*
X134654600Y-70303000D01*
X134634600Y-70303000D01*
X134634600Y-72249000D01*
X134654600Y-72249000D01*
X134654600Y-72503000D01*
X134634600Y-72503000D01*
X134634600Y-72523000D01*
X134380600Y-72523000D01*
X134380600Y-72503000D01*
X132434600Y-72503000D01*
X132434600Y-72523000D01*
X132180600Y-72523000D01*
X132180600Y-72503000D01*
X132160600Y-72503000D01*
X132160600Y-72249000D01*
X132180600Y-72249000D01*
X132180600Y-70303000D01*
X132434600Y-70303000D01*
X132434600Y-72249000D01*
X134380600Y-72249000D01*
X134380600Y-70303000D01*
X132434600Y-70303000D01*
X132180600Y-70303000D01*
X132160600Y-70303000D01*
X132160600Y-70049000D01*
X132180600Y-70049000D01*
X132180600Y-70029000D01*
X132434600Y-70029000D01*
X132434600Y-70049000D01*
X132434600Y-70049000D01*
G37*
X132434600Y-70049000D02*
X134380600Y-70049000D01*
X134380600Y-70029000D01*
X134634600Y-70029000D01*
X134634600Y-70049000D01*
X134654600Y-70049000D01*
X134654600Y-70303000D01*
X134634600Y-70303000D01*
X134634600Y-72249000D01*
X134654600Y-72249000D01*
X134654600Y-72503000D01*
X134634600Y-72503000D01*
X134634600Y-72523000D01*
X134380600Y-72523000D01*
X134380600Y-72503000D01*
X132434600Y-72503000D01*
X132434600Y-72523000D01*
X132180600Y-72523000D01*
X132180600Y-72503000D01*
X132160600Y-72503000D01*
X132160600Y-72249000D01*
X132180600Y-72249000D01*
X132180600Y-70303000D01*
X132434600Y-70303000D01*
X132434600Y-72249000D01*
X134380600Y-72249000D01*
X134380600Y-70303000D01*
X132434600Y-70303000D01*
X132180600Y-70303000D01*
X132160600Y-70303000D01*
X132160600Y-70049000D01*
X132180600Y-70049000D01*
X132180600Y-70029000D01*
X132434600Y-70029000D01*
X132434600Y-70049000D01*
G36*
X141085258Y-68083938D02*
X141085258Y-68853450D01*
X141052786Y-68840000D01*
X140799250Y-68840000D01*
X140704000Y-68935250D01*
X140704000Y-69469000D01*
X140724000Y-69469000D01*
X140724000Y-69723000D01*
X140704000Y-69723000D01*
X140704000Y-70256750D01*
X140741750Y-70294500D01*
X140704000Y-70332250D01*
X140704000Y-70866000D01*
X140724000Y-70866000D01*
X140724000Y-71120000D01*
X140704000Y-71120000D01*
X140704000Y-71140000D01*
X140450000Y-71140000D01*
X140450000Y-71120000D01*
X140430000Y-71120000D01*
X140430000Y-70866000D01*
X140450000Y-70866000D01*
X140450000Y-70332250D01*
X140412250Y-70294500D01*
X140450000Y-70256750D01*
X140450000Y-69723000D01*
X140430000Y-69723000D01*
X140430000Y-69469000D01*
X140450000Y-69469000D01*
X140450000Y-68979033D01*
X140450653Y-68978056D01*
X140453913Y-68961669D01*
X140487390Y-68793373D01*
X140487389Y-68793368D01*
X140487389Y-67486069D01*
X141085258Y-68083938D01*
X141085258Y-68083938D01*
G37*
X141085258Y-68083938D02*
X141085258Y-68853450D01*
X141052786Y-68840000D01*
X140799250Y-68840000D01*
X140704000Y-68935250D01*
X140704000Y-69469000D01*
X140724000Y-69469000D01*
X140724000Y-69723000D01*
X140704000Y-69723000D01*
X140704000Y-70256750D01*
X140741750Y-70294500D01*
X140704000Y-70332250D01*
X140704000Y-70866000D01*
X140724000Y-70866000D01*
X140724000Y-71120000D01*
X140704000Y-71120000D01*
X140704000Y-71140000D01*
X140450000Y-71140000D01*
X140450000Y-71120000D01*
X140430000Y-71120000D01*
X140430000Y-70866000D01*
X140450000Y-70866000D01*
X140450000Y-70332250D01*
X140412250Y-70294500D01*
X140450000Y-70256750D01*
X140450000Y-69723000D01*
X140430000Y-69723000D01*
X140430000Y-69469000D01*
X140450000Y-69469000D01*
X140450000Y-68979033D01*
X140450653Y-68978056D01*
X140453913Y-68961669D01*
X140487390Y-68793373D01*
X140487389Y-68793368D01*
X140487389Y-67486069D01*
X141085258Y-68083938D01*
G36*
X114432704Y-61734800D02*
X114339000Y-62205883D01*
X114339000Y-62254117D01*
X114432704Y-62725200D01*
X114699552Y-63124565D01*
X115098917Y-63391413D01*
X115570000Y-63485117D01*
X116041083Y-63391413D01*
X116045777Y-63388276D01*
X116239816Y-63582315D01*
X116161380Y-63614804D01*
X116054204Y-63721981D01*
X116030101Y-63780171D01*
X115951886Y-63663114D01*
X115825859Y-63578906D01*
X115677200Y-63549336D01*
X114877200Y-63549336D01*
X114728541Y-63578906D01*
X114602514Y-63663114D01*
X114518306Y-63789141D01*
X114488736Y-63937800D01*
X114488736Y-64687800D01*
X114518306Y-64836459D01*
X114602514Y-64962486D01*
X114728541Y-65046694D01*
X114792599Y-65059436D01*
X114807869Y-65136203D01*
X114917990Y-65301010D01*
X114959812Y-65342833D01*
X114885706Y-65453741D01*
X114856136Y-65602400D01*
X114856136Y-66772444D01*
X114261699Y-67366881D01*
X114172229Y-67307099D01*
X114230419Y-67282996D01*
X114337596Y-67175820D01*
X114395600Y-67035786D01*
X114395600Y-66782250D01*
X114300350Y-66687000D01*
X113766600Y-66687000D01*
X113766600Y-66707000D01*
X113512600Y-66707000D01*
X113512600Y-66687000D01*
X113492600Y-66687000D01*
X113492600Y-66433000D01*
X113512600Y-66433000D01*
X113512600Y-65874250D01*
X113766600Y-65874250D01*
X113766600Y-66433000D01*
X114300350Y-66433000D01*
X114395600Y-66337750D01*
X114395600Y-66084214D01*
X114337596Y-65944180D01*
X114230419Y-65837004D01*
X114090385Y-65779000D01*
X113861850Y-65779000D01*
X113766600Y-65874250D01*
X113512600Y-65874250D01*
X113417350Y-65779000D01*
X113188815Y-65779000D01*
X113048781Y-65837004D01*
X112941604Y-65944180D01*
X112883600Y-66084214D01*
X112883600Y-66189521D01*
X112771988Y-66143176D01*
X112610664Y-66143035D01*
X112610664Y-65476800D01*
X112581094Y-65328141D01*
X112496886Y-65202114D01*
X112405200Y-65140852D01*
X112405200Y-65076264D01*
X112527600Y-65076264D01*
X112676259Y-65046694D01*
X112802286Y-64962486D01*
X112880501Y-64845429D01*
X112904604Y-64903619D01*
X113011780Y-65010796D01*
X113151814Y-65068800D01*
X113405350Y-65068800D01*
X113500600Y-64973550D01*
X113500600Y-64439800D01*
X113754600Y-64439800D01*
X113754600Y-64973550D01*
X113849850Y-65068800D01*
X114103386Y-65068800D01*
X114243420Y-65010796D01*
X114350596Y-64903619D01*
X114408600Y-64763585D01*
X114408600Y-64535050D01*
X114313350Y-64439800D01*
X113754600Y-64439800D01*
X113500600Y-64439800D01*
X113480600Y-64439800D01*
X113480600Y-64185800D01*
X113500600Y-64185800D01*
X113500600Y-63652050D01*
X113754600Y-63652050D01*
X113754600Y-64185800D01*
X114313350Y-64185800D01*
X114408600Y-64090550D01*
X114408600Y-63862015D01*
X114350596Y-63721981D01*
X114243420Y-63614804D01*
X114103386Y-63556800D01*
X113849850Y-63556800D01*
X113754600Y-63652050D01*
X113500600Y-63652050D01*
X113405350Y-63556800D01*
X113151814Y-63556800D01*
X113011780Y-63614804D01*
X112904604Y-63721981D01*
X112880501Y-63780171D01*
X112802286Y-63663114D01*
X112676259Y-63578906D01*
X112635600Y-63570818D01*
X112635600Y-63406666D01*
X113030000Y-63485117D01*
X113501083Y-63391413D01*
X113900448Y-63124565D01*
X114167296Y-62725200D01*
X114261000Y-62254117D01*
X114261000Y-62205883D01*
X114167296Y-61734800D01*
X113954280Y-61416000D01*
X114645720Y-61416000D01*
X114432704Y-61734800D01*
X114432704Y-61734800D01*
G37*
X114432704Y-61734800D02*
X114339000Y-62205883D01*
X114339000Y-62254117D01*
X114432704Y-62725200D01*
X114699552Y-63124565D01*
X115098917Y-63391413D01*
X115570000Y-63485117D01*
X116041083Y-63391413D01*
X116045777Y-63388276D01*
X116239816Y-63582315D01*
X116161380Y-63614804D01*
X116054204Y-63721981D01*
X116030101Y-63780171D01*
X115951886Y-63663114D01*
X115825859Y-63578906D01*
X115677200Y-63549336D01*
X114877200Y-63549336D01*
X114728541Y-63578906D01*
X114602514Y-63663114D01*
X114518306Y-63789141D01*
X114488736Y-63937800D01*
X114488736Y-64687800D01*
X114518306Y-64836459D01*
X114602514Y-64962486D01*
X114728541Y-65046694D01*
X114792599Y-65059436D01*
X114807869Y-65136203D01*
X114917990Y-65301010D01*
X114959812Y-65342833D01*
X114885706Y-65453741D01*
X114856136Y-65602400D01*
X114856136Y-66772444D01*
X114261699Y-67366881D01*
X114172229Y-67307099D01*
X114230419Y-67282996D01*
X114337596Y-67175820D01*
X114395600Y-67035786D01*
X114395600Y-66782250D01*
X114300350Y-66687000D01*
X113766600Y-66687000D01*
X113766600Y-66707000D01*
X113512600Y-66707000D01*
X113512600Y-66687000D01*
X113492600Y-66687000D01*
X113492600Y-66433000D01*
X113512600Y-66433000D01*
X113512600Y-65874250D01*
X113766600Y-65874250D01*
X113766600Y-66433000D01*
X114300350Y-66433000D01*
X114395600Y-66337750D01*
X114395600Y-66084214D01*
X114337596Y-65944180D01*
X114230419Y-65837004D01*
X114090385Y-65779000D01*
X113861850Y-65779000D01*
X113766600Y-65874250D01*
X113512600Y-65874250D01*
X113417350Y-65779000D01*
X113188815Y-65779000D01*
X113048781Y-65837004D01*
X112941604Y-65944180D01*
X112883600Y-66084214D01*
X112883600Y-66189521D01*
X112771988Y-66143176D01*
X112610664Y-66143035D01*
X112610664Y-65476800D01*
X112581094Y-65328141D01*
X112496886Y-65202114D01*
X112405200Y-65140852D01*
X112405200Y-65076264D01*
X112527600Y-65076264D01*
X112676259Y-65046694D01*
X112802286Y-64962486D01*
X112880501Y-64845429D01*
X112904604Y-64903619D01*
X113011780Y-65010796D01*
X113151814Y-65068800D01*
X113405350Y-65068800D01*
X113500600Y-64973550D01*
X113500600Y-64439800D01*
X113754600Y-64439800D01*
X113754600Y-64973550D01*
X113849850Y-65068800D01*
X114103386Y-65068800D01*
X114243420Y-65010796D01*
X114350596Y-64903619D01*
X114408600Y-64763585D01*
X114408600Y-64535050D01*
X114313350Y-64439800D01*
X113754600Y-64439800D01*
X113500600Y-64439800D01*
X113480600Y-64439800D01*
X113480600Y-64185800D01*
X113500600Y-64185800D01*
X113500600Y-63652050D01*
X113754600Y-63652050D01*
X113754600Y-64185800D01*
X114313350Y-64185800D01*
X114408600Y-64090550D01*
X114408600Y-63862015D01*
X114350596Y-63721981D01*
X114243420Y-63614804D01*
X114103386Y-63556800D01*
X113849850Y-63556800D01*
X113754600Y-63652050D01*
X113500600Y-63652050D01*
X113405350Y-63556800D01*
X113151814Y-63556800D01*
X113011780Y-63614804D01*
X112904604Y-63721981D01*
X112880501Y-63780171D01*
X112802286Y-63663114D01*
X112676259Y-63578906D01*
X112635600Y-63570818D01*
X112635600Y-63406666D01*
X113030000Y-63485117D01*
X113501083Y-63391413D01*
X113900448Y-63124565D01*
X114167296Y-62725200D01*
X114261000Y-62254117D01*
X114261000Y-62205883D01*
X114167296Y-61734800D01*
X113954280Y-61416000D01*
X114645720Y-61416000D01*
X114432704Y-61734800D01*
G36*
X128409000Y-64846200D02*
X128429000Y-64846200D01*
X128429000Y-65100200D01*
X128409000Y-65100200D01*
X128409000Y-65633950D01*
X128434050Y-65659000D01*
X128409000Y-65684050D01*
X128409000Y-66217800D01*
X128429000Y-66217800D01*
X128429000Y-66471800D01*
X128409000Y-66471800D01*
X128409000Y-66491800D01*
X128155000Y-66491800D01*
X128155000Y-66471800D01*
X127596250Y-66471800D01*
X127523637Y-66544413D01*
X126784089Y-66544413D01*
X126492120Y-66252445D01*
X126673502Y-66216366D01*
X126838309Y-66106245D01*
X127247994Y-65696560D01*
X127358115Y-65531754D01*
X127396784Y-65337350D01*
X127396784Y-65207474D01*
X127504056Y-65100202D01*
X127596248Y-65100202D01*
X127501000Y-65195450D01*
X127501000Y-65423985D01*
X127559004Y-65564019D01*
X127653984Y-65659000D01*
X127559004Y-65753981D01*
X127501000Y-65894015D01*
X127501000Y-66122550D01*
X127596250Y-66217800D01*
X128155000Y-66217800D01*
X128155000Y-65684050D01*
X128129950Y-65659000D01*
X128155000Y-65633950D01*
X128155000Y-65100200D01*
X128135000Y-65100200D01*
X128135000Y-64846200D01*
X128155000Y-64846200D01*
X128155000Y-64826200D01*
X128409000Y-64826200D01*
X128409000Y-64846200D01*
X128409000Y-64846200D01*
G37*
X128409000Y-64846200D02*
X128429000Y-64846200D01*
X128429000Y-65100200D01*
X128409000Y-65100200D01*
X128409000Y-65633950D01*
X128434050Y-65659000D01*
X128409000Y-65684050D01*
X128409000Y-66217800D01*
X128429000Y-66217800D01*
X128429000Y-66471800D01*
X128409000Y-66471800D01*
X128409000Y-66491800D01*
X128155000Y-66491800D01*
X128155000Y-66471800D01*
X127596250Y-66471800D01*
X127523637Y-66544413D01*
X126784089Y-66544413D01*
X126492120Y-66252445D01*
X126673502Y-66216366D01*
X126838309Y-66106245D01*
X127247994Y-65696560D01*
X127358115Y-65531754D01*
X127396784Y-65337350D01*
X127396784Y-65207474D01*
X127504056Y-65100202D01*
X127596248Y-65100202D01*
X127501000Y-65195450D01*
X127501000Y-65423985D01*
X127559004Y-65564019D01*
X127653984Y-65659000D01*
X127559004Y-65753981D01*
X127501000Y-65894015D01*
X127501000Y-66122550D01*
X127596250Y-66217800D01*
X128155000Y-66217800D01*
X128155000Y-65684050D01*
X128129950Y-65659000D01*
X128155000Y-65633950D01*
X128155000Y-65100200D01*
X128135000Y-65100200D01*
X128135000Y-64846200D01*
X128155000Y-64846200D01*
X128155000Y-64826200D01*
X128409000Y-64826200D01*
X128409000Y-64846200D01*
G36*
X118031210Y-63867401D02*
X118337114Y-63867401D01*
X117694514Y-64510001D01*
X117533151Y-64510001D01*
X117462950Y-64439800D01*
X116904200Y-64439800D01*
X116904200Y-64459800D01*
X116650200Y-64459800D01*
X116650200Y-64439800D01*
X116630200Y-64439800D01*
X116630200Y-64185800D01*
X116650200Y-64185800D01*
X116650200Y-64165800D01*
X116904200Y-64165800D01*
X116904200Y-64185800D01*
X117462950Y-64185800D01*
X117558200Y-64090550D01*
X117558200Y-63865960D01*
X118023966Y-63865960D01*
X118031210Y-63867401D01*
X118031210Y-63867401D01*
G37*
X118031210Y-63867401D02*
X118337114Y-63867401D01*
X117694514Y-64510001D01*
X117533151Y-64510001D01*
X117462950Y-64439800D01*
X116904200Y-64439800D01*
X116904200Y-64459800D01*
X116650200Y-64459800D01*
X116650200Y-64439800D01*
X116630200Y-64439800D01*
X116630200Y-64185800D01*
X116650200Y-64185800D01*
X116650200Y-64165800D01*
X116904200Y-64165800D01*
X116904200Y-64185800D01*
X117462950Y-64185800D01*
X117558200Y-64090550D01*
X117558200Y-63865960D01*
X118023966Y-63865960D01*
X118031210Y-63867401D01*
M02*
